if (_typeface_js && _typeface_js.loadFace) _typeface_js.loadFace({"glyphs":{"":{"x_min":0,"x_max":1091.359375,"ha":1091,"o":"m 977 610 q 992 644 992 624 q 977 679 992 665 q 942 694 962 694 q 907 679 922 694 q 892 644 892 665 q 907 610 892 624 q 942 595 922 595 q 977 610 962 595 m 1091 644 q 1063 558 1091 596 q 992 504 1036 520 l 992 198 q 890 -12 992 75 q 644 -99 788 -99 q 399 -12 501 -99 q 297 198 297 75 l 297 300 q 85 399 170 316 q 0 595 0 483 l 0 992 q 14 1027 0 1012 q 49 1041 29 1041 q 62 1040 54 1041 q 98 1077 75 1063 q 148 1091 121 1091 q 218 1062 189 1091 q 248 992 248 1033 q 218 921 248 951 q 148 892 189 892 q 99 906 123 892 l 99 595 q 172 454 99 513 q 347 396 244 396 q 522 454 449 396 q 595 595 595 513 l 595 906 q 545 892 571 892 q 475 921 504 892 q 446 992 446 951 q 475 1062 446 1033 q 545 1091 504 1091 q 596 1077 572 1091 q 632 1040 619 1063 q 644 1041 640 1041 q 679 1027 665 1041 q 694 992 694 1012 l 694 595 q 609 399 694 483 q 396 300 523 316 l 396 198 q 469 58 396 116 q 644 0 542 0 q 820 58 747 0 q 892 198 892 116 l 892 504 q 821 558 848 520 q 793 644 793 596 q 837 750 793 706 q 942 793 880 793 q 1047 750 1004 793 q 1091 644 1091 706 "},"":{"x_min":0,"x_max":1389,"ha":1389,"o":"m 1314 892 q 1367 871 1345 892 q 1389 818 1389 849 l 1389 -124 q 1367 -176 1389 -155 q 1314 -198 1345 -198 l 570 -198 q 517 -176 539 -198 q 496 -124 496 -155 l 496 99 l 74 99 q 21 120 43 99 q 0 173 0 142 l 0 694 q 15 762 0 725 q 52 821 31 799 l 368 1137 q 427 1175 390 1159 q 496 1190 465 1190 l 818 1190 q 871 1168 849 1190 q 892 1116 892 1147 l 892 861 q 992 892 945 892 l 1314 892 m 892 727 l 661 496 l 892 496 l 892 727 m 396 1025 l 165 793 l 396 793 l 396 1025 m 548 523 l 793 768 l 793 1091 l 496 1091 l 496 768 q 474 716 496 737 q 421 694 452 694 l 99 694 l 99 198 l 496 198 l 496 396 q 511 465 496 427 q 548 523 527 502 m 1289 -99 l 1289 793 l 992 793 l 992 471 q 970 418 992 440 q 917 396 948 396 l 595 396 l 595 -99 l 1289 -99 "},"":{"x_min":0,"x_max":1190.578125,"ha":1191,"o":"m 903 530 q 917 496 917 516 q 903 461 917 475 l 481 39 q 446 24 466 24 q 411 39 426 24 q 396 74 396 54 l 396 297 l 49 297 q 14 312 29 297 q 0 347 0 327 l 0 644 q 14 679 0 665 q 49 694 29 694 l 396 694 l 396 917 q 411 952 396 937 q 446 967 426 967 q 481 952 466 967 l 903 530 m 1190 768 l 1190 223 q 1125 65 1190 131 q 967 0 1059 0 l 719 0 q 701 7 709 0 q 694 24 694 14 q 693 40 694 27 q 693 60 692 52 q 695 79 693 68 q 703 94 697 89 q 719 99 709 99 l 967 99 q 1054 135 1018 99 q 1091 223 1091 172 l 1091 768 q 1054 856 1091 820 q 967 892 1018 892 l 744 892 q 735 892 743 892 q 725 892 727 892 q 716 893 723 892 q 707 896 710 894 q 701 900 705 897 q 696 907 697 903 q 694 917 694 911 q 693 933 694 920 q 693 953 692 945 q 695 971 693 961 q 703 987 697 982 q 719 992 709 992 l 967 992 q 1125 926 1059 992 q 1190 768 1190 861 "},"":{"x_min":0,"x_max":1190.578125,"ha":1191,"o":"m 892 570 l 892 421 q 885 404 892 411 q 868 396 878 396 l 595 396 l 595 248 q 588 230 595 237 q 570 223 581 223 q 551 230 561 223 l 304 478 q 297 496 297 485 q 304 513 297 506 l 552 761 q 570 768 559 768 q 587 761 580 768 q 595 744 595 754 l 595 595 l 868 595 q 885 587 878 595 q 892 570 892 580 m 960 284 q 1016 496 1016 381 q 960 707 1016 610 q 806 861 903 804 q 595 917 710 917 q 383 861 480 917 q 230 707 286 804 q 173 496 173 610 q 230 284 173 381 q 383 130 286 187 q 595 74 480 74 q 806 130 710 74 q 960 284 903 187 m 1110 794 q 1190 496 1190 658 q 1110 197 1190 334 q 894 -19 1030 60 q 595 -99 757 -99 q 296 -19 433 -99 q 79 197 159 60 q 0 496 0 334 q 79 794 0 658 q 296 1011 159 931 q 595 1091 433 1091 q 894 1011 757 1091 q 1110 794 1030 931 "},"":{"x_min":0,"x_max":790.609375,"ha":794,"o":"m 790 309 l 790 24 q 783 6 790 13 q 765 0 776 0 l 24 0 q 6 6 13 0 q 0 24 0 13 l 0 141 q 7 158 0 151 q 24 165 14 165 l 99 165 l 99 462 l 26 462 q 8 470 15 462 q 1 487 1 477 l 1 589 q 8 606 1 599 q 26 613 15 613 l 99 613 l 99 786 q 195 1005 99 919 q 439 1091 291 1091 q 699 994 582 1091 q 706 978 706 988 q 701 961 707 968 l 621 862 q 604 853 614 854 q 586 858 594 851 q 566 873 582 862 q 513 898 550 884 q 441 912 475 912 q 334 875 375 912 q 294 780 294 839 l 294 613 l 530 613 q 548 606 541 613 q 555 589 555 599 l 555 487 q 548 470 555 477 q 530 462 541 462 l 294 462 l 294 168 l 615 168 l 615 309 q 622 326 615 319 q 640 334 629 334 l 765 334 q 783 326 776 334 q 790 309 790 319 "},"":{"x_min":0,"x_max":1389,"ha":1389,"o":"m 198 173 l 198 24 q 191 7 198 14 q 173 0 183 0 l 24 0 q 7 7 14 0 q 0 24 0 14 l 0 173 q 7 191 0 183 q 24 198 14 198 l 173 198 q 191 191 183 198 q 198 173 198 183 m 198 471 l 198 322 q 191 305 198 312 q 173 297 183 297 l 24 297 q 7 305 14 297 q 0 322 0 312 l 0 471 q 7 488 0 481 q 24 496 14 496 l 173 496 q 191 488 183 496 q 198 471 198 481 m 198 768 l 198 620 q 191 602 198 610 q 173 595 183 595 l 24 595 q 7 602 14 595 q 0 620 0 610 l 0 768 q 7 786 0 778 q 24 793 14 793 l 173 793 q 191 786 183 793 q 198 768 198 778 m 1389 173 l 1389 24 q 1381 7 1389 14 q 1364 0 1374 0 l 322 0 q 305 7 312 0 q 297 24 297 14 l 297 173 q 305 191 297 183 q 322 198 312 198 l 1364 198 q 1381 191 1374 198 q 1389 173 1389 183 m 198 1066 l 198 917 q 191 900 198 907 q 173 892 183 892 l 24 892 q 7 900 14 892 q 0 917 0 907 l 0 1066 q 7 1083 0 1076 q 24 1091 14 1091 l 173 1091 q 191 1083 183 1091 q 198 1066 198 1076 m 1389 471 l 1389 322 q 1381 305 1389 312 q 1364 297 1374 297 l 322 297 q 305 305 312 297 q 297 322 297 312 l 297 471 q 305 488 297 481 q 322 496 312 496 l 1364 496 q 1381 488 1374 496 q 1389 471 1389 481 m 1389 768 l 1389 620 q 1381 602 1389 610 q 1364 595 1374 595 l 322 595 q 305 602 312 595 q 297 620 297 610 l 297 768 q 305 786 297 778 q 322 793 312 793 l 1364 793 q 1381 786 1374 793 q 1389 768 1389 778 m 1389 1066 l 1389 917 q 1381 900 1389 907 q 1364 892 1374 892 l 322 892 q 305 900 312 892 q 297 917 297 907 l 297 1066 q 305 1083 297 1076 q 322 1091 312 1091 l 1364 1091 q 1381 1083 1374 1091 q 1389 1066 1389 1076 "},"":{"x_min":0,"x_max":0,"ha":1389},"":{"x_min":0,"x_max":1389,"ha":1389,"o":"m 712 527 q 719 545 719 534 q 712 563 719 556 q 694 570 705 570 q 606 534 643 570 q 570 446 570 497 q 577 428 570 435 q 595 421 584 421 q 613 428 606 421 q 620 446 620 435 q 641 499 620 477 q 694 520 663 520 q 712 527 705 520 m 834 585 q 892 444 892 527 q 834 304 892 362 q 694 246 776 246 q 554 304 612 246 q 496 444 496 362 q 554 585 496 527 q 694 643 612 643 q 834 585 776 643 m 99 0 l 1289 0 l 1289 99 l 99 99 l 99 0 m 904 234 q 992 444 992 321 q 904 655 992 568 q 694 742 817 742 q 484 655 571 742 q 396 444 396 568 q 484 234 396 321 q 694 147 571 147 q 904 234 817 147 m 198 942 l 496 942 l 496 1041 l 198 1041 l 198 942 m 99 793 l 1289 793 l 1289 885 l 1289 992 l 648 992 l 598 892 l 99 892 l 99 793 m 1389 992 l 1389 0 q 1359 -70 1389 -41 q 1289 -99 1330 -99 l 99 -99 q 29 -70 58 -99 q 0 0 0 -41 l 0 992 q 29 1062 0 1033 q 99 1091 58 1091 l 1289 1091 q 1359 1062 1330 1091 q 1389 992 1389 1033 "},"":{"x_min":0,"x_max":1190.578125,"ha":1191,"o":"m 850 354 l 737 241 q 719 233 729 233 q 701 241 709 233 l 595 347 l 489 241 q 471 233 481 233 q 453 241 461 233 l 340 354 q 332 372 332 361 q 340 389 332 382 l 446 496 l 340 602 q 332 620 332 610 q 340 637 332 630 l 453 751 q 471 758 461 758 q 489 751 481 758 l 595 644 l 701 751 q 719 758 709 758 q 737 751 729 758 l 850 637 q 858 620 858 630 q 850 602 858 610 l 744 496 l 850 389 q 858 372 858 382 q 850 354 858 361 m 960 284 q 1016 496 1016 381 q 960 707 1016 610 q 806 861 903 804 q 595 917 710 917 q 383 861 480 917 q 230 707 286 804 q 173 496 173 610 q 230 284 173 381 q 383 130 286 187 q 595 74 480 74 q 806 130 710 74 q 960 284 903 187 m 1110 794 q 1190 496 1190 658 q 1110 197 1190 334 q 894 -19 1030 60 q 595 -99 757 -99 q 296 -19 433 -99 q 79 197 159 60 q 0 496 0 334 q 79 794 0 658 q 296 1011 159 931 q 595 1091 433 1091 q 894 1011 757 1091 q 1110 794 1030 931 "},"":{"x_min":38.75,"x_max":1449.453125,"ha":1488,"o":"m 861 418 l 861 421 l 842 669 q 834 687 841 679 q 816 694 826 694 l 672 694 q 654 687 661 694 q 645 669 646 679 l 627 421 l 627 418 q 633 403 626 409 q 649 396 640 396 l 838 396 q 854 403 847 396 q 861 418 861 409 m 1449 56 q 1413 0 1449 0 l 868 0 q 885 7 878 0 q 891 24 892 14 l 875 223 q 867 240 875 233 q 849 248 859 248 l 638 248 q 620 240 628 248 q 612 223 613 233 l 596 24 q 603 7 596 14 q 620 0 610 0 l 74 0 q 38 56 38 0 q 58 146 38 98 l 382 955 q 402 981 388 970 q 431 992 416 992 l 694 992 q 676 984 684 992 q 668 967 668 977 l 656 818 q 662 800 655 807 q 679 793 669 793 l 808 793 q 825 800 818 793 q 831 818 832 807 l 820 967 q 811 984 819 977 q 793 992 803 992 l 1056 992 q 1085 981 1071 992 q 1106 955 1099 970 l 1429 146 q 1449 56 1449 98 "},"":{"x_min":0,"x_max":1190.578125,"ha":1191,"o":"m 792 446 l 1037 446 q 1035 452 1037 448 q 1034 458 1034 456 l 869 843 l 320 843 l 156 458 q 154 452 155 457 q 152 446 153 448 l 397 446 l 471 297 l 719 297 l 792 446 m 1190 423 l 1190 49 q 1175 14 1190 29 q 1140 0 1161 0 l 49 0 q 14 14 29 0 q 0 49 0 29 l 0 423 q 19 518 0 471 l 203 946 q 232 978 211 965 q 272 992 252 992 l 917 992 q 958 978 937 992 q 986 946 978 965 l 1171 518 q 1190 423 1190 471 "},"":{"x_min":0.015625,"x_max":1289.734375,"ha":1290,"o":"m 919 448 l 1118 642 l 842 682 l 791 690 l 768 737 l 644 986 l 644 240 l 690 216 l 937 86 l 890 361 l 881 412 l 919 448 m 1269 651 l 988 377 l 1054 -10 q 1050 -49 1058 -35 q 1023 -64 1041 -64 q 992 -55 1010 -64 l 644 127 l 296 -55 q 265 -64 279 -64 q 239 -49 248 -64 q 234 -10 230 -35 l 301 377 l 19 651 q 1 697 -5 676 q 43 724 8 719 l 432 781 l 606 1133 q 644 1165 622 1165 q 682 1133 666 1165 l 857 781 l 1246 724 q 1288 697 1281 719 q 1269 651 1295 676 "},"":{"x_min":10.078125,"x_max":758.828125,"ha":794,"o":"m 453 464 q 461 446 461 456 q 453 428 461 436 l 92 67 q 74 59 84 59 q 56 67 64 59 l 17 106 q 10 124 10 113 q 17 141 10 134 l 322 446 l 17 751 q 10 768 10 758 q 17 786 10 778 l 56 825 q 74 833 64 833 q 92 825 84 833 l 453 464 m 751 464 q 758 446 758 456 q 751 428 758 436 l 389 67 q 372 59 382 59 q 354 67 361 59 l 315 106 q 307 124 307 113 q 315 141 307 134 l 620 446 l 315 751 q 307 768 307 758 q 315 786 307 778 l 354 825 q 372 833 361 833 q 389 825 382 833 l 751 464 "},"":{"x_min":0,"x_max":696.046875,"ha":696,"o":"m 696 826 l 696 747 q 689 729 696 736 q 671 722 682 722 l 541 722 q 441 541 523 610 q 227 455 358 471 q 582 40 356 317 q 585 13 593 27 q 563 0 579 0 l 412 0 q 392 9 399 0 q 6 451 155 293 q 0 468 0 458 l 0 567 q 7 584 0 577 q 24 592 14 592 l 111 592 q 276 625 213 592 q 355 722 338 658 l 24 722 q 6 729 13 722 q 0 747 0 736 l 0 826 q 6 844 0 837 q 24 851 13 851 l 344 851 q 137 938 300 938 l 24 938 q 7 946 14 938 q 0 963 0 953 l 0 1066 q 6 1084 0 1077 q 24 1091 13 1091 l 669 1091 q 687 1084 680 1091 q 694 1066 694 1077 l 694 987 q 687 969 694 976 q 669 962 680 962 l 489 962 q 538 851 525 915 l 671 851 q 689 844 682 851 q 696 826 696 837 "},"":{"x_min":0,"x_max":1488.21875,"ha":1488,"o":"m 644 347 l 644 446 q 637 464 644 457 q 620 471 630 471 l 471 471 l 471 620 q 464 637 471 630 q 446 644 457 644 l 347 644 q 329 637 336 644 q 322 620 322 630 l 322 471 l 173 471 q 155 464 162 471 q 148 446 148 457 l 148 347 q 155 329 148 336 q 173 322 162 322 l 322 322 l 322 173 q 329 155 322 162 q 347 148 336 148 l 446 148 q 464 155 457 148 q 471 173 471 162 l 471 322 l 620 322 q 637 329 630 322 q 644 347 644 336 m 1062 227 q 1091 297 1091 256 q 1062 367 1091 338 q 992 396 1033 396 q 921 367 951 396 q 892 297 892 338 q 921 227 892 256 q 992 198 951 198 q 1062 227 1033 198 m 1260 425 q 1289 496 1289 454 q 1260 566 1289 537 q 1190 595 1231 595 q 1120 566 1149 595 q 1091 496 1091 537 q 1120 425 1091 454 q 1190 396 1149 396 q 1260 425 1231 396 m 1371 677 q 1488 396 1488 561 q 1371 116 1488 232 q 1091 0 1255 0 q 829 99 942 0 l 658 99 q 396 0 545 0 q 116 116 232 0 q 0 396 0 232 q 116 677 0 561 q 396 793 232 793 l 1091 793 q 1371 677 1255 793 "},"":{"x_min":0,"x_max":1456.4375,"ha":1488,"o":"m 1456 452 q 1432 401 1456 428 l 1171 94 q 1078 27 1138 55 q 967 0 1018 0 l 124 0 q 77 10 97 0 q 56 43 56 20 q 80 94 56 67 l 341 401 q 434 468 374 441 q 545 496 494 496 l 1389 496 q 1435 486 1415 496 q 1456 452 1456 475 m 1190 719 l 1190 595 l 545 595 q 392 558 472 595 q 265 465 313 521 l 4 158 l 0 154 q 0 163 0 157 q 0 173 0 170 l 0 917 q 51 1040 0 989 q 173 1091 102 1091 l 421 1091 q 544 1040 492 1091 q 595 917 595 989 l 595 892 l 1016 892 q 1139 841 1088 892 q 1190 719 1190 790 "},"":{"x_min":0,"x_max":1190.578125,"ha":1191,"o":"m 1171 372 q 1170 366 1171 368 q 962 29 1120 158 q 592 -99 804 -99 q 373 -56 479 -99 q 184 65 267 -13 l 84 -34 q 49 -49 69 -49 q 14 -34 29 -49 q 0 0 0 -20 l 0 347 q 14 382 0 367 q 49 396 29 396 l 396 396 q 431 382 417 396 q 446 347 446 367 q 431 312 446 327 l 325 206 q 450 127 380 155 q 595 99 520 99 q 789 149 699 99 q 933 288 878 199 q 974 379 941 301 q 997 396 980 396 l 1146 396 q 1163 389 1156 396 q 1171 372 1171 382 m 1190 992 l 1190 644 q 1175 610 1190 624 q 1140 595 1161 595 l 793 595 q 758 610 773 595 q 744 644 744 624 q 758 679 744 665 l 865 786 q 595 892 751 892 q 401 842 491 892 q 257 703 311 792 q 216 613 248 690 q 193 595 210 595 l 38 595 q 21 602 28 595 q 13 620 13 610 l 13 625 q 223 962 64 833 q 595 1091 382 1091 q 815 1048 708 1091 q 1005 927 922 1005 l 1106 1027 q 1140 1041 1120 1041 q 1175 1027 1161 1041 q 1190 992 1190 1012 "},"":{"x_min":24.203125,"x_max":1287.453125,"ha":1290,"o":"m 923 80 l 1060 80 l 1004 249 l 995 286 q 993 301 993 298 l 990 301 l 988 286 q 985 272 988 285 q 979 249 982 258 l 923 80 m 570 74 q 562 55 570 65 l 315 -191 q 297 -198 307 -198 q 279 -191 288 -198 l 31 56 q 26 83 20 68 q 49 99 32 99 l 198 99 l 198 1165 q 205 1183 198 1176 q 223 1190 212 1190 l 372 1190 q 389 1183 382 1190 q 396 1165 396 1176 l 396 99 l 545 99 q 563 92 556 99 q 570 74 570 85 m 1287 -116 l 1287 -198 l 1064 -198 l 1064 -116 l 1122 -116 l 1085 -4 l 897 -4 l 861 -116 l 919 -116 l 919 -198 l 696 -198 l 696 -116 l 751 -116 l 929 396 l 1054 396 l 1233 -116 l 1287 -116 m 1218 775 l 1218 595 l 765 595 l 765 665 l 1051 1075 q 1068 1096 1061 1089 l 1076 1102 l 1076 1105 q 1071 1104 1075 1105 q 1065 1104 1068 1104 q 1042 1102 1056 1102 l 862 1102 l 862 1013 l 769 1013 l 769 1190 l 1209 1190 l 1209 1121 l 923 710 q 906 690 918 704 l 898 682 l 898 680 l 909 682 q 932 683 916 683 l 1124 683 l 1124 775 l 1218 775 "},"":{"x_min":49.609375,"x_max":1339.390625,"ha":1389,"o":"m 828 510 q 843 545 843 525 q 828 580 843 565 q 793 595 813 595 l 595 595 q 560 580 575 595 q 545 545 545 565 q 560 510 545 525 q 595 496 575 496 l 793 496 q 828 510 813 496 m 1289 694 l 1289 -49 q 1275 -84 1289 -69 q 1240 -99 1260 -99 l 148 -99 q 113 -84 128 -99 q 99 -49 99 -69 l 99 694 q 113 729 99 714 q 148 744 128 744 l 1240 744 q 1275 729 1260 744 q 1289 694 1289 714 m 1339 1041 l 1339 843 q 1324 808 1339 823 q 1289 793 1309 793 l 99 793 q 64 808 79 793 q 49 843 49 823 l 49 1041 q 64 1076 49 1061 q 99 1091 79 1091 l 1289 1091 q 1324 1076 1309 1091 q 1339 1041 1339 1061 "},"":{"x_min":0,"x_max":1389.453125,"ha":1389,"o":"m 523 195 q 531 248 539 221 q 496 287 523 275 q 440 288 470 298 q 393 252 410 278 q 383 199 376 226 q 417 160 390 172 q 474 158 443 148 q 523 195 506 168 m 596 289 q 598 309 602 299 q 585 324 595 320 q 563 323 574 327 q 546 309 551 319 q 556 274 533 285 q 579 274 567 270 q 596 289 590 279 m 730 206 q 608 89 696 127 q 434 80 520 52 q 320 178 351 106 q 325 324 289 250 q 442 431 361 396 q 606 446 523 467 q 728 353 692 423 q 730 206 765 283 m 972 330 q 903 461 965 404 q 742 546 841 519 q 529 562 642 573 q 242 453 356 544 q 140 248 129 361 q 209 116 147 173 q 370 31 271 58 q 583 15 470 4 q 870 125 756 33 q 972 330 983 217 m 1211 327 q 1182 218 1211 274 q 1098 112 1154 163 q 967 21 1042 62 q 792 -42 892 -18 q 582 -66 692 -66 q 369 -40 473 -66 q 183 31 265 -14 q 50 148 100 77 q 0 303 0 219 q 53 492 0 392 q 206 692 107 593 q 471 875 337 823 q 662 870 605 927 q 678 708 713 820 q 677 692 675 697 q 685 687 679 688 q 696 687 690 686 q 706 690 702 689 l 711 692 q 902 737 819 737 q 1020 690 985 737 q 1020 552 1055 641 q 1017 537 1019 542 q 1020 527 1015 531 q 1030 521 1026 523 q 1043 517 1034 520 q 1123 480 1087 503 q 1185 417 1158 458 q 1211 327 1211 376 m 1075 861 q 1154 810 1121 847 q 1196 726 1186 774 q 1191 635 1206 679 q 1168 609 1185 617 q 1133 606 1151 600 q 1107 629 1116 612 q 1104 663 1099 645 q 1085 749 1120 712 q 1003 776 1051 786 q 968 782 984 772 q 948 811 951 792 q 954 846 944 830 q 983 865 965 861 q 1075 861 1030 875 m 1294 937 q 1381 764 1361 862 q 1371 577 1401 666 q 1344 546 1364 556 q 1304 543 1325 536 q 1273 569 1283 550 q 1269 610 1263 589 q 1277 743 1291 673 q 1215 865 1263 813 q 1100 939 1167 919 q 966 946 1034 960 q 926 953 944 941 q 903 987 907 965 q 910 1027 898 1009 q 944 1050 922 1045 q 1133 1041 1039 1070 q 1294 937 1227 1012 "},"":{"x_min":0,"x_max":1289.78125,"ha":1290,"o":"m 340 205 l 141 6 q 124 0 134 0 q 106 6 114 0 q 99 24 99 14 q 106 42 99 34 l 304 241 q 322 248 312 248 q 340 241 332 248 q 347 223 347 233 q 340 205 347 213 m 471 173 l 471 -74 q 464 -92 471 -85 q 446 -99 457 -99 q 428 -92 435 -99 q 421 -74 421 -85 l 421 173 q 428 191 421 184 q 446 198 435 198 q 464 191 457 198 q 471 173 471 184 m 290 365 q 297 347 297 358 q 290 329 297 336 q 272 322 283 322 l 24 322 q 6 329 13 322 q 0 347 0 336 q 6 365 0 358 q 24 372 13 372 l 272 372 q 290 365 283 372 m 1277 248 q 1211 90 1277 155 l 1097 -22 q 940 -86 1033 -86 q 782 -20 846 -86 l 523 238 q 490 282 506 255 l 675 296 l 887 83 q 940 62 908 62 q 992 82 971 62 l 1106 196 q 1128 248 1128 217 q 1106 300 1128 279 l 894 513 l 908 699 q 951 666 935 682 l 1212 406 q 1277 248 1277 339 m 799 809 l 613 795 l 402 1007 q 349 1029 380 1029 q 296 1008 319 1029 l 182 895 q 161 843 161 873 q 182 790 161 812 l 395 578 l 381 392 q 337 424 354 408 l 77 685 q 12 843 12 751 q 78 1000 12 936 l 192 1113 q 349 1178 256 1178 q 507 1112 443 1178 l 766 852 q 799 809 782 836 m 1282 761 q 1289 744 1289 754 q 1282 726 1289 733 q 1264 719 1275 719 l 1016 719 q 999 726 1006 719 q 992 744 992 733 q 999 761 992 754 q 1016 768 1006 768 l 1264 768 q 1282 761 1275 768 m 868 1165 l 868 917 q 861 899 868 906 q 843 892 854 892 q 825 899 832 892 q 818 917 818 906 l 818 1165 q 825 1183 818 1176 q 843 1190 832 1190 q 861 1183 854 1190 q 868 1165 868 1176 m 1183 1048 l 985 850 q 967 843 976 843 q 949 850 958 843 q 942 868 942 858 q 949 885 942 878 l 1147 1084 q 1165 1091 1155 1091 q 1183 1084 1175 1091 q 1190 1066 1190 1076 q 1183 1048 1190 1056 "},"":{"x_min":0,"x_max":595.28125,"ha":595,"o":"m 341 55 q 359 99 359 73 q 341 143 359 124 q 297 161 323 161 q 253 143 272 161 q 235 99 235 124 q 253 55 235 73 q 297 37 272 37 q 341 55 323 37 m 520 223 l 520 768 q 513 786 520 778 q 496 793 506 793 l 99 793 q 81 786 89 793 q 74 768 74 778 l 74 223 q 81 205 74 213 q 99 198 89 198 l 496 198 q 513 205 506 198 q 520 223 520 213 m 359 868 q 372 880 372 868 q 359 892 372 892 l 235 892 q 223 880 223 892 q 235 868 223 868 l 359 868 m 595 892 l 595 99 q 565 29 595 58 q 496 0 536 0 l 99 0 q 29 29 58 0 q 0 99 0 58 l 0 892 q 29 962 0 933 q 99 992 58 992 l 496 992 q 565 962 536 992 q 595 892 595 933 "}," ":{"x_min":0,"x_max":0,"ha":595},"":{"x_min":0,"x_max":0,"ha":1389},"":{"x_min":0,"x_max":1389,"ha":1389,"o":"m 268 227 q 297 297 297 256 q 268 367 297 338 q 198 396 239 396 q 128 367 157 396 q 99 297 99 338 q 128 227 99 256 q 198 198 157 198 q 268 227 239 198 m 417 574 q 446 644 446 603 q 417 715 446 685 q 347 744 388 744 q 277 715 306 744 q 248 644 248 685 q 277 574 248 603 q 347 545 306 545 q 417 574 388 545 m 778 272 l 856 568 q 850 605 861 588 q 820 628 840 623 q 783 623 801 634 q 760 592 765 613 l 682 296 q 599 263 635 293 q 550 186 562 233 q 565 73 534 127 q 656 4 596 20 q 769 20 716 -10 q 838 110 823 51 q 834 201 851 157 q 778 272 816 245 m 1260 227 q 1289 297 1289 256 q 1260 367 1289 338 q 1190 396 1231 396 q 1120 367 1149 396 q 1091 297 1091 338 q 1120 227 1091 256 q 1190 198 1149 198 q 1260 227 1231 198 m 764 723 q 793 793 793 752 q 764 863 793 834 q 694 892 735 892 q 624 863 653 892 q 595 793 595 834 q 624 723 595 752 q 694 694 653 694 q 764 723 735 694 m 1111 574 q 1140 644 1140 603 q 1111 715 1140 685 q 1041 744 1082 744 q 971 715 1000 744 q 942 644 942 685 q 971 574 942 603 q 1041 545 1000 545 q 1111 574 1082 545 m 1389 297 q 1279 -76 1389 95 q 1237 -99 1264 -99 l 151 -99 q 109 -76 124 -99 q 0 297 0 94 q 55 567 0 438 q 203 789 110 696 q 424 937 296 882 q 694 992 553 992 q 964 937 835 992 q 1185 789 1092 882 q 1333 567 1278 696 q 1389 297 1389 438 "},"":{"x_min":16.28125,"x_max":975.859375,"ha":992,"o":"m 975 219 l 975 168 q 931 56 975 102 q 823 10 886 10 l 779 10 l 578 -198 l 578 10 l 168 10 q 60 56 105 10 q 16 168 16 102 l 16 219 l 975 219 m 975 472 l 975 274 l 16 274 l 16 472 l 975 472 m 975 726 l 975 528 l 16 528 l 16 726 l 975 726 m 975 834 l 975 782 l 16 782 l 16 834 q 60 946 16 899 q 168 992 105 992 l 823 992 q 931 946 886 992 q 975 834 975 899 "},"":{"x_min":0,"x_max":1289.78125,"ha":1290,"o":"m 595 942 l 595 396 q 563 243 595 316 q 479 116 532 169 q 352 31 425 62 q 198 0 279 0 l 148 0 q 113 14 128 0 q 99 49 99 29 l 99 148 q 113 183 99 168 q 148 198 128 198 l 198 198 q 338 256 280 198 q 396 396 396 314 l 396 421 q 375 474 396 452 q 322 496 353 496 l 148 496 q 43 539 86 496 q 0 644 0 582 l 0 942 q 43 1047 0 1004 q 148 1091 86 1091 l 446 1091 q 551 1047 508 1091 q 595 942 595 1004 m 1289 942 l 1289 396 q 1258 243 1289 316 q 1173 116 1227 169 q 1046 31 1120 62 q 892 0 973 0 l 843 0 q 808 14 823 0 q 793 49 793 29 l 793 148 q 808 183 793 168 q 843 198 823 198 l 892 198 q 1033 256 975 198 q 1091 396 1091 314 l 1091 421 q 1069 474 1091 452 q 1016 496 1047 496 l 843 496 q 737 539 781 496 q 694 644 694 582 l 694 942 q 737 1047 694 1004 q 843 1091 781 1091 l 1140 1091 q 1246 1047 1202 1091 q 1289 942 1289 1004 "},"":{"x_min":0,"x_max":1215.375,"ha":1290,"o":"m 496 74 q 496 58 496 71 q 497 38 497 46 q 494 20 496 30 q 487 5 492 10 q 471 0 481 0 l 223 0 q 65 65 131 0 q 0 223 0 131 l 0 768 q 65 926 0 861 q 223 992 131 992 l 471 992 q 488 984 481 992 q 496 967 496 977 q 496 951 496 964 q 497 931 497 939 q 494 913 496 923 q 487 897 492 903 q 471 892 481 892 l 223 892 q 135 856 172 892 q 99 768 99 820 l 99 223 q 135 135 99 172 q 223 99 172 99 l 446 99 q 454 99 447 99 q 465 99 462 99 q 473 98 467 99 q 482 96 480 97 q 489 91 485 94 q 494 84 492 89 q 496 74 496 80 m 1200 530 q 1215 496 1215 516 q 1200 461 1215 475 l 778 39 q 744 24 764 24 q 709 39 723 24 q 694 74 694 54 l 694 297 l 347 297 q 312 312 327 297 q 297 347 297 327 l 297 644 q 312 679 297 665 q 347 694 327 694 l 694 694 l 694 917 q 709 952 694 937 q 744 967 723 967 q 778 952 764 967 l 1200 530 "},"":{"x_min":12.40625,"x_max":1277.390625,"ha":1290,"o":"m 1128 248 q 1106 300 1128 279 l 945 461 q 892 483 923 483 q 837 458 860 483 q 851 444 839 456 q 868 427 864 432 q 880 413 872 423 q 890 393 887 403 q 892 372 892 383 q 871 319 892 341 q 818 297 849 297 q 797 300 806 297 q 777 310 787 303 q 762 322 767 317 q 746 338 758 326 q 731 353 734 351 q 706 296 706 329 q 727 244 706 265 l 887 83 q 940 62 908 62 q 992 82 971 62 l 1106 196 q 1128 248 1128 217 m 583 794 q 561 847 583 825 l 402 1007 q 349 1029 380 1029 q 296 1008 319 1029 l 182 895 q 161 843 161 873 q 182 790 161 812 l 344 629 q 396 608 365 608 q 452 632 429 608 q 437 646 450 634 q 421 663 425 658 q 409 678 417 668 q 399 697 402 688 q 396 719 396 707 q 418 772 396 750 q 471 793 440 793 q 492 791 482 793 q 512 780 502 788 q 527 769 522 773 q 543 752 531 765 q 558 737 555 740 q 583 794 583 761 m 1212 406 q 1277 248 1277 341 q 1211 90 1277 155 l 1097 -22 q 940 -86 1033 -86 q 782 -20 846 -86 l 622 139 q 558 296 558 203 q 626 458 558 392 l 558 527 q 396 458 491 458 q 238 523 303 458 l 77 685 q 12 843 12 750 q 78 1000 12 936 l 192 1113 q 349 1178 256 1178 q 507 1112 443 1178 l 667 951 q 731 794 731 887 q 663 632 731 699 l 731 564 q 892 632 798 632 q 1051 567 985 632 l 1212 406 "},"":{"x_min":0,"x_max":0,"ha":388,"o":"m 0 0 l 0 0 "},"":{"x_min":0,"x_max":1438.609375,"ha":1488,"o":"m 1246 589 q 1289 694 1289 632 q 1246 799 1289 756 q 1140 843 1202 843 l 1091 843 l 1091 545 l 1140 545 q 1246 589 1202 545 m 0 99 l 1389 99 q 1330 -41 1389 17 q 1190 -99 1272 -99 l 198 -99 q 58 -41 116 -99 q 0 99 0 17 m 1351 904 q 1438 694 1438 817 q 1351 484 1438 571 q 1140 396 1264 396 l 1091 396 l 1091 372 q 1040 249 1091 300 q 917 198 989 198 l 372 198 q 249 249 300 198 q 198 372 198 300 l 198 942 q 213 977 198 962 q 248 992 227 992 l 1140 992 q 1351 904 1264 992 "},"":{"x_min":0,"x_max":1389,"ha":1389,"o":"m 1389 148 l 1389 49 q 1374 14 1389 29 q 1339 0 1359 0 l 49 0 q 14 14 29 0 q 0 49 0 29 l 0 148 q 14 183 0 168 q 49 198 29 198 l 1339 198 q 1374 183 1359 198 q 1389 148 1389 168 m 1389 446 l 1389 347 q 1374 312 1389 327 q 1339 297 1359 297 l 347 297 q 312 312 327 297 q 297 347 297 327 l 297 446 q 312 481 297 466 q 347 496 327 496 l 1339 496 q 1374 481 1359 496 q 1389 446 1389 466 m 1389 744 l 1389 644 q 1374 610 1389 624 q 1339 595 1359 595 l 148 595 q 113 610 128 595 q 99 644 99 624 l 99 744 q 113 778 99 764 q 148 793 128 793 l 1339 793 q 1374 778 1359 793 q 1389 744 1389 764 m 1389 1041 l 1389 942 q 1374 907 1389 922 q 1339 892 1359 892 l 446 892 q 411 907 426 892 q 396 942 396 922 l 396 1041 q 411 1076 396 1061 q 446 1091 426 1091 l 1339 1091 q 1374 1076 1359 1091 q 1389 1041 1389 1061 "},"":{"x_min":0,"x_max":1190.578125,"ha":1191,"o":"m 1110 794 q 1190 496 1190 658 q 1110 197 1190 334 q 894 -19 1030 60 q 595 -99 757 -99 q 296 -19 433 -99 q 79 197 159 60 q 0 496 0 334 q 79 794 0 658 q 296 1011 159 931 q 595 1091 433 1091 q 894 1011 757 1091 q 1110 794 1030 931 "},"":{"x_min":3.875,"x_max":1189.015625,"ha":1191,"o":"m 695 129 l 695 0 l 503 0 l 379 195 l 361 227 q 352 244 355 234 l 350 244 l 343 227 q 324 193 335 212 l 203 0 l 3 0 l 3 129 l 103 129 l 255 355 l 112 565 l 6 565 l 6 696 l 220 696 l 327 519 q 345 486 329 516 q 354 470 351 479 l 356 470 q 365 486 358 477 l 384 519 l 492 696 l 692 696 l 692 565 l 595 565 l 452 358 l 610 129 l 695 129 m 1189 655 l 1189 496 l 790 496 l 788 517 q 785 552 785 538 q 805 643 785 602 q 855 710 825 684 q 920 760 885 736 q 985 803 955 785 q 1036 844 1016 820 q 1056 894 1056 868 q 1033 942 1056 923 q 978 961 1010 961 q 903 931 939 961 q 875 902 892 923 l 794 973 q 843 1024 814 1002 q 989 1075 907 1075 q 1127 1028 1074 1075 q 1179 906 1179 982 q 1160 826 1179 862 q 1112 766 1141 789 q 1049 721 1083 744 q 985 682 1015 699 q 935 642 956 665 q 911 593 913 619 l 1091 593 l 1091 655 l 1189 655 "},"":{"x_min":0,"x_max":1190.578125,"ha":1191,"o":"m 992 446 l 992 545 q 977 580 992 565 q 942 595 962 595 l 248 595 q 213 580 227 595 q 198 545 198 565 l 198 446 q 213 411 198 426 q 248 396 227 396 l 942 396 q 977 411 962 396 q 992 446 992 426 m 1190 868 l 1190 124 q 1125 -33 1190 31 q 967 -99 1059 -99 l 223 -99 q 65 -33 131 -99 q 0 124 0 31 l 0 868 q 65 1025 0 960 q 223 1091 131 1091 l 967 1091 q 1125 1025 1059 1091 q 1190 868 1190 960 "},"":{"x_min":-0.0625,"x_max":694.640625,"ha":695,"o":"m 685 751 q 691 717 699 736 l 272 -179 q 240 -198 262 -198 q 229 -196 237 -198 q 209 -182 216 -193 q 206 -158 203 -171 l 358 467 l 44 389 q 34 388 41 388 q 10 396 20 388 q 0 427 -3 408 l 156 1066 q 168 1084 159 1077 q 190 1091 178 1091 l 444 1091 q 469 1081 459 1091 q 479 1058 479 1071 q 475 1044 479 1052 l 343 685 l 650 761 q 659 763 656 763 q 685 751 674 763 "},"":{"x_min":0,"x_max":992.140625,"ha":992,"o":"m 793 272 l 793 223 q 786 205 793 212 q 768 198 779 198 l 223 198 q 205 205 212 198 q 198 223 198 212 l 198 272 q 205 290 198 283 q 223 297 212 297 l 768 297 q 786 290 779 297 q 793 272 793 283 m 793 471 l 793 421 q 786 403 793 410 q 768 396 779 396 l 223 396 q 205 403 212 396 q 198 421 198 410 l 198 471 q 205 489 198 482 q 223 496 212 496 l 768 496 q 786 489 779 496 q 793 471 793 482 m 99 0 l 892 0 l 892 595 l 570 595 q 517 616 539 595 q 496 669 496 638 l 496 992 l 99 992 l 99 0 m 595 694 l 886 694 q 869 726 878 716 l 627 968 q 595 985 617 978 l 595 694 m 992 669 l 992 -24 q 970 -77 992 -55 q 917 -99 948 -99 l 74 -99 q 21 -77 43 -99 q 0 -24 0 -55 l 0 1016 q 21 1069 0 1047 q 74 1091 43 1091 l 570 1091 q 638 1075 601 1091 q 697 1038 675 1060 l 939 796 q 976 737 961 775 q 992 669 992 700 "},"":{"x_min":0,"x_max":1190.578125,"ha":1191,"o":"m 183 113 q 198 148 198 128 q 183 183 198 168 q 148 198 168 198 q 113 183 128 198 q 99 148 99 168 q 113 113 99 128 q 148 99 128 99 q 183 113 168 99 m 1091 595 q 1061 664 1091 634 q 992 694 1030 694 l 719 694 q 756 818 719 739 q 793 942 793 896 q 768 1054 793 1018 q 669 1091 744 1091 q 640 1025 649 1071 q 616 928 630 979 q 570 843 602 876 q 510 772 553 825 q 492 749 507 768 q 468 717 478 730 q 441 684 458 705 q 410 650 424 664 q 380 623 396 637 q 349 602 365 609 q 322 595 334 595 l 297 595 l 297 99 l 322 99 q 346 96 332 99 q 372 91 361 94 q 401 83 383 89 q 429 74 420 77 q 456 64 437 71 q 479 56 475 58 q 744 0 642 0 l 837 0 q 986 129 986 0 q 982 172 986 149 q 1019 213 1006 185 q 1033 270 1033 241 q 1019 324 1033 299 q 1060 416 1060 362 q 1052 459 1060 435 q 1033 496 1044 482 q 1074 532 1058 496 q 1091 595 1091 568 m 1190 596 q 1152 469 1190 527 q 1159 416 1159 444 q 1130 304 1159 356 q 1132 271 1132 288 q 1085 133 1132 193 q 1020 -36 1086 25 q 844 -99 953 -99 l 816 -99 l 744 -99 q 597 -81 669 -99 q 429 -31 524 -64 q 322 0 339 0 l 99 0 q 29 29 58 0 q 0 99 0 58 l 0 595 q 29 665 0 636 q 99 694 58 694 l 311 694 q 417 814 339 713 q 500 913 462 872 q 528 980 519 933 q 551 1078 537 1027 q 599 1161 566 1129 q 669 1190 630 1190 q 786 1165 734 1190 q 865 1086 838 1140 q 892 942 892 1033 q 855 793 892 870 l 992 793 q 1131 734 1072 793 q 1190 596 1190 675 "},"":{"x_min":0,"x_max":1190.578125,"ha":1191,"o":"m 967 1091 q 1125 1025 1059 1091 q 1190 868 1190 960 l 1190 124 q 1125 -33 1190 31 q 967 -99 1059 -99 l 223 -99 q 65 -33 131 -99 q 0 124 0 31 l 0 868 q 65 1025 0 960 q 223 1091 131 1091 l 967 1091 m 492 379 q 541 496 541 427 q 492 612 541 564 q 376 660 444 660 q 260 612 308 660 q 212 496 212 564 q 260 379 212 427 q 376 331 308 331 q 492 379 444 331 m 930 379 q 978 496 978 427 q 930 612 978 564 q 813 660 882 660 q 697 612 745 660 q 649 496 649 564 q 697 379 649 427 q 813 331 745 331 q 930 379 882 331 "},"":{"x_min":20.0625,"x_max":1269.71875,"ha":1290,"o":"m 1091 421 l 1091 49 q 1076 14 1091 29 q 1041 0 1061 0 l 744 0 l 744 297 l 545 297 l 545 0 l 248 0 q 213 14 227 0 q 198 49 198 29 l 198 421 q 198 423 198 422 q 199 426 199 425 l 644 793 l 1090 426 q 1091 421 1091 424 m 1264 475 l 1216 417 q 1199 409 1209 410 l 1197 409 q 1181 414 1187 409 l 644 861 l 108 414 q 89 409 99 408 q 73 417 79 410 l 25 475 q 20 493 19 482 q 28 510 20 503 l 585 974 q 644 994 610 994 q 703 974 679 994 l 892 816 l 892 967 q 899 985 892 978 q 917 992 906 992 l 1066 992 q 1084 985 1077 992 q 1091 967 1091 978 l 1091 651 l 1261 510 q 1269 493 1268 503 q 1264 475 1270 482 "},"":{"x_min":0,"x_max":1389,"ha":1389,"o":"m 1389 917 l 1389 74 q 1358 28 1389 41 q 1339 24 1348 24 q 1304 39 1318 24 l 992 351 l 992 223 q 926 65 992 131 q 768 0 861 0 l 223 0 q 65 65 131 0 q 0 223 0 131 l 0 768 q 65 926 0 861 q 223 992 131 992 l 768 992 q 926 926 861 992 q 992 768 992 861 l 992 641 l 1304 952 q 1339 967 1318 967 q 1358 963 1348 967 q 1389 917 1389 950 "},"":{"x_min":0,"x_max":1389,"ha":1389,"o":"m 1389 148 l 1389 49 q 1374 14 1389 29 q 1339 0 1359 0 l 49 0 q 14 14 29 0 q 0 49 0 29 l 0 148 q 14 183 0 168 q 49 198 29 198 l 1339 198 q 1374 183 1359 198 q 1389 148 1389 168 m 1091 446 l 1091 347 q 1076 312 1091 327 q 1041 297 1061 297 l 347 297 q 312 312 327 297 q 297 347 297 327 l 297 446 q 312 481 297 466 q 347 496 327 496 l 1041 496 q 1076 481 1061 496 q 1091 446 1091 466 m 1289 744 l 1289 644 q 1275 610 1289 624 q 1240 595 1260 595 l 148 595 q 113 610 128 595 q 99 644 99 624 l 99 744 q 113 778 99 764 q 148 793 128 793 l 1240 793 q 1275 778 1260 793 q 1289 744 1289 764 m 992 1041 l 992 942 q 977 907 992 922 q 942 892 962 892 l 446 892 q 411 907 426 892 q 396 942 396 922 l 396 1041 q 411 1076 396 1061 q 446 1091 426 1091 l 942 1091 q 977 1076 962 1091 q 992 1041 992 1061 "},"":{"x_min":9.296875,"x_max":1379.703125,"ha":1389,"o":"m 213 1091 l 1379 1091 l 1173 58 l 550 -148 l 9 58 l 64 334 l 294 334 l 272 220 l 599 95 l 975 220 l 1028 482 l 92 482 l 137 713 l 1074 713 l 1103 861 l 167 861 l 213 1091 "},"":{"x_min":0,"x_max":1488.21875,"ha":1488,"o":"m 992 471 q 985 489 992 482 q 967 496 978 496 l 793 496 l 793 768 q 786 786 793 778 q 768 793 778 793 l 620 793 q 602 786 610 793 q 595 768 595 778 l 595 496 l 421 496 q 404 488 411 496 q 396 471 396 481 q 403 453 396 460 l 676 180 q 694 173 683 173 q 712 180 705 173 l 984 452 q 992 471 992 461 m 1488 297 q 1401 87 1488 174 q 1190 0 1313 0 l 347 0 q 101 101 203 0 q 0 347 0 203 q 54 533 0 448 q 199 661 108 618 q 198 694 198 684 q 314 975 198 858 q 595 1091 430 1091 q 816 1023 716 1091 q 962 844 916 956 q 1091 892 1017 892 q 1231 834 1173 892 q 1289 694 1289 776 q 1258 587 1289 635 q 1423 482 1358 563 q 1488 297 1488 401 "},"":{"x_min":0,"x_max":1079.734375,"ha":1091,"o":"m 1079 248 q 984 55 1049 151 q 785 -96 884 -96 q 676 -72 747 -96 q 559 -47 610 -47 q 449 -72 512 -47 q 347 -99 386 -99 q 113 101 229 -99 q 0 491 0 303 q 87 781 0 668 q 307 892 174 892 q 444 869 363 892 q 551 846 525 846 q 662 872 586 846 q 796 899 741 899 q 961 848 889 899 q 1042 771 1002 820 q 954 679 981 719 q 903 519 903 606 q 957 346 903 423 q 1079 248 1010 269 m 788 1158 q 765 1052 788 1110 q 693 945 742 994 q 610 889 651 903 q 529 876 581 881 q 589 1075 531 992 q 783 1190 647 1158 q 785 1182 784 1188 q 787 1173 786 1175 q 787 1165 787 1170 q 788 1158 788 1161 "},"":{"x_min":0,"x_max":892.921875,"ha":893,"o":"m 892 644 l 892 545 q 778 247 892 374 q 496 102 664 120 l 496 0 l 694 0 q 729 -14 714 0 q 744 -49 744 -29 q 729 -84 744 -69 q 694 -99 714 -99 l 198 -99 q 163 -84 178 -99 q 148 -49 148 -69 q 163 -14 148 -29 q 198 0 178 0 l 396 0 l 396 102 q 114 247 228 120 q 0 545 0 374 l 0 644 q 14 679 0 665 q 49 694 29 694 q 84 679 69 694 q 99 644 99 665 l 99 545 q 201 300 99 402 q 446 198 303 198 q 691 300 589 198 q 793 545 793 402 l 793 644 q 808 679 793 665 q 843 694 823 694 q 878 679 863 694 q 892 644 892 665 m 694 942 l 694 545 q 621 370 694 443 q 446 297 548 297 q 271 370 344 297 q 198 545 198 443 l 198 942 q 271 1117 198 1044 q 446 1190 344 1190 q 621 1117 548 1190 q 694 942 694 1044 "},"":{"x_min":0,"x_max":1190.578125,"ha":1191,"o":"m 1190 1041 l 1190 -49 q 1175 -84 1190 -69 q 1140 -99 1161 -99 l 744 -99 q 709 -84 723 -99 q 694 -49 694 -69 l 694 1041 q 709 1076 694 1061 q 744 1091 723 1091 l 1140 1091 q 1175 1076 1161 1091 q 1190 1041 1190 1061 m 496 1041 l 496 -49 q 481 -84 496 -69 q 446 -99 466 -99 l 49 -99 q 14 -84 29 -99 q 0 -49 0 -69 l 0 1041 q 14 1076 0 1061 q 49 1091 29 1091 l 446 1091 q 481 1076 466 1091 q 496 1041 496 1061 "},"":{"x_min":0,"x_max":1190.578125,"ha":1191,"o":"m 992 446 l 992 545 q 977 580 992 565 q 942 595 962 595 l 694 595 l 694 843 q 679 878 694 863 q 644 892 665 892 l 545 892 q 510 878 525 892 q 496 843 496 863 l 496 595 l 248 595 q 213 580 227 595 q 198 545 198 565 l 198 446 q 213 411 198 426 q 248 396 227 396 l 496 396 l 496 148 q 510 113 496 128 q 545 99 525 99 l 644 99 q 679 113 665 99 q 694 148 694 128 l 694 396 l 942 396 q 977 411 962 396 q 992 446 992 426 m 1190 868 l 1190 124 q 1125 -33 1190 31 q 967 -99 1059 -99 l 223 -99 q 65 -33 131 -99 q 0 124 0 31 l 0 868 q 65 1025 0 960 q 223 1091 131 1091 l 967 1091 q 1125 1025 1059 1091 q 1190 868 1190 960 "},"":{"x_min":0,"x_max":1289.78125,"ha":1290,"o":"m 1091 423 l 1091 223 q 1025 65 1091 131 q 868 0 960 0 l 223 0 q 65 65 131 0 q 0 223 0 131 l 0 868 q 65 1025 0 960 q 223 1091 131 1091 l 420 1091 l 420 1091 q 438 1083 430 1091 q 445 1066 445 1076 q 425 1041 445 1045 q 322 995 365 1021 q 310 992 314 992 l 223 992 q 135 955 172 992 q 99 868 99 919 l 99 223 q 135 135 99 172 q 223 99 172 99 l 868 99 q 955 135 919 99 q 992 223 992 172 l 992 389 q 1006 411 992 403 q 1047 440 1027 421 q 1075 446 1060 452 q 1091 423 1091 439 m 1275 808 l 977 510 q 942 496 963 496 q 923 499 933 496 q 892 545 892 513 l 892 694 l 768 694 q 429 592 518 694 q 372 226 337 486 q 356 199 374 208 q 347 198 350 198 q 327 208 334 198 q 310 232 319 219 q 280 285 302 245 q 241 362 258 325 q 211 451 225 399 q 198 545 198 502 q 201 616 198 583 q 211 685 203 648 q 233 754 220 723 q 270 817 247 785 q 323 874 293 849 q 396 922 353 899 q 492 959 439 944 q 616 983 546 975 q 768 992 686 992 l 892 992 l 892 1140 q 923 1186 892 1173 q 942 1190 933 1190 q 977 1175 962 1190 l 1275 878 q 1289 843 1289 863 q 1275 808 1289 823 "},"":{"x_min":0,"x_max":1389,"ha":1389,"o":"m 1066 99 l 1091 99 l 1091 595 l 1066 595 q 1014 604 1039 595 q 965 633 989 613 q 927 668 942 652 q 889 710 911 685 q 886 714 887 713 q 883 717 885 715 q 879 721 881 720 q 792 834 823 784 q 763 886 782 851 q 755 904 762 889 q 741 932 747 919 q 725 959 734 944 q 708 983 716 974 q 694 992 700 992 q 604 968 639 992 q 570 892 570 944 q 582 827 570 859 q 607 774 593 795 q 633 732 621 754 q 644 694 644 710 l 198 694 q 129 664 159 694 q 99 595 99 634 q 128 525 99 554 q 198 496 158 496 l 454 496 q 435 459 443 482 q 427 416 427 435 q 468 324 427 362 q 454 270 454 299 q 468 213 454 241 q 505 172 482 185 q 502 129 502 154 q 539 31 502 63 q 644 0 577 0 q 786 24 710 0 q 937 74 863 49 q 1066 99 1010 99 m 1275 113 q 1289 148 1289 128 q 1275 183 1289 168 q 1240 198 1260 198 q 1205 183 1220 198 q 1190 148 1190 168 q 1205 113 1190 128 q 1240 99 1220 99 q 1275 113 1260 99 m 1389 595 l 1389 99 q 1359 29 1389 58 q 1289 0 1330 0 l 1066 0 q 893 -45 1020 0 q 648 -99 746 -99 q 469 -39 537 -99 q 402 129 401 20 l 403 133 q 355 271 355 192 q 358 304 355 288 q 329 396 332 348 l 198 396 q 58 455 117 396 q 0 596 0 514 q 58 734 0 675 q 198 793 117 793 l 488 793 q 471 892 471 840 q 534 1039 471 987 q 694 1091 597 1091 q 748 1077 723 1091 q 791 1039 772 1064 q 822 990 809 1014 q 851 934 835 966 q 876 886 866 903 q 954 786 903 844 q 965 773 955 784 q 979 756 974 762 q 995 740 985 751 q 1014 722 1006 729 q 1031 708 1022 716 q 1049 697 1040 701 q 1066 694 1058 694 l 1289 694 q 1359 665 1330 694 q 1389 595 1389 636 "},"":{"x_min":0,"x_max":1389,"ha":1389,"o":"m 1289 24 l 1289 620 q 1236 568 1264 592 q 906 306 1028 409 q 841 255 866 273 q 774 217 816 236 q 695 198 732 198 l 694 198 l 693 198 q 614 217 656 198 q 547 255 572 236 q 482 306 522 273 q 152 568 360 409 q 99 620 124 592 l 99 24 q 106 7 99 14 q 124 0 113 0 l 1264 0 q 1282 7 1275 0 q 1289 24 1289 14 m 1289 839 q 1289 847 1289 841 q 1289 858 1289 854 q 1289 868 1289 861 q 1287 878 1289 875 q 1282 885 1285 881 q 1275 890 1280 889 q 1264 892 1271 892 l 124 892 q 106 885 113 892 q 99 868 99 878 q 213 648 99 737 q 523 402 362 530 q 551 379 528 398 q 586 350 573 360 q 621 325 599 340 q 660 304 642 311 q 693 297 678 297 l 694 297 l 695 297 q 728 304 710 297 q 767 325 746 311 q 802 350 789 340 q 837 379 815 360 q 865 402 860 398 q 1175 648 1026 530 q 1253 737 1217 681 q 1289 839 1289 793 m 1389 868 l 1389 24 q 1352 -62 1389 -26 q 1264 -99 1316 -99 l 124 -99 q 36 -62 72 -99 q 0 24 0 -26 l 0 868 q 36 955 0 919 q 124 992 72 992 l 1264 992 q 1352 955 1316 992 q 1389 868 1389 919 "},"":{"x_min":0,"x_max":1289.78125,"ha":1290,"o":"m 396 124 l 396 272 q 389 290 396 283 q 372 297 382 297 l 124 297 q 106 290 113 297 q 99 272 99 283 l 99 124 q 106 106 99 113 q 124 99 113 99 l 372 99 q 389 106 382 99 q 396 124 396 113 m 396 421 l 396 570 q 389 588 396 581 q 372 595 382 595 l 124 595 q 106 588 113 595 q 99 570 99 581 l 99 421 q 106 403 99 410 q 124 396 113 396 l 372 396 q 389 403 382 396 q 396 421 396 410 m 793 124 l 793 272 q 786 290 793 283 q 768 297 779 297 l 520 297 q 503 290 510 297 q 496 272 496 283 l 496 124 q 503 106 496 113 q 520 99 510 99 l 768 99 q 786 106 779 99 q 793 124 793 113 m 396 719 l 396 868 q 389 885 396 878 q 372 892 382 892 l 124 892 q 106 885 113 892 q 99 868 99 878 l 99 719 q 106 701 99 708 q 124 694 113 694 l 372 694 q 389 701 382 694 q 396 719 396 708 m 793 421 l 793 570 q 786 588 793 581 q 768 595 779 595 l 520 595 q 503 588 510 595 q 496 570 496 581 l 496 421 q 503 403 496 410 q 520 396 510 396 l 768 396 q 786 403 779 396 q 793 421 793 410 m 1190 124 l 1190 272 q 1183 290 1190 283 q 1165 297 1176 297 l 917 297 q 899 290 906 297 q 892 272 892 283 l 892 124 q 899 106 892 113 q 917 99 906 99 l 1165 99 q 1183 106 1176 99 q 1190 124 1190 113 m 793 719 l 793 868 q 786 885 793 878 q 768 892 779 892 l 520 892 q 503 885 510 892 q 496 868 496 878 l 496 719 q 503 701 496 708 q 520 694 510 694 l 768 694 q 786 701 779 694 q 793 719 793 708 m 1190 421 l 1190 570 q 1183 588 1190 581 q 1165 595 1176 595 l 917 595 q 899 588 906 595 q 892 570 892 581 l 892 421 q 899 403 892 410 q 917 396 906 396 l 1165 396 q 1183 403 1176 396 q 1190 421 1190 410 m 1190 719 l 1190 868 q 1183 885 1190 878 q 1165 892 1176 892 l 917 892 q 899 885 906 892 q 892 868 892 878 l 892 719 q 899 701 892 708 q 917 694 906 694 l 1165 694 q 1183 701 1176 694 q 1190 719 1190 708 m 1289 967 l 1289 124 q 1253 36 1289 72 q 1165 0 1216 0 l 124 0 q 36 36 72 0 q 0 124 0 72 l 0 967 q 36 1054 0 1018 q 124 1091 72 1091 l 1165 1091 q 1253 1054 1216 1091 q 1289 967 1289 1018 "},"":{"x_min":43.40625,"x_max":975.390625,"ha":992,"o":"m 904 694 q 803 494 918 553 q 938 414 893 472 q 973 248 983 356 q 948 151 968 193 q 898 82 928 110 q 823 37 868 55 q 728 10 778 19 q 616 0 679 2 l 616 -198 l 496 -198 l 496 -3 q 402 -3 434 -3 l 402 -198 l 282 -198 l 282 0 q 241 0 268 0 q 198 0 213 0 l 43 0 l 67 141 l 153 141 q 198 181 192 141 l 198 492 l 210 492 q 198 493 206 493 l 198 716 q 129 768 188 768 l 43 768 l 43 896 l 207 895 q 282 896 257 895 l 282 1091 l 402 1091 l 402 899 q 496 901 465 901 l 496 1091 l 616 1091 l 616 896 q 724 878 677 890 q 812 843 772 866 q 876 783 852 820 q 904 694 899 745 m 737 272 q 726 321 737 299 q 697 357 714 343 q 653 380 680 371 q 602 395 625 390 q 544 402 579 399 q 491 404 510 404 q 441 403 472 404 q 404 403 410 403 l 404 141 q 433 140 410 141 q 470 140 455 140 q 511 141 485 140 q 556 144 537 142 q 601 151 575 146 q 644 162 626 155 q 680 178 661 168 q 711 201 699 188 q 730 232 723 214 q 737 272 737 250 m 682 641 q 673 686 682 666 q 649 718 663 706 q 612 740 635 731 q 569 753 589 749 q 522 759 550 757 q 477 761 493 761 q 435 760 460 761 q 404 760 410 760 l 404 522 q 431 522 408 522 q 467 522 454 521 q 506 523 480 522 q 548 527 531 524 q 588 536 565 530 q 626 550 611 541 q 654 571 641 559 q 675 601 668 583 q 682 641 682 619 "},"":{"x_min":0,"x_max":1240.171875,"ha":1290,"o":"m 198 148 q 183 183 198 168 q 148 198 168 198 q 113 183 127 198 q 99 148 99 168 q 113 113 99 127 q 148 99 127 99 q 183 113 168 99 q 198 148 198 127 m 322 545 l 322 49 q 307 14 322 29 q 272 0 293 0 l 49 0 q 14 14 29 0 q 0 49 0 29 l 0 545 q 14 580 0 565 q 49 595 29 595 l 272 595 q 307 580 293 595 q 322 545 322 565 m 1240 545 q 1197 430 1240 479 q 1209 371 1209 396 q 1175 265 1211 312 q 1175 174 1189 221 q 1133 101 1164 130 q 1096 -38 1140 14 q 943 -99 1046 -97 l 915 -99 l 856 -99 l 843 -99 q 731 -87 792 -99 q 637 -64 671 -75 q 544 -34 603 -54 q 421 0 448 0 q 386 15 401 0 q 372 49 372 29 l 372 546 q 386 580 372 565 q 419 596 399 594 q 478 641 437 597 q 556 735 518 685 q 634 828 609 803 q 658 865 648 842 q 672 903 668 889 q 682 950 675 917 q 692 997 688 980 q 707 1037 696 1014 q 734 1076 718 1061 q 768 1091 748 1091 q 832 1083 804 1091 q 879 1063 861 1075 q 910 1031 897 1051 q 928 996 923 1012 q 938 958 934 981 q 942 923 941 934 q 942 892 942 911 q 935 834 942 863 q 920 787 927 804 q 899 744 913 770 q 891 730 896 739 q 882 713 885 720 q 876 694 879 705 l 1091 694 q 1195 650 1151 694 q 1240 545 1240 606 "},"":{"x_min":0,"x_max":1190.578125,"ha":1191,"o":"m 297 0 l 892 0 l 892 297 l 297 297 l 297 0 m 992 0 l 1091 0 l 1091 694 q 1083 724 1091 705 q 1068 751 1075 743 l 850 968 q 823 984 842 976 q 793 992 805 992 l 793 669 q 772 616 793 638 q 719 595 750 595 l 272 595 q 220 616 241 595 q 198 669 198 638 l 198 992 l 99 992 l 99 0 l 198 0 l 198 322 q 220 375 198 353 q 272 396 241 396 l 917 396 q 970 375 948 396 q 992 322 992 353 l 992 0 m 694 719 l 694 967 q 687 984 694 977 q 669 992 679 992 l 520 992 q 503 984 510 992 q 496 967 496 977 l 496 719 q 503 701 496 709 q 520 694 510 694 l 669 694 q 687 701 679 694 q 694 719 694 709 m 1190 694 l 1190 -24 q 1168 -77 1190 -55 q 1116 -99 1147 -99 l 74 -99 q 21 -77 43 -99 q 0 -24 0 -55 l 0 1016 q 21 1069 0 1047 q 74 1091 43 1091 l 793 1091 q 861 1075 824 1091 q 920 1038 899 1060 l 1137 821 q 1175 762 1159 799 q 1190 694 1190 725 "},"":{"x_min":0,"x_max":1488.21875,"ha":1488,"o":"m 297 -49 l 297 49 q 282 84 297 69 q 248 99 268 99 l 148 99 q 113 84 128 99 q 99 49 99 69 l 99 -49 q 113 -84 99 -69 q 148 -99 128 -99 l 248 -99 q 282 -84 268 -99 q 297 -49 297 -69 m 297 248 l 297 347 q 282 382 297 367 q 248 396 268 396 l 148 396 q 113 382 128 396 q 99 347 99 367 l 99 248 q 113 213 99 227 q 148 198 128 198 l 248 198 q 282 213 268 198 q 297 248 297 227 m 297 545 l 297 644 q 282 679 297 665 q 248 694 268 694 l 148 694 q 113 679 128 694 q 99 644 99 665 l 99 545 q 113 510 99 525 q 148 496 128 496 l 248 496 q 282 510 268 496 q 297 545 297 525 m 1091 -49 l 1091 347 q 1076 382 1091 367 q 1041 396 1061 396 l 446 396 q 411 382 426 396 q 396 347 396 367 l 396 -49 q 411 -84 396 -69 q 446 -99 426 -99 l 1041 -99 q 1076 -84 1061 -99 q 1091 -49 1091 -69 m 297 843 l 297 942 q 282 977 297 962 q 248 992 268 992 l 148 992 q 113 977 128 992 q 99 942 99 962 l 99 843 q 113 808 99 823 q 148 793 128 793 l 248 793 q 282 808 268 793 q 297 843 297 823 m 1389 -49 l 1389 49 q 1374 84 1389 69 q 1339 99 1359 99 l 1240 99 q 1205 84 1220 99 q 1190 49 1190 69 l 1190 -49 q 1205 -84 1190 -69 q 1240 -99 1220 -99 l 1339 -99 q 1374 -84 1359 -99 q 1389 -49 1389 -69 m 1091 545 l 1091 942 q 1076 977 1091 962 q 1041 992 1061 992 l 446 992 q 411 977 426 992 q 396 942 396 962 l 396 545 q 411 510 396 525 q 446 496 426 496 l 1041 496 q 1076 510 1061 496 q 1091 545 1091 525 m 1389 248 l 1389 347 q 1374 382 1389 367 q 1339 396 1359 396 l 1240 396 q 1205 382 1220 396 q 1190 347 1190 367 l 1190 248 q 1205 213 1190 227 q 1240 198 1220 198 l 1339 198 q 1374 213 1359 198 q 1389 248 1389 227 m 1389 545 l 1389 644 q 1374 679 1389 665 q 1339 694 1359 694 l 1240 694 q 1205 679 1220 694 q 1190 644 1190 665 l 1190 545 q 1205 510 1190 525 q 1240 496 1220 496 l 1339 496 q 1374 510 1359 496 q 1389 545 1389 525 m 1389 843 l 1389 942 q 1374 977 1389 962 q 1339 992 1359 992 l 1240 992 q 1205 977 1220 992 q 1190 942 1190 962 l 1190 843 q 1205 808 1190 823 q 1240 793 1220 793 l 1339 793 q 1374 808 1359 793 q 1389 843 1389 823 m 1488 967 l 1488 -74 q 1451 -161 1488 -125 q 1364 -198 1415 -198 l 124 -198 q 36 -161 72 -198 q 0 -74 0 -125 l 0 967 q 36 1054 0 1018 q 124 1091 72 1091 l 1364 1091 q 1451 1054 1415 1091 q 1488 967 1488 1018 "},"":{"x_min":0,"x_max":1190.578125,"ha":1191,"o":"m 885 513 q 892 496 892 506 q 885 478 892 485 l 637 230 q 620 223 630 223 q 602 230 610 223 q 595 248 595 237 l 595 396 l 322 396 q 305 404 312 396 q 297 421 297 411 l 297 570 q 305 587 297 580 q 322 595 312 595 l 595 595 l 595 744 q 602 761 595 754 q 620 768 609 768 q 638 761 629 768 l 885 513 m 960 284 q 1016 496 1016 381 q 960 707 1016 610 q 806 861 903 804 q 595 917 710 917 q 383 861 480 917 q 230 707 286 804 q 173 496 173 610 q 230 284 173 381 q 383 130 286 187 q 595 74 480 74 q 806 130 710 74 q 960 284 903 187 m 1110 794 q 1190 496 1190 658 q 1110 197 1190 334 q 894 -19 1030 60 q 595 -99 757 -99 q 296 -19 433 -99 q 79 197 159 60 q 0 496 0 334 q 79 794 0 658 q 296 1011 159 931 q 595 1091 433 1091 q 894 1011 757 1091 q 1110 794 1030 931 "},"":{"x_min":0,"x_max":1190.578125,"ha":1191,"o":"m 1110 794 q 1190 496 1190 658 q 1110 197 1190 334 q 894 -19 1030 60 q 595 -99 757 -99 q 426 -74 509 -99 q 486 52 472 -2 q 528 216 493 79 q 585 163 544 186 q 673 141 626 141 q 840 194 767 141 q 954 341 914 248 q 995 550 995 434 q 949 716 995 638 q 815 842 903 793 q 617 891 727 891 q 465 868 536 891 q 346 809 395 846 q 261 723 296 772 q 209 623 226 675 q 193 519 193 571 q 224 377 193 438 q 314 291 255 316 q 344 306 337 282 q 350 330 345 312 q 356 354 355 349 q 348 387 361 372 q 308 504 308 434 q 389 705 308 621 q 601 789 470 789 q 784 726 718 789 q 849 561 849 662 q 796 337 849 429 q 660 244 743 244 q 584 278 613 244 q 566 359 555 312 q 587 432 572 386 q 610 511 601 477 q 619 570 619 546 q 598 634 619 609 q 538 660 577 660 q 457 616 490 660 q 423 506 423 572 q 443 411 423 449 l 366 87 q 356 -49 353 33 q 98 168 196 20 q 0 496 0 315 q 79 794 0 658 q 296 1011 159 931 q 595 1091 433 1091 q 894 1011 757 1091 q 1110 794 1030 931 "},"":{"x_min":90.6875,"x_max":851.84375,"ha":893,"o":"m 851 545 q 823 475 851 505 l 317 -29 q 248 -58 289 -58 q 178 -29 206 -58 l 119 28 q 90 99 90 58 q 119 168 90 140 l 496 545 l 119 921 q 90 992 90 951 q 119 1061 90 1033 l 178 1120 q 248 1149 206 1149 q 317 1120 289 1149 l 823 615 q 851 545 851 586 "},"":{"x_min":-0.40625,"x_max":1290.40625,"ha":1290,"o":"m 1270 820 q 1284 720 1301 775 l 1071 17 q 1011 -65 1056 -31 q 916 -99 967 -99 l 201 -99 q 86 -57 141 -99 q 9 44 31 -16 q 7 142 -9 96 q 10 163 7 145 q 13 192 12 181 q 10 208 13 198 q 8 224 7 219 q 14 240 10 232 q 27 258 19 248 q 40 276 35 268 q 75 347 58 306 q 98 418 92 389 q 98 441 100 426 q 98 463 96 457 q 111 485 100 472 q 124 503 122 498 q 157 574 141 530 q 176 644 173 617 q 174 668 177 651 q 175 690 172 686 q 192 714 178 700 q 209 731 206 727 q 242 797 224 751 q 263 872 260 842 q 261 891 264 878 q 259 912 258 905 q 266 926 261 918 q 280 944 272 934 q 293 960 289 954 q 306 984 299 969 q 318 1011 313 998 q 330 1039 323 1023 q 345 1063 337 1054 q 366 1082 353 1073 q 394 1090 379 1090 q 430 1086 409 1091 l 430 1084 q 469 1091 459 1091 l 1059 1091 q 1147 1047 1116 1091 q 1161 947 1178 1004 l 949 244 q 894 125 921 152 q 794 99 866 99 l 120 99 q 91 87 99 99 q 90 54 82 75 q 202 0 109 0 l 917 0 q 961 12 940 0 q 988 44 982 24 l 1220 809 q 1224 853 1226 826 q 1270 820 1254 841 m 445 818 q 447 801 442 808 q 462 793 451 793 l 934 793 q 953 801 944 793 q 966 818 963 808 l 982 868 q 981 885 985 878 q 965 892 976 892 l 494 892 q 474 885 484 892 q 461 868 465 878 l 445 818 m 381 620 q 382 602 378 610 q 398 595 387 595 l 869 595 q 889 602 879 595 q 902 620 899 610 l 918 669 q 916 687 921 679 q 901 694 912 694 l 430 694 q 410 687 420 694 q 397 669 400 679 l 381 620 "},"":{"x_min":0,"x_max":793.71875,"ha":794,"o":"m 793 644 l 793 322 q 772 269 793 291 q 719 248 750 248 q 666 269 688 248 q 644 322 644 291 l 644 595 l 595 595 l 595 -111 q 569 -172 595 -147 q 508 -198 544 -198 q 447 -172 472 -198 q 421 -111 421 -147 l 421 248 l 372 248 l 372 -111 q 346 -172 372 -147 q 285 -198 320 -198 q 224 -172 249 -198 q 198 -111 198 -147 l 198 595 l 148 595 l 148 322 q 127 269 148 291 q 74 248 105 248 q 21 269 43 248 q 0 322 0 291 l 0 644 q 43 750 0 706 q 148 793 86 793 l 644 793 q 750 750 706 793 q 793 644 793 706 m 519 1115 q 570 992 570 1064 q 519 869 570 920 q 396 818 468 818 q 274 869 324 818 q 223 992 223 920 q 274 1115 223 1064 q 396 1165 324 1165 q 519 1115 468 1165 "},"":{"x_min":0,"x_max":1389,"ha":1389,"o":"m 34 -89 q 10 -99 20 -103 q 0 -74 0 -94 l 0 1066 q 10 1091 0 1086 q 34 1081 20 1096 l 585 530 q 595 516 591 524 l 595 1066 q 605 1091 595 1086 q 630 1081 615 1096 l 1180 530 q 1190 516 1186 524 l 1190 1041 q 1205 1076 1190 1061 q 1240 1091 1220 1091 l 1339 1091 q 1374 1076 1359 1091 q 1389 1041 1389 1061 l 1389 -49 q 1374 -84 1389 -69 q 1339 -99 1359 -99 l 1240 -99 q 1205 -84 1220 -99 q 1190 -49 1190 -69 l 1190 475 q 1180 461 1186 468 l 630 -89 q 605 -99 615 -103 q 595 -74 595 -94 l 595 475 q 585 461 591 468 l 34 -89 "},"":{"x_min":0,"x_max":1190.578125,"ha":1191,"o":"m 909 366 q 894 437 909 405 q 856 490 878 469 q 799 528 834 511 q 735 554 765 545 q 668 572 706 564 l 587 591 q 553 599 564 596 q 526 608 542 602 q 503 620 510 614 q 490 637 496 627 q 484 660 484 647 q 596 720 484 720 q 655 710 629 720 q 697 688 682 701 q 727 662 713 675 q 758 640 741 649 q 795 630 775 630 q 853 655 831 630 q 875 715 875 680 q 832 792 875 758 q 722 844 789 827 q 581 862 655 862 q 479 850 528 862 q 386 814 429 838 q 317 746 343 789 q 291 647 291 703 q 306 564 291 599 q 349 506 320 529 q 411 468 378 482 q 491 443 444 454 l 604 415 q 691 387 674 398 q 716 341 716 372 q 685 291 716 310 q 603 271 654 271 q 532 283 564 271 q 482 313 501 296 q 447 348 463 330 q 411 378 430 365 q 369 390 392 390 q 311 367 330 390 q 291 309 291 344 q 386 187 291 237 q 611 136 480 136 q 720 150 668 136 q 815 192 772 165 q 883 264 858 219 q 909 366 909 310 m 1190 198 q 1103 -12 1190 75 q 892 -99 1016 -99 q 711 -37 792 -99 q 595 -49 651 -49 q 383 -6 484 -49 q 208 109 282 36 q 92 284 135 182 q 49 496 49 385 q 62 612 49 552 q 0 793 0 692 q 87 1004 0 916 q 297 1091 174 1091 q 479 1029 398 1091 q 595 1041 538 1041 q 807 998 706 1041 q 981 882 908 955 q 1097 708 1054 809 q 1140 496 1140 606 q 1128 379 1140 439 q 1190 198 1190 299 "},"":{"x_min":0,"x_max":1389,"ha":1389,"o":"m 254 204 q 297 99 297 161 q 254 -6 297 37 q 148 -49 210 -49 q 43 -6 86 -49 q 0 99 0 37 q 43 204 0 161 q 148 248 86 248 q 254 204 210 248 m 254 601 q 297 496 297 558 q 254 390 297 434 q 148 347 210 347 q 43 390 86 347 q 0 496 0 434 q 43 601 0 558 q 148 644 86 644 q 254 601 210 644 m 1389 173 l 1389 24 q 1381 7 1389 14 q 1364 0 1374 0 l 421 0 q 404 7 411 0 q 396 24 396 14 l 396 173 q 404 191 396 183 q 421 198 411 198 l 1364 198 q 1381 191 1374 198 q 1389 173 1389 183 m 254 998 q 297 892 297 954 q 254 787 297 830 q 148 744 210 744 q 43 787 86 744 q 0 892 0 830 q 43 998 0 954 q 148 1041 86 1041 q 254 998 210 1041 m 1389 570 l 1389 421 q 1381 404 1389 411 q 1364 396 1374 396 l 421 396 q 404 404 411 396 q 396 421 396 411 l 396 570 q 404 587 396 580 q 421 595 411 595 l 1364 595 q 1381 587 1374 595 q 1389 570 1389 580 m 1389 967 l 1389 818 q 1381 801 1389 808 q 1364 793 1374 793 l 421 793 q 404 801 411 793 q 396 818 396 808 l 396 967 q 404 984 396 977 q 421 992 411 992 l 1364 992 q 1381 984 1374 992 q 1389 967 1389 977 "},"":{"x_min":49.609375,"x_max":1389,"ha":1389,"o":"m 466 29 q 496 99 496 58 q 466 168 496 139 q 396 198 437 198 q 327 168 356 198 q 297 99 297 139 q 327 29 297 58 q 396 0 356 0 q 466 29 437 0 m 198 496 l 496 496 l 496 694 l 373 694 q 356 687 363 694 l 205 536 q 198 519 198 529 l 198 496 m 1161 29 q 1190 99 1190 58 q 1161 168 1190 139 q 1091 198 1131 198 q 1021 168 1051 198 q 992 99 992 139 q 1021 29 992 58 q 1091 0 1051 0 q 1161 29 1131 0 m 1389 942 l 1389 148 q 1385 128 1389 137 q 1375 113 1382 119 q 1362 105 1368 108 q 1344 100 1357 101 q 1326 98 1331 99 q 1307 98 1322 98 q 1289 99 1292 99 q 1231 -41 1289 17 q 1091 -99 1173 -99 q 951 -41 1009 -99 q 892 99 892 17 l 595 99 q 537 -41 595 17 q 396 -99 479 -99 q 256 -41 314 -99 q 198 99 198 17 l 148 99 q 131 98 146 99 q 111 98 116 98 q 94 100 106 99 q 75 105 81 101 q 63 113 70 108 q 52 128 55 119 q 49 148 49 137 q 64 183 49 168 q 99 198 79 198 l 99 446 q 98 473 99 452 q 98 503 98 494 q 100 529 99 511 q 105 558 102 548 q 116 582 109 568 q 134 605 124 595 l 287 758 q 326 783 302 773 q 372 793 351 793 l 496 793 l 496 942 q 510 977 496 962 q 545 992 525 992 l 1339 992 q 1374 977 1359 992 q 1389 942 1389 962 "},"":{"x_min":0,"x_max":1289.78125,"ha":1290,"o":"m 528 410 l 528 -93 l 0 -20 l 0 410 l 528 410 m 528 986 l 528 475 l 0 475 l 0 913 l 528 986 m 1289 410 l 1289 -198 l 586 -101 l 586 410 l 1289 410 m 1289 1091 l 1289 475 l 586 475 l 586 994 l 1289 1091 "},"":{"x_min":0,"x_max":793.71875,"ha":794,"o":"m 758 1081 q 783 1091 773 1096 q 793 1066 793 1086 l 793 -74 q 783 -99 793 -94 q 758 -89 773 -103 l 208 461 q 198 475 201 468 l 198 -49 q 183 -84 198 -69 q 148 -99 168 -99 l 49 -99 q 14 -84 29 -99 q 0 -49 0 -69 l 0 1041 q 14 1076 0 1061 q 49 1091 29 1091 l 148 1091 q 183 1076 168 1091 q 198 1041 198 1061 l 198 516 q 208 530 201 524 l 758 1081 "}," ":{"x_min":0,"x_max":0,"ha":198},"":{"x_min":0,"x_max":1091.359375,"ha":1091,"o":"m 430 11 q 538 -13 489 -13 q 706 18 640 -13 q 800 106 772 50 q 830 246 830 160 q 798 386 830 334 q 689 483 753 458 q 497 508 627 508 q 419 500 440 508 l 419 389 l 418 255 l 420 45 q 430 11 420 34 m 419 589 q 503 584 452 584 q 708 634 639 584 q 777 808 777 685 q 711 953 777 895 q 513 1011 646 1011 q 413 1001 473 1011 q 414 941 413 967 q 419 725 420 847 l 418 649 q 419 589 418 616 m 0 -99 l 1 -26 q 54 -17 36 -19 q 149 6 113 -7 q 165 46 162 27 q 172 196 172 97 l 171 582 q 164 895 167 780 q 155 979 163 962 q 146 989 155 982 q 93 1000 132 998 q 4 1010 69 1002 l 1 1075 l 203 1079 l 497 1089 l 532 1090 q 543 1090 536 1090 q 554 1091 550 1091 q 570 1090 554 1091 q 602 1090 586 1090 l 659 1090 q 807 1069 727 1090 q 882 1039 841 1059 q 961 980 926 1016 q 1011 899 995 944 q 1027 805 1027 855 q 1002 706 1027 751 q 929 624 978 661 q 813 565 909 609 q 1020 451 950 533 q 1091 268 1091 369 q 1068 144 1091 210 q 1013 53 1052 96 q 905 -30 962 -2 q 747 -76 848 -58 q 594 -85 684 -88 l 441 -82 q 210 -90 376 -80 q 0 -99 185 -93 "},"":{"x_min":0,"x_max":0,"ha":1389},"":{"x_min":0,"x_max":1389,"ha":1389,"o":"m 728 -85 q 694 -99 714 -99 q 660 -85 674 -99 l 176 381 q 155 401 168 387 q 112 452 141 415 q 59 527 82 489 q 18 621 36 566 q 0 728 0 676 q 98 995 0 899 q 370 1091 196 1091 q 468 1074 418 1091 q 561 1029 518 1058 q 635 976 604 1001 q 694 923 666 951 q 753 976 722 951 q 827 1029 784 1001 q 920 1074 870 1058 q 1018 1091 970 1091 q 1290 995 1192 1091 q 1389 728 1389 899 q 1211 379 1389 557 l 728 -85 "},"":{"x_min":0,"x_max":1190.578125,"ha":1191,"o":"m 735 636 q 793 496 793 578 q 735 355 793 413 q 595 297 677 297 q 454 355 513 297 q 396 496 396 413 q 454 636 396 578 q 595 694 513 694 q 735 636 677 694 m 805 285 q 892 496 892 372 q 805 706 892 619 q 595 793 718 793 q 384 706 472 793 q 297 496 297 619 q 384 285 297 372 q 595 198 472 198 q 805 285 718 198 m 875 776 q 992 496 992 660 q 875 215 992 331 q 595 99 759 99 q 314 215 430 99 q 198 496 198 331 q 314 776 198 660 q 595 892 430 892 q 875 776 759 892 m 1051 303 q 1091 496 1091 395 q 1051 688 1091 596 q 946 846 1012 780 q 787 952 879 913 q 595 992 696 992 q 402 952 494 992 q 244 846 310 913 q 138 688 178 780 q 99 496 99 596 q 138 303 99 395 q 244 145 178 211 q 402 39 310 79 q 595 0 494 0 q 787 39 696 0 q 946 145 879 79 q 1051 303 1012 211 m 1110 794 q 1190 496 1190 658 q 1110 197 1190 334 q 894 -19 1030 60 q 595 -99 757 -99 q 296 -19 433 -99 q 79 197 159 60 q 0 496 0 334 q 79 794 0 658 q 296 1011 159 931 q 595 1091 433 1091 q 894 1011 757 1091 q 1110 794 1030 931 "},"":{"x_min":0,"x_max":1190.578125,"ha":1191,"o":"m 868 471 q 860 452 868 461 l 613 205 q 595 198 604 198 q 577 205 585 198 l 329 453 q 324 480 317 465 q 347 496 330 496 l 496 496 l 496 768 q 503 786 496 779 q 520 793 510 793 l 669 793 q 687 786 680 793 q 694 768 694 779 l 694 496 l 843 496 q 861 489 854 496 q 868 471 868 482 m 806 861 q 595 917 710 917 q 383 861 480 917 q 230 707 286 804 q 173 496 173 610 q 230 284 173 381 q 383 130 286 187 q 595 74 480 74 q 806 130 710 74 q 960 284 903 187 q 1016 496 1016 381 q 960 707 1016 610 q 806 861 903 804 m 1110 794 q 1190 496 1190 658 q 1110 197 1190 334 q 894 -19 1030 60 q 595 -99 757 -99 q 296 -19 433 -99 q 79 197 159 60 q 0 496 0 334 q 79 794 0 658 q 296 1011 159 931 q 595 1091 433 1091 q 894 1011 757 1091 q 1110 794 1030 931 "},"":{"x_min":0,"x_max":0,"ha":1389},"":{"x_min":0,"x_max":1289.78125,"ha":1290,"o":"m 99 -99 l 1190 -99 l 1190 694 l 99 694 l 99 -99 m 396 843 l 396 1066 q 389 1084 396 1077 q 372 1091 382 1091 l 322 1091 q 304 1084 311 1091 q 297 1066 297 1077 l 297 843 q 304 825 297 832 q 322 818 311 818 l 372 818 q 389 825 382 818 q 396 843 396 832 m 992 843 l 992 1066 q 985 1084 992 1077 q 967 1091 978 1091 l 917 1091 q 899 1084 906 1091 q 892 1066 892 1077 l 892 843 q 899 825 892 832 q 917 818 906 818 l 967 818 q 985 825 978 818 q 992 843 992 832 m 1289 892 l 1289 -99 q 1260 -168 1289 -139 q 1190 -198 1230 -198 l 99 -198 q 29 -168 58 -198 q 0 -99 0 -139 l 0 892 q 29 962 0 933 q 99 992 58 992 l 198 992 l 198 1066 q 234 1154 198 1117 q 322 1190 271 1190 l 372 1190 q 459 1154 423 1190 q 496 1066 496 1117 l 496 992 l 793 992 l 793 1066 q 830 1154 793 1117 q 917 1190 866 1190 l 967 1190 q 1054 1154 1018 1190 q 1091 1066 1091 1117 l 1091 992 l 1190 992 q 1260 962 1230 992 q 1289 892 1289 933 "},"":{"x_min":0,"x_max":1190.578125,"ha":1191,"o":"m 183 94 l 362 94 l 362 632 l 183 632 l 183 94 m 374 798 q 346 865 373 838 q 274 891 319 891 q 201 865 229 891 q 172 798 172 838 q 200 732 172 758 q 272 705 227 705 l 272 705 q 346 732 318 705 q 374 798 374 758 m 827 94 l 1006 94 l 1006 403 q 950 583 1006 522 q 800 644 893 644 q 638 554 695 644 l 640 554 l 640 632 l 461 632 q 461 94 463 581 l 640 94 l 640 395 q 645 438 640 424 q 680 484 657 465 q 737 503 703 503 q 827 382 827 503 l 827 94 m 1190 868 l 1190 124 q 1125 -33 1190 31 q 967 -99 1059 -99 l 223 -99 q 65 -33 131 -99 q 0 124 0 31 l 0 868 q 65 1025 0 960 q 223 1091 131 1091 l 967 1091 q 1125 1025 1059 1091 q 1190 868 1190 960 "},"":{"x_min":0,"x_max":1289.78125,"ha":1290,"o":"m 679 55 q 675 86 679 71 q 668 114 672 101 q 654 141 664 127 q 638 164 644 155 q 617 187 631 174 q 596 207 603 200 q 571 227 589 213 q 547 244 554 240 q 522 262 541 249 q 498 279 503 275 q 459 280 485 280 q 377 275 417 280 q 293 255 337 269 q 217 220 250 241 q 164 161 185 198 q 143 79 143 125 q 170 -15 143 26 q 242 -80 198 -56 q 336 -115 287 -103 q 434 -127 385 -127 q 522 -117 480 -127 q 599 -87 563 -107 q 657 -30 636 -66 q 679 55 679 6 m 585 723 q 573 822 585 769 q 536 923 560 874 q 471 1003 513 971 q 379 1035 430 1035 q 267 982 306 1035 q 227 854 227 928 q 236 777 227 817 q 264 696 245 737 q 307 624 282 656 q 368 572 332 592 q 443 551 403 551 q 552 598 518 551 q 585 723 585 645 m 484 1091 l 823 1091 l 718 1030 l 613 1030 q 699 932 668 995 q 729 801 729 869 q 711 699 729 744 q 668 627 693 654 q 616 577 642 600 q 573 530 591 554 q 555 478 555 506 q 568 438 555 458 q 601 401 581 419 q 647 364 622 383 q 696 321 672 344 q 742 270 721 297 q 775 204 762 242 q 788 121 788 165 q 679 -96 788 -2 q 354 -198 561 -198 q 261 -190 308 -198 q 167 -164 214 -182 q 82 -119 119 -146 q 23 -50 46 -93 q 0 43 0 -8 q 28 148 0 90 q 103 233 53 197 q 215 288 152 269 q 335 316 278 307 q 451 327 392 325 q 402 442 402 391 q 403 460 402 451 q 407 475 405 469 q 413 492 410 482 q 419 509 417 503 q 365 505 388 505 q 167 581 249 505 q 84 772 84 657 q 158 966 84 880 q 339 1075 231 1051 q 484 1091 412 1091 m 1289 892 l 1289 793 l 1091 793 l 1091 595 l 992 595 l 992 793 l 793 793 l 793 892 l 992 892 l 992 1091 l 1091 1091 l 1091 892 l 1289 892 "},"":{"x_min":0,"x_max":1488.21875,"ha":1488,"o":"m 1389 421 l 1389 1066 q 1381 1083 1389 1076 q 1364 1091 1374 1091 l 124 1091 q 106 1083 113 1091 q 99 1066 99 1076 l 99 421 q 106 404 99 411 q 124 396 113 396 l 1364 396 q 1381 404 1374 396 q 1389 421 1389 411 m 1488 1066 l 1488 223 q 1451 135 1488 172 q 1364 99 1415 99 l 942 99 q 954 39 942 70 q 979 -15 967 7 q 992 -49 992 -39 q 977 -84 992 -69 q 942 -99 962 -99 l 545 -99 q 510 -84 525 -99 q 496 -49 496 -69 q 508 -15 496 -38 q 533 38 520 7 q 545 99 545 69 l 124 99 q 36 135 72 99 q 0 223 0 172 l 0 1066 q 36 1154 0 1117 q 124 1190 72 1190 l 1364 1190 q 1451 1154 1415 1190 q 1488 1066 1488 1117 "},"":{"x_min":10.078125,"x_max":461.1875,"ha":496,"o":"m 453 464 q 461 446 461 456 q 453 428 461 436 l 92 67 q 74 59 84 59 q 56 67 64 59 l 17 106 q 10 124 10 113 q 17 141 10 134 l 322 446 l 17 751 q 10 768 10 758 q 17 786 10 778 l 56 825 q 74 833 64 833 q 92 825 84 833 l 453 464 "},"":{"x_min":0,"x_max":1190.578125,"ha":1191,"o":"m 496 347 l 694 446 l 496 545 l 496 347 m 793 805 l 793 385 l 396 186 l 396 606 l 793 805 m 960 284 q 1016 496 1016 381 q 960 707 1016 610 q 806 861 903 804 q 595 917 710 917 q 383 861 480 917 q 230 707 286 804 q 173 496 173 610 q 230 284 173 381 q 383 130 286 187 q 595 74 480 74 q 806 130 710 74 q 960 284 903 187 m 1110 794 q 1190 496 1190 658 q 1110 197 1190 334 q 894 -19 1030 60 q 595 -99 757 -99 q 296 -19 433 -99 q 79 197 159 60 q 0 496 0 334 q 79 794 0 658 q 296 1011 159 931 q 595 1091 433 1091 q 894 1011 757 1091 q 1110 794 1030 931 "},"":{"x_min":0,"x_max":1389,"ha":1389,"o":"m 396 223 l 396 74 q 375 21 396 43 q 322 0 353 0 l 74 0 q 21 21 43 0 q 0 74 0 43 l 0 223 q 21 275 0 254 q 74 297 43 297 l 322 297 q 375 275 353 297 q 396 223 396 254 m 396 620 l 396 471 q 375 418 396 440 q 322 396 353 396 l 74 396 q 21 418 43 396 q 0 471 0 440 l 0 620 q 21 672 0 651 q 74 694 43 694 l 322 694 q 375 672 353 694 q 396 620 396 651 m 892 223 l 892 74 q 871 21 892 43 q 818 0 849 0 l 570 0 q 517 21 539 0 q 496 74 496 43 l 496 223 q 517 275 496 254 q 570 297 539 297 l 818 297 q 871 275 849 297 q 892 223 892 254 m 396 1016 l 396 868 q 375 815 396 837 q 322 793 353 793 l 74 793 q 21 815 43 793 q 0 868 0 837 l 0 1016 q 21 1069 0 1047 q 74 1091 43 1091 l 322 1091 q 375 1069 353 1091 q 396 1016 396 1047 m 892 620 l 892 471 q 871 418 892 440 q 818 396 849 396 l 570 396 q 517 418 539 396 q 496 471 496 440 l 496 620 q 517 672 496 651 q 570 694 539 694 l 818 694 q 871 672 849 694 q 892 620 892 651 m 1389 223 l 1389 74 q 1367 21 1389 43 q 1314 0 1345 0 l 1066 0 q 1013 21 1035 0 q 992 74 992 43 l 992 223 q 1013 275 992 254 q 1066 297 1035 297 l 1314 297 q 1367 275 1345 297 q 1389 223 1389 254 m 892 1016 l 892 868 q 871 815 892 837 q 818 793 849 793 l 570 793 q 517 815 539 793 q 496 868 496 837 l 496 1016 q 517 1069 496 1047 q 570 1091 539 1091 l 818 1091 q 871 1069 849 1091 q 892 1016 892 1047 m 1389 620 l 1389 471 q 1367 418 1389 440 q 1314 396 1345 396 l 1066 396 q 1013 418 1035 396 q 992 471 992 440 l 992 620 q 1013 672 992 651 q 1066 694 1035 694 l 1314 694 q 1367 672 1345 694 q 1389 620 1389 651 m 1389 1016 l 1389 868 q 1367 815 1389 837 q 1314 793 1345 793 l 1066 793 q 1013 815 1035 793 q 992 868 992 837 l 992 1016 q 1013 1069 992 1047 q 1066 1091 1035 1091 l 1314 1091 q 1367 1069 1345 1091 q 1389 1016 1389 1047 "},"":{"x_min":49.609375,"x_max":496.078125,"ha":496,"o":"m 496 843 l 496 148 q 481 113 496 128 q 446 99 466 99 q 411 113 426 99 l 64 461 q 49 496 49 475 q 64 530 49 516 l 411 878 q 446 892 426 892 q 481 878 466 892 q 496 843 496 863 "},"≠":{"x_min":0,"x_max":0,"ha":1389},"":{"x_min":93.78125,"x_max":1295.21875,"ha":1389,"o":"m 1273 804 q 1295 751 1295 782 q 1273 699 1295 720 l 712 137 l 606 32 q 554 10 585 10 q 501 32 523 10 l 396 137 l 115 418 q 93 471 93 440 q 115 523 93 502 l 220 629 q 273 651 242 651 q 326 629 304 651 l 554 400 l 1062 909 q 1115 931 1084 931 q 1168 909 1146 931 l 1273 804 "},"":{"x_min":0,"x_max":446.46875,"ha":496,"o":"m 431 530 q 446 496 446 516 q 431 461 446 475 l 84 113 q 49 99 69 99 q 14 113 29 99 q 0 148 0 128 l 0 843 q 14 878 0 863 q 49 892 29 892 q 84 878 69 892 l 431 530 "},"":{"x_min":0,"x_max":1488.21875,"ha":1488,"o":"m 459 496 q 254 396 334 492 l 150 396 q 43 428 86 396 q 0 520 0 459 q 96 793 0 793 q 129 777 100 793 q 205 744 158 761 q 297 727 251 727 q 400 745 349 727 q 396 694 396 716 q 459 496 396 586 m 1289 2 q 1233 -144 1289 -90 q 1082 -198 1176 -198 l 405 -198 q 255 -144 311 -198 q 198 2 198 -90 q 201 82 198 43 q 211 167 203 121 q 232 251 220 212 q 265 326 244 289 q 313 389 286 363 q 380 430 341 415 q 466 446 419 446 q 499 429 474 446 q 556 392 525 413 q 639 355 587 372 q 744 338 691 338 q 848 355 796 338 q 931 392 900 372 q 988 429 962 413 q 1021 446 1013 446 q 1108 430 1068 446 q 1174 389 1147 415 q 1222 326 1201 363 q 1255 251 1243 289 q 1276 167 1268 212 q 1287 82 1284 121 q 1289 2 1289 43 m 437 1132 q 496 992 496 1074 q 437 851 496 909 q 297 793 379 793 q 157 851 215 793 q 99 992 99 909 q 157 1132 99 1074 q 297 1190 215 1190 q 437 1132 379 1190 m 954 904 q 1041 694 1041 817 q 954 484 1041 571 q 744 396 867 396 q 533 484 620 396 q 446 694 446 571 q 533 904 446 817 q 744 992 620 992 q 954 904 867 992 m 1488 520 q 1444 428 1488 459 q 1337 396 1401 396 l 1233 396 q 1028 496 1154 492 q 1091 694 1091 586 q 1087 745 1091 716 q 1190 727 1138 727 q 1282 744 1236 727 q 1358 777 1329 761 q 1392 793 1387 793 q 1488 520 1488 793 m 1330 1132 q 1389 992 1389 1074 q 1330 851 1389 909 q 1190 793 1272 793 q 1050 851 1108 793 q 992 992 992 909 q 1050 1132 992 1074 q 1190 1190 1108 1190 q 1330 1132 1272 1190 "},"":{"x_min":0,"x_max":1190.578125,"ha":1191,"o":"m 555 109 l 907 461 q 922 496 922 475 q 907 530 922 516 l 555 882 q 520 897 541 897 q 486 882 500 897 l 406 803 q 392 768 392 789 q 406 734 392 748 l 644 496 l 406 258 q 392 223 392 243 q 406 188 392 203 l 486 109 q 520 94 500 94 q 555 109 541 94 m 1110 794 q 1190 496 1190 658 q 1110 197 1190 334 q 894 -19 1030 60 q 595 -99 757 -99 q 296 -19 433 -99 q 79 197 159 60 q 0 496 0 334 q 79 794 0 658 q 296 1011 159 931 q 595 1091 433 1091 q 894 1011 757 1091 q 1110 794 1030 931 "},"":{"x_min":0,"x_max":1190.578125,"ha":1191,"o":"m 793 27 q 685 413 761 214 l 683 413 l 682 413 q 648 400 669 408 q 570 362 627 392 q 464 298 513 332 q 362 210 415 265 q 282 95 310 155 l 271 103 q 595 -12 413 -12 q 793 27 697 -12 m 650 498 q 609 584 634 536 q 87 512 368 512 q 86 496 86 506 q 120 312 86 399 q 217 156 155 225 q 312 285 255 225 q 423 382 369 345 q 524 444 476 418 q 601 482 572 471 l 630 492 q 640 494 633 492 q 650 498 647 496 m 567 662 q 378 955 474 827 q 196 811 271 905 q 97 600 122 717 q 567 662 331 600 m 1097 415 q 780 437 934 461 q 879 74 847 252 q 1023 221 965 132 q 1097 415 1080 310 m 473 989 q 472 989 472 989 q 473 989 472 989 m 930 877 q 595 1004 787 1004 q 475 989 536 1004 q 665 693 576 858 q 766 740 719 713 q 841 788 813 767 q 892 832 868 809 q 921 863 915 855 q 930 877 927 872 m 1103 501 q 988 819 1101 681 l 987 818 q 972 799 980 809 q 939 765 965 789 q 884 718 913 740 q 806 667 854 696 q 704 617 758 639 q 738 544 723 576 q 743 530 740 539 q 749 517 747 521 q 807 523 777 521 q 864 524 837 524 q 917 523 891 524 q 967 520 944 522 q 1011 516 990 518 q 1048 511 1031 513 q 1076 506 1065 508 q 1096 503 1088 504 l 1103 501 m 1110 794 q 1190 496 1190 658 q 1110 197 1190 334 q 894 -19 1030 60 q 595 -99 757 -99 q 296 -19 433 -99 q 79 197 159 60 q 0 496 0 334 q 79 794 0 658 q 296 1011 159 931 q 595 1091 433 1091 q 894 1011 757 1091 q 1110 794 1030 931 "},"":{"x_min":0,"x_max":1304.515625,"ha":1389,"o":"m 601 688 q 644 793 644 731 q 601 899 644 855 q 496 942 558 942 q 390 899 434 942 q 347 793 347 855 q 361 729 347 761 q 297 744 330 744 q 192 700 235 744 q 148 595 148 657 q 192 489 148 533 q 297 446 235 446 q 403 489 359 446 q 446 595 446 533 q 431 659 446 627 q 496 644 463 644 q 601 688 558 644 m 1304 248 q 1266 196 1304 234 q 1215 158 1228 158 q 1193 171 1208 158 q 1164 196 1178 183 q 1135 227 1151 210 q 1116 248 1118 245 l 1041 173 l 1212 3 q 1233 -49 1233 -18 q 1203 -112 1233 -82 q 1140 -142 1173 -142 q 1088 -120 1109 -142 l 568 399 q 285 297 431 297 q 79 377 158 297 q 0 582 0 456 q 73 825 0 706 q 265 1017 147 944 q 508 1091 384 1091 q 714 1011 634 1091 q 793 806 793 932 q 692 523 793 659 l 967 248 l 1041 322 q 1021 341 1039 324 q 990 371 1003 358 q 965 399 977 384 q 952 421 952 414 q 990 472 952 434 q 1041 510 1028 510 q 1059 503 1051 510 q 1095 468 1064 498 q 1158 406 1126 438 q 1225 340 1191 375 q 1282 279 1260 305 q 1304 248 1304 254 "},"":{"x_min":72.078125,"x_max":1316.921875,"ha":1389,"o":"m 1316 1046 q 1283 985 1316 1019 l 793 496 l 793 -99 l 1041 -99 q 1076 -113 1061 -99 q 1091 -148 1091 -128 q 1076 -183 1091 -168 q 1041 -198 1061 -198 l 347 -198 q 312 -183 327 -198 q 297 -148 297 -168 q 312 -113 297 -128 q 347 -99 327 -99 l 595 -99 l 595 496 l 105 985 q 72 1046 72 1019 q 86 1074 72 1064 q 115 1088 99 1085 q 148 1091 131 1091 l 1240 1091 q 1273 1088 1258 1091 q 1302 1074 1289 1085 q 1316 1046 1316 1064 "},"":{"x_min":0,"x_max":1289.78125,"ha":1290,"o":"m 124 0 l 595 0 l 595 892 l 99 892 l 99 24 q 106 7 99 14 q 124 0 113 0 m 1190 24 l 1190 892 l 694 892 l 694 0 l 1165 0 q 1183 7 1175 0 q 1190 24 1190 14 m 1289 967 l 1289 24 q 1253 -62 1289 -26 q 1165 -99 1216 -99 l 124 -99 q 36 -62 72 -99 q 0 24 0 -26 l 0 967 q 36 1054 0 1018 q 124 1091 72 1091 l 1165 1091 q 1253 1054 1216 1091 q 1289 967 1289 1018 "},"":{"x_min":0,"x_max":1190.578125,"ha":1191,"o":"m 530 183 l 1006 659 q 1021 694 1021 674 q 1006 729 1021 714 l 927 808 q 892 823 913 823 q 858 808 872 823 l 496 446 l 332 610 q 297 624 317 624 q 262 610 277 624 l 183 530 q 168 496 168 516 q 183 461 168 475 l 461 183 q 496 168 475 168 q 530 183 516 168 m 1190 868 l 1190 124 q 1125 -33 1190 31 q 967 -99 1059 -99 l 223 -99 q 65 -33 131 -99 q 0 124 0 31 l 0 868 q 65 1025 0 960 q 223 1091 131 1091 l 967 1091 q 1125 1025 1059 1091 q 1190 868 1190 960 "},"":{"x_min":34.109375,"x_max":1255.6875,"ha":1290,"o":"m 1255 874 q 1130 744 1203 798 q 1130 712 1130 734 q 1101 511 1130 611 q 1011 318 1071 410 q 868 155 951 226 q 668 42 785 84 q 418 0 551 0 q 34 112 208 0 q 94 109 61 109 q 405 216 268 109 q 259 266 324 217 q 171 389 195 314 q 218 386 196 386 q 284 394 251 386 q 140 480 197 412 q 83 640 83 549 l 83 643 q 196 611 136 613 q 115 700 145 645 q 85 820 85 755 q 119 946 85 888 q 347 761 213 830 q 635 684 482 692 q 629 741 629 713 q 702 918 629 845 q 879 992 775 992 q 1062 913 988 992 q 1221 973 1147 929 q 1111 835 1192 884 q 1255 874 1183 843 "},"":{"x_min":41.078125,"x_max":1248.703125,"ha":1290,"o":"m 1248 437 q 1220 368 1248 398 l 1161 310 q 1091 280 1132 280 q 1021 310 1049 280 l 793 537 l 793 -8 q 764 -74 793 -48 q 694 -99 735 -99 l 595 -99 q 525 -74 554 -99 q 496 -8 496 -48 l 496 537 l 268 310 q 198 280 240 280 q 128 310 156 280 l 70 368 q 41 437 41 397 q 70 508 41 479 l 575 1013 q 644 1041 602 1041 q 715 1013 686 1041 l 1220 508 q 1248 437 1248 478 "},"":{"x_min":0,"x_max":1389,"ha":1389,"o":"m 1354 1081 q 1378 1091 1368 1096 q 1389 1066 1389 1086 l 1389 -74 q 1378 -99 1389 -94 q 1354 -89 1368 -103 l 803 461 q 793 475 796 468 l 793 -74 q 783 -99 793 -94 q 758 -89 773 -103 l 208 461 q 198 475 201 468 l 198 -49 q 183 -84 198 -69 q 148 -99 168 -99 l 49 -99 q 14 -84 29 -99 q 0 -49 0 -69 l 0 1041 q 14 1076 0 1061 q 49 1091 29 1091 l 148 1091 q 183 1076 168 1091 q 198 1041 198 1061 l 198 516 q 208 530 201 524 l 758 1081 q 783 1091 773 1096 q 793 1066 793 1086 l 793 516 q 803 530 796 524 l 1354 1081 "},"":{"x_min":11.625,"x_max":1389,"ha":1389,"o":"m 295 -65 q 253 -162 295 -127 q 148 -198 210 -198 q 14 -147 65 -198 l 58 -79 q 141 -113 96 -113 q 180 -102 163 -113 q 196 -69 196 -91 q 115 -26 196 -20 l 95 17 q 120 50 101 24 q 153 92 139 76 q 182 122 167 108 l 182 123 q 144 122 169 123 q 106 121 119 121 l 106 80 l 24 80 l 24 198 l 282 198 l 282 130 l 209 41 q 272 3 248 31 q 295 -65 295 -25 m 296 420 l 296 297 l 16 297 q 11 339 11 325 q 29 411 11 379 q 73 464 48 444 q 124 501 99 484 q 168 534 150 517 q 186 569 186 551 q 175 599 186 589 q 144 610 164 610 q 82 565 109 610 l 16 610 q 71 672 34 650 q 153 694 108 694 q 248 662 210 694 q 287 575 287 630 q 261 504 287 536 q 203 454 234 472 q 144 415 171 436 q 117 374 117 393 l 215 374 l 215 420 l 296 420 m 1389 173 l 1389 24 q 1381 7 1389 14 q 1364 0 1374 0 l 421 0 q 404 7 411 0 q 396 24 396 14 l 396 173 q 403 191 396 184 q 421 198 410 198 l 1364 198 q 1381 191 1374 198 q 1389 173 1389 183 m 297 870 l 297 793 l 37 793 l 37 870 l 120 870 q 121 965 120 902 q 121 1058 121 1027 l 121 1068 l 120 1068 q 81 1026 113 1054 l 26 1085 l 131 1183 l 213 1183 l 213 870 l 297 870 m 1389 570 l 1389 421 q 1381 404 1389 411 q 1364 396 1374 396 l 421 396 q 404 404 411 396 q 396 421 396 411 l 396 570 q 403 588 396 581 q 421 595 410 595 l 1364 595 q 1381 587 1374 595 q 1389 570 1389 580 m 1389 967 l 1389 818 q 1381 801 1389 808 q 1364 793 1374 793 l 421 793 q 404 801 411 793 q 396 818 396 808 l 396 967 q 404 984 396 977 q 421 992 411 992 l 1364 992 q 1381 984 1374 992 q 1389 967 1389 977 "},"":{"x_min":0,"x_max":1289.78125,"ha":1290,"o":"m 644 -136 q 657 -124 657 -136 q 644 -111 657 -111 q 566 -78 599 -111 q 533 0 533 -45 q 520 12 533 12 q 508 0 508 12 q 548 -96 508 -56 q 644 -136 588 -136 m 141 99 l 1147 99 q 956 418 1020 239 q 892 793 892 596 q 644 992 892 992 q 396 793 396 992 q 332 418 396 596 q 141 99 268 239 m 1289 99 q 1260 29 1289 58 q 1190 0 1230 0 l 843 0 q 785 -140 843 -82 q 644 -198 727 -198 q 504 -140 562 -198 q 446 0 446 -82 l 99 0 q 29 29 58 0 q 0 99 0 58 q 222 407 147 224 q 297 793 297 590 q 372 996 297 921 q 576 1087 446 1071 q 570 1116 570 1101 q 592 1168 570 1147 q 644 1190 613 1190 q 697 1168 675 1190 q 719 1116 719 1147 q 713 1087 719 1101 q 917 996 843 1071 q 992 793 992 921 q 1067 407 992 590 q 1289 99 1142 224 "},"":{"x_min":0,"x_max":595.28125,"ha":595,"o":"m 595 917 l 595 74 q 580 39 595 54 q 545 24 565 24 q 510 39 525 24 l 252 297 l 49 297 q 14 312 29 297 q 0 347 0 327 l 0 644 q 14 679 0 665 q 49 694 29 694 l 252 694 l 510 952 q 545 967 525 967 q 580 952 565 967 q 595 917 595 937 "},"":{"x_min":0,"x_max":1091.359375,"ha":1091,"o":"m 1091 229 q 1083 174 1091 208 q 1067 121 1075 141 q 972 39 1051 82 q 828 0 899 0 q 787 2 807 0 q 743 12 768 5 q 706 23 718 19 q 663 39 694 27 q 625 53 632 51 q 489 117 549 80 q 284 284 390 179 q 117 489 179 390 q 53 625 80 549 q 39 663 51 632 q 23 706 27 694 q 12 743 19 718 q 2 787 5 768 q 0 828 0 807 q 39 972 0 899 q 121 1067 82 1051 q 174 1083 141 1075 q 229 1091 208 1091 q 245 1089 240 1091 q 286 1030 259 1084 q 310 988 295 1015 q 337 939 324 961 q 361 897 349 916 q 374 878 363 894 q 391 850 386 861 q 396 828 396 839 q 374 789 396 813 q 326 747 352 766 q 278 706 300 727 q 256 670 256 684 q 260 653 256 663 q 267 637 264 642 q 277 618 269 631 q 286 603 286 605 q 421 421 345 497 q 603 286 497 345 q 618 277 605 286 q 637 267 631 269 q 653 260 642 264 q 670 256 663 256 q 706 278 684 256 q 747 326 727 300 q 789 374 766 352 q 828 396 813 396 q 850 391 839 396 q 878 374 861 386 q 897 361 894 363 q 939 337 916 349 q 988 310 961 324 q 1030 286 1015 295 q 1089 245 1084 259 q 1091 229 1091 240 "},"":{"x_min":0,"x_max":1090.578125,"ha":1091,"o":"m 1072 472 l 43 -99 q 12 -102 25 -110 q 0 -74 0 -94 l 0 1066 q 12 1094 0 1086 q 43 1092 25 1102 l 1072 520 q 1090 496 1090 510 q 1072 472 1090 482 "},"":{"x_min":0,"x_max":0,"ha":1389},"":{"x_min":0,"x_max":1289.78125,"ha":1290,"o":"m 1289 719 l 1289 173 q 1238 51 1289 102 q 1116 0 1187 0 l 173 0 q 51 51 102 0 q 0 173 0 102 l 0 917 q 51 1040 0 989 q 173 1091 102 1091 l 421 1091 q 544 1040 492 1091 q 595 917 595 989 l 595 892 l 1116 892 q 1238 841 1187 892 q 1289 719 1289 790 "},"":{"x_min":0,"x_max":1488.21875,"ha":1488,"o":"m 297 285 l 297 210 q 285 198 297 198 l 210 198 q 198 210 198 198 l 198 285 q 210 297 198 297 l 285 297 q 297 285 297 297 m 396 483 l 396 409 q 384 396 396 396 l 210 396 q 198 409 198 396 l 198 483 q 210 496 198 496 l 384 496 q 396 483 396 496 m 297 682 l 297 607 q 285 595 297 595 l 210 595 q 198 607 198 595 l 198 682 q 210 694 198 694 l 285 694 q 297 682 297 694 m 1091 285 l 1091 210 q 1078 198 1091 198 l 409 198 q 396 210 396 198 l 396 285 q 409 297 396 297 l 1078 297 q 1091 285 1091 297 m 595 483 l 595 409 q 582 396 595 396 l 508 396 q 496 409 496 396 l 496 483 q 508 496 496 496 l 582 496 q 595 483 595 496 m 496 682 l 496 607 q 483 595 496 595 l 409 595 q 396 607 396 595 l 396 682 q 409 694 396 694 l 483 694 q 496 682 496 694 m 793 483 l 793 409 q 781 396 793 396 l 706 396 q 694 409 694 396 l 694 483 q 706 496 694 496 l 781 496 q 793 483 793 496 m 694 682 l 694 607 q 682 595 694 595 l 607 595 q 595 607 595 595 l 595 682 q 607 694 595 694 l 682 694 q 694 682 694 694 m 992 483 l 992 409 q 979 396 992 396 l 905 396 q 892 409 892 396 l 892 483 q 905 496 892 496 l 979 496 q 992 483 992 496 m 1289 285 l 1289 210 q 1277 198 1289 198 l 1202 198 q 1190 210 1190 198 l 1190 285 q 1202 297 1190 297 l 1277 297 q 1289 285 1289 297 m 892 682 l 892 607 q 880 595 892 595 l 806 595 q 793 607 793 595 l 793 682 q 806 694 793 694 l 880 694 q 892 682 892 694 m 1091 682 l 1091 607 q 1078 595 1091 595 l 1004 595 q 992 607 992 595 l 992 682 q 1004 694 992 694 l 1078 694 q 1091 682 1091 694 m 1289 682 l 1289 409 q 1277 396 1289 396 l 1103 396 q 1091 409 1091 396 l 1091 483 q 1103 496 1091 496 l 1190 496 l 1190 682 q 1202 694 1190 694 l 1277 694 q 1289 682 1289 694 m 1389 99 l 1389 793 l 99 793 l 99 99 l 1389 99 m 1488 793 l 1488 99 q 1459 29 1488 58 q 1389 0 1430 0 l 99 0 q 29 29 58 0 q 0 99 0 58 l 0 793 q 29 863 0 834 q 99 892 58 892 l 1389 892 q 1459 863 1430 892 q 1488 793 1488 834 "},"":{"x_min":0,"x_max":1091.5,"ha":1091,"o":"m 254 254 q 297 148 297 210 q 254 43 297 86 q 148 0 210 0 q 43 43 86 0 q 0 148 0 86 q 43 254 0 210 q 148 297 86 297 q 254 254 210 297 m 694 53 q 681 16 696 31 q 644 0 667 0 l 540 0 q 506 12 520 0 q 491 44 492 25 q 348 348 474 222 q 44 491 222 474 q 12 506 25 492 q 0 540 0 520 l 0 644 q 16 681 0 667 q 49 694 29 694 l 53 694 q 290 632 177 684 q 491 491 403 579 q 632 290 579 403 q 694 53 684 177 m 1091 51 q 1077 15 1092 31 q 1041 0 1063 0 l 930 0 q 896 13 910 0 q 881 46 882 27 q 803 363 872 213 q 623 623 734 513 q 363 803 513 734 q 46 882 213 872 q 13 897 27 882 q 0 930 0 911 l 0 1041 q 15 1077 0 1063 q 49 1091 29 1091 l 51 1091 q 440 998 255 1081 q 770 770 626 915 q 998 440 915 626 q 1091 51 1081 255 "},"":{"x_min":49.609375,"x_max":1339.390625,"ha":1389,"o":"m 311 642 l 694 406 l 429 185 l 49 432 l 311 642 m 1075 212 l 1075 128 l 696 -98 l 696 -99 l 695 -98 l 694 -99 l 694 -98 l 315 128 l 315 212 l 429 137 l 694 358 l 694 359 l 695 358 l 696 359 l 696 358 l 961 137 l 1075 212 m 429 1099 l 694 878 l 311 642 l 49 851 l 429 1099 m 1077 642 l 1339 432 l 960 185 l 694 406 l 1077 642 m 960 1099 l 1339 851 l 1077 642 l 694 878 l 960 1099 "},"":{"x_min":0,"x_max":1190.578125,"ha":1191,"o":"m 806 861 q 595 917 710 917 q 383 861 480 917 q 230 707 286 804 q 173 496 173 610 q 230 284 173 381 q 383 130 286 187 q 595 74 480 74 q 806 130 710 74 q 960 284 903 187 q 1016 496 1016 381 q 960 707 1016 610 q 806 861 903 804 m 1110 794 q 1190 496 1190 658 q 1110 197 1190 334 q 894 -19 1030 60 q 595 -99 757 -99 q 296 -19 433 -99 q 79 197 159 60 q 0 496 0 334 q 79 794 0 658 q 296 1011 159 931 q 595 1091 433 1091 q 894 1011 757 1091 q 1110 794 1030 931 "},"":{"x_min":0,"x_max":1289.78125,"ha":1290,"o":"m 977 14 q 992 49 992 29 q 977 84 992 69 q 942 99 962 99 q 907 84 922 99 q 892 49 892 69 q 907 14 892 29 q 942 0 922 0 q 977 14 962 0 m 1175 14 q 1190 49 1190 29 q 1175 84 1190 69 q 1140 99 1161 99 q 1106 84 1120 99 q 1091 49 1091 69 q 1106 14 1091 29 q 1140 0 1120 0 q 1175 14 1161 0 m 1289 223 l 1289 -24 q 1268 -77 1289 -55 q 1215 -99 1246 -99 l 74 -99 q 21 -77 43 -99 q 0 -24 0 -55 l 0 223 q 21 275 0 254 q 74 297 43 297 l 405 297 q 460 226 421 254 q 545 198 498 198 l 744 198 q 829 226 791 198 q 884 297 868 254 l 1215 297 q 1268 275 1246 297 q 1289 223 1289 254 m 1037 725 q 992 694 1024 694 l 793 694 l 793 347 q 778 312 793 327 q 744 297 764 297 l 545 297 q 510 312 525 297 q 496 347 496 327 l 496 694 l 297 694 q 251 725 265 694 q 262 778 238 755 l 610 1126 q 644 1140 623 1140 q 679 1126 665 1140 l 1027 778 q 1037 725 1051 755 "},"":{"x_min":0,"x_max":0,"ha":1389},"":{"x_min":0,"x_max":1190.578125,"ha":1191,"o":"m 890 320 q 875 355 890 341 l 735 496 l 875 636 q 890 671 890 651 q 875 706 890 692 l 806 776 q 770 791 791 791 q 735 776 750 791 l 595 636 l 454 776 q 420 791 440 791 q 384 776 399 791 l 314 706 q 299 671 299 692 q 314 636 299 651 l 454 496 l 314 355 q 299 320 299 341 q 314 285 299 299 l 384 215 q 420 200 399 200 q 454 215 440 200 l 595 355 l 735 215 q 770 200 750 200 q 806 215 791 200 l 875 285 q 890 320 890 299 m 1110 794 q 1190 496 1190 658 q 1110 197 1190 334 q 894 -19 1030 60 q 595 -99 757 -99 q 296 -19 433 -99 q 79 197 159 60 q 0 496 0 334 q 79 794 0 658 q 296 1011 159 931 q 595 1091 433 1091 q 894 1011 757 1091 q 1110 794 1030 931 "},"":{"x_min":0,"x_max":1389,"ha":1389,"o":"m 183 113 q 198 148 198 128 q 183 183 198 168 q 148 198 168 198 q 113 183 128 198 q 99 148 99 168 q 113 113 99 128 q 148 99 128 99 q 183 113 168 99 m 1289 595 q 1259 664 1289 634 q 1190 694 1229 694 l 744 694 q 755 732 744 710 q 781 774 767 754 q 806 827 795 795 q 818 892 818 859 q 784 968 818 944 q 694 992 749 992 q 624 884 675 992 q 596 834 606 850 q 509 721 565 784 q 430 639 454 658 q 322 595 377 595 l 297 595 l 297 99 l 322 99 q 451 74 378 99 q 601 24 525 49 q 741 0 678 0 q 887 129 887 0 q 883 172 887 149 q 920 213 906 185 q 934 270 934 241 q 920 324 934 299 q 961 416 961 362 q 953 459 961 435 q 934 496 945 482 l 1190 496 q 1260 525 1230 496 q 1289 595 1289 554 m 1389 596 q 1330 455 1389 514 q 1190 396 1271 396 l 1059 396 q 1030 304 1056 348 q 1033 271 1033 288 q 986 133 1033 193 q 920 -36 987 25 q 744 -99 854 -99 q 495 -45 641 -99 q 322 0 368 0 l 99 0 q 29 29 58 0 q 0 99 0 58 l 0 595 q 29 665 0 636 q 99 694 58 694 l 322 694 q 339 697 330 694 q 357 708 348 701 q 374 722 366 716 q 393 740 382 729 q 409 756 403 751 q 423 773 414 762 q 434 786 433 784 q 512 886 485 844 q 537 934 522 903 q 566 990 553 966 q 598 1039 579 1014 q 640 1077 616 1064 q 694 1091 665 1091 q 854 1039 791 1091 q 917 892 917 987 q 900 793 917 840 l 1190 793 q 1330 734 1271 793 q 1389 596 1389 675 "},"":{"x_min":0,"x_max":1190.578125,"ha":1191,"o":"m 1013 479 l 1030 648 l 877 648 l 877 733 q 889 786 877 771 q 944 801 901 801 l 1030 801 l 1030 971 l 894 971 q 725 915 776 971 q 674 750 674 859 l 674 648 l 572 648 l 572 479 l 674 479 l 674 -13 l 877 -13 l 877 479 l 1013 479 m 1190 868 l 1190 124 q 1125 -33 1190 31 q 967 -99 1059 -99 l 223 -99 q 65 -33 131 -99 q 0 124 0 31 l 0 868 q 65 1025 0 960 q 223 1091 131 1091 l 967 1091 q 1125 1025 1059 1091 q 1190 868 1190 960 "},"":{"x_min":0,"x_max":1139.84375,"ha":1191,"o":"m 978 180 q 892 173 936 173 q 631 243 751 173 q 441 433 511 313 q 372 694 372 553 q 452 971 372 843 q 198 793 296 924 q 99 496 99 662 q 138 303 99 395 q 244 145 178 211 q 402 39 310 79 q 595 0 494 0 q 807 47 706 0 q 978 180 907 95 m 1135 246 q 915 -5 1062 89 q 595 -99 768 -99 q 364 -51 474 -99 q 174 75 254 -4 q 47 265 94 155 q 0 496 0 375 q 44 722 0 614 q 165 909 89 830 q 348 1037 241 989 q 572 1090 454 1085 q 620 1060 606 1092 q 608 1004 634 1028 q 506 863 541 944 q 471 694 471 783 q 527 482 471 579 q 681 329 584 386 q 892 272 778 272 q 1069 312 984 272 q 1125 302 1101 326 q 1139 275 1136 291 q 1135 246 1141 260 "},"":{"x_min":0,"x_max":1289.78125,"ha":1290,"o":"m 1289 744 l 1289 545 q 1275 510 1289 525 q 1240 496 1260 496 l 1190 496 q 1155 510 1170 496 q 1140 545 1140 525 l 1140 744 q 1082 884 1140 826 q 942 942 1024 942 q 802 884 860 942 q 744 744 744 826 l 744 595 l 818 595 q 871 573 849 595 q 892 520 892 551 l 892 74 q 871 21 892 43 q 818 0 849 0 l 74 0 q 21 21 43 0 q 0 74 0 43 l 0 520 q 21 573 0 551 q 74 595 43 595 l 595 595 l 595 744 q 697 989 595 887 q 942 1091 799 1091 q 1187 989 1085 1091 q 1289 744 1289 887 "},"":{"x_min":-0.140625,"x_max":1389.21875,"ha":1389,"o":"m 709 481 q 744 496 723 496 q 778 481 764 496 q 793 446 793 466 q 778 411 793 426 q 744 396 764 396 q 709 411 723 396 q 694 446 694 426 q 709 481 694 466 m 976 446 l 1369 137 q 1389 94 1391 122 q 1361 55 1385 67 l 1262 5 q 1240 0 1252 0 q 1216 6 1227 0 l 681 306 l 596 255 q 586 251 589 251 q 594 175 597 213 q 551 61 589 116 q 448 -34 513 6 q 234 -99 346 -99 q 62 -38 128 -99 q 0 121 -7 26 q 44 235 6 180 q 145 331 82 290 q 361 396 248 396 q 478 372 425 396 q 495 389 485 382 l 589 446 l 495 503 q 478 520 485 510 q 361 496 425 496 q 145 561 248 496 q 44 657 82 602 q 0 771 6 712 q 12 858 -3 816 q 62 930 28 900 q 234 992 127 992 q 448 927 346 992 q 551 831 513 886 q 594 716 589 776 q 586 641 597 679 q 596 637 589 641 l 681 586 l 1216 886 q 1240 892 1227 892 q 1262 887 1252 892 l 1361 837 q 1389 798 1385 825 q 1369 754 1391 770 l 976 446 m 448 648 q 465 731 484 680 q 382 822 445 782 q 234 868 311 868 q 146 840 176 868 q 130 756 110 807 q 212 665 149 705 q 361 620 283 620 q 448 648 418 620 m 382 70 q 465 161 445 110 q 448 244 484 212 q 361 272 418 272 q 212 227 283 272 q 130 136 149 187 q 146 52 110 85 q 234 24 176 24 q 382 70 311 24 m 520 545 l 595 500 l 595 509 q 620 552 595 537 l 631 558 l 570 595 l 550 575 q 542 566 548 572 q 533 557 537 560 q 530 554 531 555 q 527 552 528 553 l 520 545 m 694 372 l 768 347 l 1339 793 l 1240 843 l 644 509 l 644 421 l 520 347 l 527 341 q 533 336 529 339 q 541 327 536 333 q 550 317 547 320 l 570 297 l 694 372 m 1240 49 l 1339 99 l 936 415 l 799 308 q 789 303 797 306 l 1240 49 "},"":{"x_min":0,"x_max":1389,"ha":1389,"o":"m 396 223 l 396 74 q 375 21 396 43 q 322 0 353 0 l 74 0 q 21 21 43 0 q 0 74 0 43 l 0 223 q 21 275 0 254 q 74 297 43 297 l 322 297 q 375 275 353 297 q 396 223 396 254 m 396 620 l 396 471 q 375 418 396 440 q 322 396 353 396 l 74 396 q 21 418 43 396 q 0 471 0 440 l 0 620 q 21 672 0 651 q 74 694 43 694 l 322 694 q 375 672 353 694 q 396 620 396 651 m 1389 223 l 1389 74 q 1367 21 1389 43 q 1314 0 1345 0 l 570 0 q 517 21 539 0 q 496 74 496 43 l 496 223 q 517 275 496 254 q 570 297 539 297 l 1314 297 q 1367 275 1345 297 q 1389 223 1389 254 m 396 1016 l 396 868 q 375 815 396 837 q 322 793 353 793 l 74 793 q 21 815 43 793 q 0 868 0 837 l 0 1016 q 21 1069 0 1047 q 74 1091 43 1091 l 322 1091 q 375 1069 353 1091 q 396 1016 396 1047 m 1389 620 l 1389 471 q 1367 418 1389 440 q 1314 396 1345 396 l 570 396 q 517 418 539 396 q 496 471 496 440 l 496 620 q 517 672 496 651 q 570 694 539 694 l 1314 694 q 1367 672 1345 694 q 1389 620 1389 651 m 1389 1016 l 1389 868 q 1367 815 1389 837 q 1314 793 1345 793 l 570 793 q 517 815 539 793 q 496 868 496 837 l 496 1016 q 517 1069 496 1047 q 570 1091 539 1091 l 1314 1091 q 1367 1069 1345 1091 q 1389 1016 1389 1047 "},"´":{"x_min":0,"x_max":0,"ha":1389},"":{"x_min":0,"x_max":1091.359375,"ha":1091,"o":"m 1091 101 q 1034 -45 1091 8 q 884 -99 978 -99 l 206 -99 q 56 -45 113 -99 q 0 101 0 8 q 2 181 0 142 q 13 266 5 220 q 34 350 21 311 q 67 425 46 389 q 115 488 88 462 q 181 530 142 514 q 268 545 220 545 q 300 529 275 545 q 358 491 326 512 q 442 454 390 471 q 545 437 493 437 q 649 454 597 437 q 732 491 700 471 q 790 529 765 512 q 823 545 816 545 q 909 530 870 545 q 975 488 948 514 q 1023 425 1003 462 q 1057 350 1044 389 q 1077 266 1069 311 q 1088 181 1085 220 q 1091 101 1091 142 m 756 1004 q 843 793 843 916 q 756 583 843 670 q 545 496 668 496 q 335 583 422 496 q 248 793 248 670 q 335 1004 248 916 q 545 1091 422 1091 q 756 1004 668 1091 "},"":{"x_min":24.203125,"x_max":1389,"ha":1389,"o":"m 942 -24 l 942 -173 q 935 -191 942 -184 q 917 -198 928 -198 l 719 -198 q 701 -191 708 -198 q 694 -173 694 -184 l 694 -24 q 701 -6 694 -13 q 719 0 708 0 l 917 0 q 935 -6 928 0 q 942 -24 942 -13 m 570 74 q 562 55 570 65 l 315 -191 q 297 -198 307 -198 q 279 -191 288 -198 l 31 56 q 26 83 20 68 q 49 99 32 99 l 198 99 l 198 1165 q 205 1183 198 1176 q 223 1190 212 1190 l 372 1190 q 389 1183 382 1190 q 396 1165 396 1176 l 396 99 l 545 99 q 563 92 556 99 q 570 74 570 85 m 1091 372 l 1091 223 q 1084 205 1091 212 q 1066 198 1077 198 l 719 198 q 701 205 708 198 q 694 223 694 212 l 694 372 q 701 389 694 382 q 719 396 708 396 l 1066 396 q 1084 389 1077 396 q 1091 372 1091 382 m 1240 768 l 1240 620 q 1233 602 1240 609 q 1215 595 1226 595 l 719 595 q 701 602 708 595 q 694 620 694 609 l 694 768 q 701 786 694 779 q 719 793 708 793 l 1215 793 q 1233 786 1226 793 q 1240 768 1240 779 m 1389 1165 l 1389 1016 q 1382 999 1389 1006 q 1364 992 1375 992 l 719 992 q 701 999 708 992 q 694 1016 694 1006 l 694 1165 q 701 1183 694 1176 q 719 1190 708 1190 l 1364 1190 q 1382 1183 1375 1190 q 1389 1165 1389 1176 "},"":{"x_min":0,"x_max":1389,"ha":1389,"o":"m 990 839 q 694 892 852 892 q 398 839 536 892 q 180 693 261 785 q 99 496 99 602 q 154 330 99 409 q 310 194 210 251 l 378 155 l 357 81 q 303 -51 338 10 q 516 80 420 -3 l 549 110 l 593 105 q 694 99 647 99 q 990 153 852 99 q 1208 298 1127 206 q 1289 496 1289 389 q 1208 693 1289 602 q 990 839 1127 785 m 1295 745 q 1389 496 1389 630 q 1295 246 1389 361 q 1043 66 1202 132 q 694 0 883 0 q 582 6 640 0 q 225 -181 428 -129 q 137 -198 187 -192 l 133 -198 q 112 -190 121 -198 q 99 -168 103 -182 l 99 -168 q 99 -158 97 -165 q 101 -151 101 -152 q 104 -143 100 -149 q 109 -136 108 -137 q 114 -130 110 -135 q 120 -123 119 -124 q 144 -96 126 -117 q 171 -67 163 -75 q 195 -36 179 -58 q 220 3 211 -14 q 241 48 230 20 q 261 107 253 76 q 70 278 140 176 q 0 496 0 379 q 93 745 0 630 q 345 925 186 859 q 694 992 505 992 q 1043 925 883 992 q 1295 745 1202 859 "}," ":{"x_min":0,"x_max":0,"ha":238},"":{"x_min":41.859375,"x_max":1347.921875,"ha":1389,"o":"m 793 840 l 1038 595 l 595 151 l 350 396 l 793 840 m 630 81 l 1109 560 q 1123 595 1123 575 q 1109 630 1123 615 l 828 910 q 793 924 814 924 q 758 910 772 924 l 279 431 q 265 396 265 417 q 279 361 265 376 l 560 81 q 595 67 574 67 q 630 81 616 67 m 1319 575 l 616 -128 q 546 -157 587 -157 q 475 -128 504 -157 l 378 -31 q 421 74 421 12 q 378 179 421 136 q 272 223 334 223 q 167 179 210 223 l 70 277 q 41 347 41 306 q 70 417 41 389 l 773 1120 q 843 1148 802 1148 q 913 1120 885 1148 l 1010 1023 q 967 917 967 979 q 1010 812 967 855 q 1116 768 1054 768 q 1221 812 1178 768 l 1319 715 q 1347 645 1347 686 q 1319 575 1347 603 "},"":{"x_min":10.078125,"x_max":1289.78125,"ha":1290,"o":"m 453 428 l 92 67 q 74 59 84 59 q 56 67 64 59 l 17 106 q 10 124 10 113 q 17 141 10 134 l 322 446 l 17 751 q 10 768 10 758 q 17 786 10 778 l 56 825 q 74 833 64 833 q 92 825 84 833 l 453 464 q 461 446 461 456 q 453 428 461 436 m 1289 74 l 1289 24 q 1282 6 1289 13 q 1264 0 1275 0 l 520 0 q 503 6 510 0 q 496 24 496 13 l 496 74 q 503 92 496 85 q 520 99 510 99 l 1264 99 q 1282 92 1275 99 q 1289 74 1289 85 "},"":{"x_min":0,"x_max":1389,"ha":1389,"o":"m 516 817 q 410 606 469 746 q 381 662 392 641 q 349 711 369 683 q 310 755 330 739 q 261 782 290 771 q 198 793 232 793 l 24 793 q 6 800 13 793 q 0 818 0 807 l 0 967 q 6 985 0 978 q 24 992 13 992 l 198 992 q 516 817 392 992 m 1382 216 q 1389 198 1389 209 q 1382 180 1389 187 l 1133 -67 q 1116 -74 1127 -74 q 1098 -67 1106 -74 q 1091 -49 1091 -59 l 1091 99 q 1025 98 1066 99 q 962 98 984 98 q 906 98 940 97 q 851 102 871 99 q 801 110 830 105 q 752 125 772 116 q 707 147 733 134 q 661 178 682 160 q 619 219 641 196 q 575 273 596 243 q 681 485 621 345 q 710 429 698 450 q 741 379 721 407 q 780 336 761 351 q 829 308 800 320 q 892 297 858 297 l 1091 297 l 1091 446 q 1098 464 1091 457 q 1116 471 1105 471 q 1134 463 1125 471 l 1382 216 m 1382 910 q 1389 892 1389 903 q 1382 875 1389 882 l 1133 627 q 1116 620 1127 620 q 1098 627 1106 620 q 1091 644 1091 634 l 1091 793 l 892 793 q 825 782 855 793 q 772 747 795 770 q 732 699 748 723 q 697 639 716 675 q 637 506 672 591 q 598 420 614 455 q 556 339 582 386 q 507 261 530 293 q 449 197 483 230 q 380 144 416 164 q 297 112 344 124 q 198 99 251 99 l 24 99 q 6 106 13 99 q 0 124 0 113 l 0 272 q 6 290 0 283 q 24 297 13 297 l 198 297 q 265 309 235 297 q 319 344 296 320 q 358 391 342 367 q 393 451 375 416 q 454 584 418 499 q 492 670 476 635 q 534 751 508 705 q 584 829 560 798 q 641 893 607 860 q 711 946 675 927 q 793 979 747 966 q 892 992 840 992 l 1091 992 l 1091 1140 q 1098 1158 1091 1151 q 1116 1165 1105 1165 q 1134 1158 1125 1165 l 1382 910 "}," ":{"x_min":0,"x_max":0,"ha":1191},"":{"x_min":0,"x_max":1389,"ha":1389,"o":"m 1389 148 l 1389 49 q 1374 14 1389 29 q 1339 0 1359 0 l 49 0 q 14 14 29 0 q 0 49 0 29 l 0 148 q 14 183 0 168 q 49 198 29 198 l 1339 198 q 1374 183 1359 198 q 1389 148 1389 168 m 1091 446 l 1091 347 q 1076 312 1091 327 q 1041 297 1061 297 l 49 297 q 14 312 29 297 q 0 347 0 327 l 0 446 q 14 481 0 466 q 49 496 29 496 l 1041 496 q 1076 481 1061 496 q 1091 446 1091 466 m 1289 744 l 1289 644 q 1275 610 1289 624 q 1240 595 1260 595 l 49 595 q 14 610 29 595 q 0 644 0 624 l 0 744 q 14 778 0 764 q 49 793 29 793 l 1240 793 q 1275 778 1260 793 q 1289 744 1289 764 m 992 1041 l 992 942 q 977 907 992 922 q 942 892 962 892 l 49 892 q 14 907 29 892 q 0 942 0 922 l 0 1041 q 14 1076 0 1061 q 49 1091 29 1091 l 942 1091 q 977 1076 962 1091 q 992 1041 992 1061 "},"":{"x_min":24.203125,"x_max":1287.453125,"ha":1290,"o":"m 923 874 l 1060 874 l 1004 1043 l 995 1079 q 993 1095 993 1092 l 990 1095 l 988 1079 q 985 1065 988 1078 q 979 1043 982 1052 l 923 874 m 570 74 q 562 55 570 65 l 315 -191 q 297 -198 307 -198 q 279 -191 288 -198 l 31 56 q 26 83 20 68 q 49 99 32 99 l 198 99 l 198 1165 q 205 1183 198 1176 q 223 1190 212 1190 l 372 1190 q 389 1183 382 1190 q 396 1165 396 1176 l 396 99 l 545 99 q 563 92 556 99 q 570 74 570 85 m 1218 -17 l 1218 -198 l 765 -198 l 765 -128 l 1051 281 q 1068 302 1061 295 l 1076 309 l 1076 311 q 1071 311 1075 311 q 1065 310 1068 310 q 1042 308 1056 308 l 862 308 l 862 219 l 769 219 l 769 396 l 1209 396 l 1209 327 l 923 -82 q 906 -103 918 -89 l 898 -111 l 898 -113 l 909 -111 q 932 -110 916 -110 l 1124 -110 l 1124 -17 l 1218 -17 m 1287 677 l 1287 595 l 1064 595 l 1064 677 l 1122 677 l 1085 789 l 897 789 l 861 677 l 919 677 l 919 595 l 696 595 l 696 677 l 751 677 l 929 1190 l 1054 1190 l 1233 677 l 1287 677 "},"":{"x_min":0,"x_max":1091.359375,"ha":1091,"o":"m 875 727 l 888 863 l 203 863 l 239 449 l 713 449 l 696 272 l 544 231 l 392 272 l 382 381 l 246 381 l 263 165 l 544 88 l 547 88 l 547 89 l 825 165 l 864 587 l 365 587 l 353 727 l 875 727 m 0 1091 l 1091 1091 l 992 -23 l 544 -148 l 99 -23 l 0 1091 "},"":{"x_min":0,"x_max":1190.578125,"ha":1191,"o":"m 892 538 q 917 496 917 524 q 892 453 917 467 l 471 205 q 446 198 459 198 q 421 204 434 198 q 396 248 396 219 l 396 744 q 421 787 396 772 q 471 786 447 801 l 892 538 m 960 284 q 1016 496 1016 381 q 960 707 1016 610 q 806 861 903 804 q 595 917 710 917 q 383 861 480 917 q 230 707 286 804 q 173 496 173 610 q 230 284 173 381 q 383 130 286 187 q 595 74 480 74 q 806 130 710 74 q 960 284 903 187 m 1110 794 q 1190 496 1190 658 q 1110 197 1190 334 q 894 -19 1030 60 q 595 -99 757 -99 q 296 -19 433 -99 q 79 197 159 60 q 0 496 0 334 q 79 794 0 658 q 296 1011 159 931 q 595 1091 433 1091 q 894 1011 757 1091 q 1110 794 1030 931 "},"":{"x_min":0,"x_max":1289.78125,"ha":1290,"o":"m 1289 503 q 1243 260 1289 375 l 1227 222 l 1084 196 q 1014 91 1067 132 q 892 49 961 49 l 892 24 q 885 6 892 13 q 868 0 878 0 l 818 0 q 800 6 807 0 q 793 24 793 13 l 793 471 q 800 489 793 482 q 818 496 807 496 l 868 496 q 885 489 878 496 q 892 471 892 482 l 892 446 q 993 418 947 446 q 1065 344 1039 391 l 1118 354 q 1140 503 1140 427 q 1072 720 1140 618 q 889 882 1004 821 q 644 942 774 942 q 400 882 515 942 q 217 720 285 821 q 148 503 148 618 q 171 354 148 427 l 224 344 q 296 418 250 391 q 396 446 341 446 l 396 471 q 403 489 396 482 q 421 496 410 496 l 471 496 q 489 489 482 496 q 496 471 496 482 l 496 24 q 489 6 496 13 q 471 0 482 0 l 421 0 q 403 6 410 0 q 396 24 396 13 l 396 49 q 275 91 328 49 q 205 196 222 132 l 62 222 l 46 260 q 0 503 0 375 q 51 729 0 620 q 190 917 103 837 q 396 1044 277 996 q 644 1091 516 1091 q 892 1044 773 1091 q 1099 917 1012 996 q 1237 729 1185 837 q 1289 503 1289 620 "},"":{"x_min":34.875,"x_max":783.640625,"ha":794,"o":"m 478 141 q 486 124 486 134 q 478 106 486 113 l 439 67 q 421 59 431 59 q 403 67 411 59 l 42 428 q 34 446 34 436 q 42 464 34 456 l 403 825 q 421 833 411 833 q 439 825 431 833 l 478 786 q 486 768 486 778 q 478 751 486 758 l 173 446 l 478 141 m 775 141 q 783 124 783 134 q 775 106 783 113 l 737 67 q 719 59 729 59 q 701 67 709 59 l 340 428 q 332 446 332 436 q 340 464 332 456 l 701 825 q 719 833 709 833 q 737 825 729 833 l 775 786 q 783 768 783 778 q 775 751 783 758 l 471 446 l 775 141 "},"":{"x_min":0,"x_max":1190.578125,"ha":1191,"o":"m 887 667 q 883 616 901 640 l 635 268 q 595 248 620 248 q 554 268 569 248 l 306 616 q 303 667 289 640 q 347 694 316 694 l 843 694 q 887 667 874 694 m 992 124 l 992 868 q 984 885 992 878 q 967 892 977 892 l 223 892 q 205 885 213 892 q 198 868 198 878 l 198 124 q 205 106 198 113 q 223 99 213 99 l 967 99 q 984 106 977 99 q 992 124 992 113 m 1190 868 l 1190 124 q 1125 -33 1190 31 q 967 -99 1059 -99 l 223 -99 q 65 -33 131 -99 q 0 124 0 31 l 0 868 q 65 1025 0 960 q 223 1091 131 1091 l 967 1091 q 1125 1025 1059 1091 q 1190 868 1190 960 "},"™":{"x_min":0,"x_max":0,"ha":1389},"":{"x_min":0,"x_max":1140.96875,"ha":1191,"o":"m 1140 446 q 1112 375 1140 404 l 607 -128 q 537 -157 577 -157 q 467 -128 497 -157 l 409 -70 q 379 0 379 -41 q 409 70 379 41 l 636 297 l 90 297 q 25 326 50 297 q 0 396 0 355 l 0 496 q 25 566 0 537 q 90 595 50 595 l 636 595 l 409 823 q 379 892 379 851 q 409 962 379 934 l 467 1020 q 537 1050 496 1050 q 607 1020 578 1050 l 1112 516 q 1140 446 1140 489 "},"":{"x_min":0,"x_max":1190.578125,"ha":1191,"o":"m 793 744 l 793 248 q 778 213 793 227 q 744 198 764 198 q 715 207 728 198 l 368 455 q 347 496 347 470 q 368 536 347 521 l 715 784 q 744 793 728 793 q 778 778 764 793 q 793 744 793 764 m 992 124 l 992 868 q 984 885 992 878 q 967 892 977 892 l 223 892 q 205 885 213 892 q 198 868 198 878 l 198 124 q 205 106 198 113 q 223 99 213 99 l 967 99 q 984 106 977 99 q 992 124 992 113 m 1190 868 l 1190 124 q 1125 -33 1190 31 q 967 -99 1059 -99 l 223 -99 q 65 -33 131 -99 q 0 124 0 31 l 0 868 q 65 1025 0 960 q 223 1091 131 1091 l 967 1091 q 1125 1025 1059 1091 q 1190 868 1190 960 "},"":{"x_min":0,"x_max":1389,"ha":1389,"o":"m 1289 694 q 1359 665 1330 694 q 1389 595 1389 636 q 1359 525 1389 554 q 1289 496 1330 496 l 1289 198 q 1260 128 1289 158 q 1190 99 1230 99 q 561 393 867 368 q 490 342 516 379 q 466 264 465 306 q 497 193 468 223 q 479 142 482 167 q 484 97 477 117 q 510 54 491 77 q 547 15 529 31 q 595 -23 565 0 q 508 -87 572 -68 q 378 -96 444 -106 q 275 -53 311 -86 q 253 14 270 -35 q 228 87 235 64 q 210 156 220 110 q 198 234 199 202 q 201 311 197 267 q 218 396 205 355 l 124 396 q 36 433 72 396 q 0 520 0 469 l 0 669 q 36 757 0 720 q 124 793 72 793 l 496 793 q 1190 1091 833 793 q 1260 1061 1230 1091 q 1289 992 1289 1032 l 1289 694 m 1190 226 l 1190 965 q 595 699 885 731 l 595 490 q 1190 226 887 458 "},"":{"x_min":0,"x_max":1190.578125,"ha":1191,"o":"m 992 471 l 992 843 q 977 878 992 863 q 942 892 962 892 l 570 892 q 524 862 537 892 q 535 808 511 830 l 647 696 l 233 282 q 218 248 218 268 q 233 213 218 227 l 312 134 q 347 119 327 119 q 382 134 367 119 l 796 548 l 907 436 q 942 421 921 421 q 961 425 951 421 q 992 471 992 438 m 1190 868 l 1190 124 q 1125 -33 1190 31 q 967 -99 1059 -99 l 223 -99 q 65 -33 131 -99 q 0 124 0 31 l 0 868 q 65 1025 0 960 q 223 1091 131 1091 l 967 1091 q 1125 1025 1059 1091 q 1190 868 1190 960 "},"":{"x_min":-0.53125,"x_max":794.640625,"ha":794,"o":"m 24 992 l 570 992 q 587 984 580 992 q 595 966 595 977 l 595 297 l 744 297 q 789 268 775 297 q 782 215 803 240 l 534 -82 q 496 -99 520 -99 q 458 -82 472 -99 l 210 215 q 203 268 189 239 q 248 297 217 297 l 396 297 l 396 793 l 148 793 q 129 802 137 793 l 5 951 q 2 977 -4 961 q 24 992 9 992 "},"":{"x_min":0,"x_max":1488.21875,"ha":1488,"o":"m 396 396 l 396 99 l 198 99 l 198 396 l 396 396 m 694 793 l 694 99 l 496 99 l 496 793 l 694 793 m 992 595 l 992 99 l 793 99 l 793 595 l 992 595 m 1289 892 l 1289 99 l 1091 99 l 1091 892 l 1289 892 m 1389 24 l 1389 967 q 1381 984 1389 977 q 1364 992 1374 992 l 124 992 q 106 984 113 992 q 99 967 99 977 l 99 24 q 106 7 99 14 q 124 0 113 0 l 1364 0 q 1381 7 1374 0 q 1389 24 1389 14 m 1488 967 l 1488 24 q 1451 -62 1488 -26 q 1364 -99 1415 -99 l 124 -99 q 36 -62 72 -99 q 0 24 0 -26 l 0 967 q 36 1054 0 1018 q 124 1091 72 1091 l 1364 1091 q 1451 1054 1415 1091 q 1488 967 1488 1018 "},"":{"x_min":0,"x_max":1190.578125,"ha":1191,"o":"m 704 109 l 783 188 q 798 223 798 203 q 783 258 798 243 l 545 496 l 783 734 q 798 768 798 748 q 783 803 798 789 l 704 882 q 669 897 689 897 q 634 882 649 897 l 282 530 q 268 496 268 516 q 282 461 268 475 l 634 109 q 669 94 649 94 q 704 109 689 94 m 1110 794 q 1190 496 1190 658 q 1110 197 1190 334 q 894 -19 1030 60 q 595 -99 757 -99 q 296 -19 433 -99 q 79 197 159 60 q 0 496 0 334 q 79 794 0 658 q 296 1011 159 931 q 595 1091 433 1091 q 894 1011 757 1091 q 1110 794 1030 931 "},"":{"x_min":0,"x_max":1289.015625,"ha":1290,"o":"m 1091 469 l 1091 223 q 1025 65 1091 131 q 868 0 960 0 l 223 0 q 65 65 131 0 q 0 223 0 131 l 0 868 q 65 1025 0 960 q 223 1091 131 1091 l 868 1091 q 958 1071 916 1091 q 972 1054 970 1066 q 965 1031 975 1040 l 927 993 q 909 985 920 985 q 903 987 907 985 q 868 992 885 992 l 223 992 q 135 955 172 992 q 99 868 99 919 l 99 223 q 135 135 99 172 q 223 99 172 99 l 868 99 q 955 135 919 99 q 992 223 992 172 l 992 420 q 999 437 992 430 l 1048 486 q 1066 494 1056 494 q 1075 492 1071 494 q 1091 469 1091 486 m 1270 848 l 639 217 q 595 199 620 199 q 551 217 569 199 l 217 551 q 199 595 199 569 q 217 639 199 620 l 303 724 q 347 743 321 743 q 391 724 372 743 l 595 520 l 1096 1022 q 1140 1040 1115 1040 q 1185 1022 1166 1040 l 1270 937 q 1289 892 1289 918 q 1270 848 1289 867 "},"":{"x_min":-0.78125,"x_max":1092.140625,"ha":1091,"o":"m 1087 961 q 1076 907 1100 930 l 694 525 l 694 -49 q 664 -95 694 -82 q 644 -99 654 -99 q 610 -84 623 -99 l 411 113 q 396 148 396 128 l 396 525 l 14 907 q 3 961 -9 930 q 49 992 17 992 l 1041 992 q 1087 961 1074 992 "},"":{"x_min":91.375,"x_max":1198.40625,"ha":1290,"o":"m 1148 376 q 1194 316 1184 356 q 1185 241 1205 276 l 1135 155 q 1075 109 1115 120 q 999 119 1035 99 l 793 237 l 793 0 q 764 -69 793 -40 q 694 -99 734 -99 l 595 -99 q 525 -69 554 -99 q 496 0 496 -40 l 496 237 l 289 119 q 214 109 254 99 q 154 155 174 120 l 104 241 q 94 316 84 276 q 141 376 105 356 l 347 496 l 141 615 q 94 675 105 635 q 104 751 84 715 l 154 836 q 214 882 174 872 q 289 872 254 892 l 496 754 l 496 992 q 525 1061 496 1032 q 595 1091 554 1091 l 694 1091 q 764 1061 734 1091 q 793 992 793 1032 l 793 754 l 999 872 q 1075 882 1035 892 q 1135 836 1115 872 l 1185 751 q 1194 675 1205 715 q 1148 615 1184 635 l 942 496 l 1148 376 "},"":{"x_min":0,"x_max":1389,"ha":1389,"o":"m 1018 794 q 1091 595 1091 703 q 1018 396 1091 487 q 819 251 945 304 q 545 198 693 198 q 409 210 479 198 q 193 111 313 142 q 127 99 165 104 l 124 99 q 108 105 116 99 q 99 121 101 111 q 99 126 99 124 q 99 131 99 129 q 101 136 99 134 q 103 140 102 138 q 105 144 103 141 q 108 148 107 147 q 112 152 110 149 q 115 155 114 155 q 133 175 119 160 q 153 198 147 189 q 170 220 159 206 q 190 250 182 234 q 206 284 198 265 q 55 421 110 340 q 0 595 0 503 q 72 794 0 703 q 271 939 145 885 q 545 992 397 992 q 819 939 693 992 q 1018 794 945 885 m 1389 396 q 1333 222 1389 303 q 1182 86 1278 141 q 1198 51 1190 67 q 1218 22 1206 36 q 1235 0 1229 7 q 1255 -23 1241 -8 q 1273 -42 1269 -37 q 1276 -46 1274 -43 q 1280 -49 1278 -48 q 1283 -53 1281 -51 q 1285 -58 1285 -56 q 1287 -62 1286 -59 q 1289 -66 1289 -64 q 1289 -71 1289 -68 q 1289 -76 1289 -74 q 1278 -93 1286 -87 q 1261 -99 1271 -99 q 1195 -86 1223 -93 q 979 12 1075 -55 q 843 0 909 0 q 477 102 633 0 q 545 99 522 99 q 785 134 670 99 q 989 234 899 168 q 1138 398 1086 305 q 1190 595 1190 491 q 1172 713 1190 654 q 1330 575 1272 658 q 1389 396 1389 492 "},"":{"x_min":0,"x_max":1386.515625,"ha":1389,"o":"m 62 1090 l 104 1069 q 268 1065 120 1065 l 368 1065 l 383 1068 l 472 1068 l 639 1068 l 866 1068 l 892 1066 q 914 1071 903 1065 q 930 1084 925 1078 l 936 1090 l 968 1091 q 990 1090 980 1091 q 990 1009 990 1070 q 991 907 990 948 l 992 830 l 991 785 q 988 745 991 760 q 935 731 958 734 q 893 830 916 765 q 881 879 887 849 q 872 930 875 909 q 868 952 869 951 q 847 967 858 964 q 814 968 841 968 q 734 968 786 968 q 648 967 681 967 q 596 963 621 967 q 589 858 588 888 l 590 740 l 590 482 l 592 204 l 592 90 q 600 24 591 55 q 669 0 638 5 q 683 -3 671 0 q 717 -13 696 -7 q 751 -23 739 -20 q 789 -37 774 -29 q 793 -75 793 -72 q 791 -98 793 -83 q 765 -99 780 -99 q 620 -91 679 -99 q 435 -85 564 -85 q 255 -96 367 -85 q 200 -99 217 -99 q 199 -79 199 -82 l 198 -58 l 198 -51 q 259 -13 214 -26 q 382 24 367 15 q 392 68 389 41 q 396 403 398 217 l 392 735 q 392 827 392 783 q 392 906 392 871 q 391 951 392 942 q 386 962 389 959 q 375 967 382 966 q 261 971 346 971 q 183 961 227 971 q 127 942 139 951 q 110 916 117 935 q 93 858 103 898 q 74 793 82 819 q 59 768 69 778 q 43 758 48 758 q 0 792 9 779 l 0 1023 l 0 1089 l 62 1090 m 1351 99 q 1384 84 1377 99 q 1375 50 1391 70 l 1278 -75 q 1240 -95 1262 -95 q 1202 -75 1217 -95 l 1104 50 q 1096 84 1089 70 q 1128 99 1102 99 l 1190 99 l 1190 892 l 1128 892 q 1096 907 1102 892 q 1104 941 1089 921 l 1202 1067 q 1240 1087 1217 1087 q 1278 1067 1262 1087 l 1375 941 q 1384 907 1391 921 q 1351 892 1377 892 l 1289 892 l 1289 99 l 1351 99 "},"":{"x_min":0,"x_max":1190.578125,"ha":1191,"o":"m 870 98 l 870 238 q 735 195 802 195 q 667 213 696 195 q 637 248 644 226 q 628 348 628 271 l 628 576 l 841 576 l 841 716 l 628 716 l 628 942 l 501 942 q 470 828 492 872 q 410 751 448 784 q 320 703 372 720 l 320 576 l 418 576 l 418 263 q 431 169 418 203 q 477 109 444 137 q 558 65 510 80 q 666 49 606 49 q 766 60 718 49 q 870 98 810 70 m 1190 868 l 1190 124 q 1125 -33 1190 31 q 967 -99 1059 -99 l 223 -99 q 65 -33 131 -99 q 0 124 0 31 l 0 868 q 65 1025 0 960 q 223 1091 131 1091 l 967 1091 q 1125 1025 1059 1091 q 1190 868 1190 960 "},"":{"x_min":34.859375,"x_max":758.0625,"ha":794,"o":"m 758 272 q 680 67 758 153 q 480 -37 603 -17 l 480 -173 q 473 -191 480 -184 q 455 -198 466 -198 l 351 -198 q 333 -191 341 -198 q 326 -173 326 -183 l 326 -37 q 227 -13 275 -31 q 148 20 179 3 q 91 57 117 37 q 55 86 65 77 q 41 100 45 96 q 40 132 28 117 l 120 237 q 137 246 125 244 q 156 239 149 248 q 158 237 156 239 q 346 141 245 161 q 403 134 375 134 q 514 168 466 134 q 561 262 561 201 q 550 303 561 284 q 524 336 538 323 q 479 365 510 349 q 427 390 448 381 q 365 415 407 399 q 318 434 335 427 q 270 455 300 441 q 222 479 240 468 q 178 506 203 489 q 136 539 152 523 q 103 577 120 555 q 75 622 85 599 q 59 674 65 645 q 52 734 52 703 q 128 922 52 841 q 326 1026 204 1003 l 326 1165 q 333 1183 326 1175 q 351 1190 341 1190 l 455 1190 q 473 1183 466 1190 q 480 1165 480 1176 l 480 1029 q 566 1011 524 1024 q 633 985 607 998 q 682 956 659 972 q 713 934 706 940 q 724 923 720 927 q 728 893 737 909 l 665 780 q 648 768 659 768 q 627 773 637 765 q 615 782 624 775 q 585 803 606 789 q 540 828 564 816 q 482 848 516 839 q 416 857 448 857 q 296 823 342 857 q 249 737 249 790 q 256 700 249 717 q 279 668 262 683 q 309 642 295 653 q 353 618 324 632 q 399 598 382 605 q 454 576 417 590 q 517 552 495 561 q 575 525 538 543 q 634 492 613 506 q 682 453 655 477 q 723 404 709 429 q 747 344 737 379 q 758 272 758 310 "},"":{"x_min":0,"x_max":793.71875,"ha":794,"o":"m 0 -97 l 13 -31 q 72 -16 16 -31 q 162 13 131 -1 q 194 92 185 42 l 215 199 l 258 407 l 268 457 q 281 522 274 491 q 293 574 288 554 q 303 610 299 595 q 310 634 307 626 q 313 643 313 642 l 335 765 l 348 813 l 365 918 l 371 957 l 371 986 q 259 1008 339 1003 q 230 1011 237 1009 l 244 1091 l 490 1080 q 547 1078 520 1078 q 713 1085 598 1078 q 765 1089 738 1087 q 793 1091 792 1091 q 789 1061 792 1076 q 778 1022 783 1039 q 694 998 736 1007 q 616 974 644 985 q 597 906 606 950 q 587 842 590 872 q 536 605 553 688 l 489 364 l 459 241 l 426 59 l 417 24 q 417 3 415 19 q 510 -12 467 -7 q 561 -20 537 -16 q 555 -65 560 -42 q 548 -96 550 -89 q 530 -97 534 -96 q 498 -99 512 -99 q 476 -96 491 -99 q 364 -83 461 -93 l 210 -82 q 75 -90 179 -81 q 0 -97 18 -96 "},"":{"x_min":0,"x_max":992.140625,"ha":992,"o":"m 902 1091 q 936 1084 920 1091 q 977 1052 961 1074 q 992 1004 992 1030 l 992 5 q 977 -42 992 -20 q 936 -74 961 -64 q 902 -80 921 -80 q 837 -55 865 -80 l 496 272 l 154 -55 q 89 -81 126 -81 q 55 -74 72 -81 q 15 -42 30 -64 q 0 5 0 -20 l 0 1004 q 15 1052 0 1030 q 55 1084 30 1074 q 89 1091 72 1091 l 902 1091 "},"Æ":{"x_min":0,"x_max":0,"ha":1389},"":{"x_min":0,"x_max":992.140625,"ha":992,"o":"m 99 0 l 892 0 l 892 595 l 570 595 q 517 616 539 595 q 496 669 496 638 l 496 992 l 99 992 l 99 0 m 595 694 l 886 694 q 869 726 878 716 l 627 968 q 595 985 617 978 l 595 694 m 992 669 l 992 -24 q 970 -77 992 -55 q 917 -99 948 -99 l 74 -99 q 21 -77 43 -99 q 0 -24 0 -55 l 0 1016 q 21 1069 0 1047 q 74 1091 43 1091 l 570 1091 q 638 1075 601 1091 q 697 1038 675 1060 l 939 796 q 976 737 961 775 q 992 669 992 700 "},"":{"x_min":0,"x_max":1389,"ha":1389,"o":"m 992 322 l 992 471 q 985 489 992 482 q 967 496 978 496 l 793 496 l 793 669 q 786 687 793 680 q 768 694 779 694 l 620 694 q 602 687 609 694 q 595 669 595 680 l 595 496 l 421 496 q 403 489 410 496 q 396 471 396 482 l 396 322 q 403 304 396 311 q 421 297 410 297 l 595 297 l 595 124 q 602 106 595 113 q 620 99 609 99 l 768 99 q 786 106 779 99 q 793 124 793 113 l 793 297 l 967 297 q 985 304 978 297 q 992 322 992 311 m 496 892 l 892 892 l 892 992 l 496 992 l 496 892 m 198 892 l 198 -99 l 173 -99 q 51 -48 102 -99 q 0 74 0 3 l 0 719 q 51 841 0 790 q 173 892 102 892 l 198 892 m 1116 892 l 1116 -99 l 272 -99 l 272 892 l 396 892 l 396 1016 q 418 1069 396 1047 q 471 1091 440 1091 l 917 1091 q 970 1069 948 1091 q 992 1016 992 1047 l 992 892 l 1116 892 m 1389 719 l 1389 74 q 1337 -48 1389 3 q 1215 -99 1286 -99 l 1190 -99 l 1190 892 l 1215 892 q 1337 841 1286 892 q 1389 719 1389 790 "},"":{"x_min":0,"x_max":1190.578125,"ha":1191,"o":"m 992 446 l 992 545 q 977 580 992 565 q 942 595 962 595 l 553 595 l 699 741 q 714 776 714 756 q 699 811 714 796 l 629 882 q 594 896 615 896 q 559 882 573 896 l 279 601 l 208 530 q 194 496 194 517 q 208 461 194 475 l 279 390 l 559 110 q 594 96 573 96 q 629 110 615 96 l 699 180 q 713 215 713 194 q 699 250 713 236 l 553 396 l 942 396 q 977 411 962 396 q 992 446 992 426 m 1110 794 q 1190 496 1190 658 q 1110 197 1190 334 q 894 -19 1030 60 q 595 -99 757 -99 q 296 -19 433 -99 q 79 197 159 60 q 0 496 0 334 q 79 794 0 658 q 296 1011 159 931 q 595 1091 433 1091 q 894 1011 757 1091 q 1110 794 1030 931 "},"":{"x_min":0,"x_max":1189.796875,"ha":1191,"o":"m 1090 550 q 1085 638 1090 584 q 1071 713 1079 692 q 1058 747 1061 736 q 1051 775 1054 758 q 1047 813 1047 792 q 1051 866 1047 830 q 1055 918 1055 901 q 1047 961 1055 947 q 1037 961 1044 961 q 992 958 1023 961 q 947 954 962 954 q 810 973 900 954 q 675 992 720 992 q 601 983 641 992 q 535 965 561 974 q 466 938 510 955 q 310 858 360 896 q 186 711 235 802 q 118 529 137 621 q 99 336 99 436 q 108 243 99 305 q 118 149 118 181 q 110 98 118 131 q 101 47 101 64 q 110 18 101 30 q 137 7 120 7 q 193 16 155 7 q 250 24 230 24 q 381 12 294 24 q 513 0 468 0 q 733 28 653 0 q 915 146 833 63 q 1044 337 998 230 q 1090 550 1090 444 m 1189 551 q 1135 298 1189 423 q 983 74 1081 172 q 765 -65 885 -22 q 513 -99 669 -99 q 381 -87 468 -99 q 250 -76 293 -76 q 194 -87 231 -76 q 137 -99 156 -99 q 41 -56 80 -99 q 2 43 2 -13 q 10 96 2 62 q 19 148 19 130 q 9 241 19 179 q 0 335 0 303 q 13 504 0 421 q 56 666 27 586 q 134 816 84 746 q 250 937 183 887 q 430 1030 310 983 q 675 1091 580 1091 q 811 1072 721 1091 q 945 1054 900 1054 q 989 1058 960 1054 q 1034 1061 1019 1061 q 1126 1022 1097 1061 q 1154 918 1154 983 q 1151 865 1154 900 q 1147 813 1147 830 q 1147 798 1147 805 q 1150 785 1148 792 q 1153 775 1151 778 q 1158 762 1154 771 q 1163 749 1161 754 q 1182 657 1175 718 q 1189 551 1189 596 "},"":{"x_min":0,"x_max":1190.578125,"ha":1191,"o":"m 595 74 l 595 917 q 383 861 480 917 q 230 707 286 804 q 173 496 173 610 q 230 284 173 381 q 383 130 286 187 q 595 74 480 74 m 1110 794 q 1190 496 1190 658 q 1110 197 1190 334 q 894 -19 1030 60 q 595 -99 757 -99 q 296 -19 433 -99 q 79 197 159 60 q 0 496 0 334 q 79 794 0 658 q 296 1011 159 931 q 595 1091 433 1091 q 894 1011 757 1091 q 1110 794 1030 931 "},"":{"x_min":-0.03125,"x_max":595.3125,"ha":595,"o":"m 570 198 q 592 183 586 198 q 589 156 599 168 l 317 -141 q 299 -148 310 -148 q 281 -141 289 -148 l 6 156 q 2 183 -3 168 q 24 198 9 198 l 198 198 l 198 1165 q 205 1183 198 1176 q 223 1190 212 1190 l 372 1190 q 389 1183 382 1190 q 396 1165 396 1176 l 396 198 l 570 198 "},"":{"x_min":0,"x_max":1190.578125,"ha":1191,"o":"m 183 808 q 198 843 198 823 q 183 878 198 863 q 148 892 168 892 q 113 878 128 892 q 99 843 99 863 q 113 808 99 823 q 148 793 128 793 q 183 808 168 793 m 1091 396 q 1074 459 1091 423 q 1033 496 1058 495 q 1052 532 1044 509 q 1060 575 1060 556 q 1019 668 1060 629 q 1033 721 1033 692 q 1019 778 1033 750 q 982 819 1006 806 q 986 862 986 842 q 948 960 986 928 q 843 992 910 992 l 744 992 q 479 935 642 992 q 456 927 475 934 q 429 917 437 920 q 401 908 420 914 q 372 900 383 903 q 346 895 361 897 q 322 892 332 892 l 297 892 l 297 396 l 322 396 q 349 389 334 396 q 380 368 365 382 q 410 341 396 355 q 441 307 424 327 q 468 274 458 286 q 492 242 478 261 q 510 219 507 223 q 570 148 553 166 q 616 63 602 115 q 640 -33 630 12 q 669 -99 649 -79 q 768 -62 744 -99 q 793 49 793 -26 q 756 174 793 95 q 719 297 719 252 l 992 297 q 1061 327 1030 297 q 1091 396 1091 357 m 1190 396 q 1131 257 1190 316 q 992 198 1072 198 l 855 198 q 892 49 892 121 q 865 -94 892 -41 q 786 -173 838 -148 q 669 -198 734 -198 q 599 -169 630 -198 q 558 -106 573 -144 q 538 -36 542 -68 q 524 29 534 -3 q 500 79 515 62 q 417 177 463 117 q 311 297 339 279 l 99 297 q 29 326 58 297 q 0 396 0 355 l 0 892 q 29 963 0 934 q 99 992 58 992 l 322 992 q 429 1023 339 992 q 602 1074 528 1057 q 757 1091 675 1091 l 844 1091 q 1019 1030 952 1091 q 1085 862 1086 968 l 1085 858 q 1132 720 1132 799 q 1130 687 1132 703 q 1159 575 1159 635 q 1152 522 1159 548 q 1190 396 1190 465 "},"":{"x_min":0,"x_max":992.140625,"ha":992,"o":"m 992 372 q 970 319 992 341 q 917 297 948 297 q 855 330 878 297 l 679 595 l 644 595 l 644 492 l 836 174 q 843 148 843 162 q 828 113 843 128 q 793 99 813 99 l 644 99 l 644 -111 q 619 -172 644 -147 q 558 -198 593 -198 l 434 -198 q 372 -172 398 -198 q 347 -111 347 -147 l 347 99 l 198 99 q 163 113 178 99 q 148 148 148 128 q 155 174 148 162 l 347 492 l 347 595 l 312 595 l 136 330 q 74 297 113 297 q 21 319 43 297 q 0 372 0 341 q 12 413 0 394 l 210 710 q 347 793 267 793 l 644 793 q 781 710 724 793 l 979 413 q 992 372 992 394 m 618 1115 q 669 992 669 1064 q 618 869 669 920 q 496 818 568 818 q 373 869 423 818 q 322 992 322 920 q 373 1115 322 1064 q 496 1165 423 1165 q 618 1115 568 1165 "},"":{"x_min":34.875,"x_max":486,"ha":496,"o":"m 478 786 q 486 768 486 778 q 478 751 486 758 l 173 446 l 478 141 q 486 124 486 134 q 478 106 486 113 l 439 67 q 421 59 431 59 q 403 67 411 59 l 42 428 q 34 446 34 436 q 42 464 34 456 l 403 825 q 421 833 411 833 q 439 825 431 833 l 478 786 "},"":{"x_min":3.875,"x_max":1190.578125,"ha":1191,"o":"m 695 129 l 695 0 l 503 0 l 379 195 l 361 227 q 352 244 355 234 l 350 244 l 343 227 q 324 193 335 212 l 203 0 l 3 0 l 3 129 l 103 129 l 255 355 l 112 565 l 6 565 l 6 696 l 220 696 l 327 519 q 345 486 329 516 q 354 470 351 479 l 356 470 q 365 486 358 477 l 384 519 l 492 696 l 692 696 l 692 565 l 595 565 l 452 358 l 610 129 l 695 129 m 1190 -38 l 1190 -198 l 792 -198 l 789 -177 q 786 -141 786 -142 q 806 -51 786 -92 q 857 15 827 -10 q 922 66 887 41 q 987 108 957 90 q 1037 150 1017 126 q 1058 199 1058 174 q 1035 248 1058 229 q 980 267 1012 267 q 905 237 940 267 q 877 207 894 228 l 796 279 q 844 330 816 307 q 990 380 906 380 q 1128 334 1075 380 q 1181 211 1181 288 q 1154 119 1181 160 q 1089 53 1127 79 q 1012 4 1051 27 q 944 -44 973 -17 q 913 -100 916 -70 l 1092 -100 l 1092 -38 l 1190 -38 "},"":{"x_min":0,"x_max":1389,"ha":1389,"o":"m 1389 640 l 1389 24 q 1352 -62 1389 -26 q 1264 -99 1316 -99 l 124 -99 q 36 -62 72 -99 q 0 24 0 -26 l 0 640 q 78 572 34 602 q 463 305 358 382 q 535 254 507 272 q 608 217 562 236 q 693 198 654 198 l 694 198 l 695 198 q 780 217 734 198 q 853 254 826 236 q 925 305 881 272 q 1311 572 1057 400 q 1389 640 1355 603 m 1389 868 q 1351 751 1389 806 q 1256 655 1313 695 q 893 403 965 453 q 860 380 885 398 q 818 350 835 361 q 778 325 802 339 q 734 304 754 311 q 695 297 713 297 l 694 297 l 693 297 q 654 304 675 297 q 610 325 634 311 q 570 350 586 339 q 528 380 553 361 q 495 403 503 398 q 292 545 424 453 q 133 655 159 637 q 42 745 85 688 q 0 851 0 802 q 32 951 0 911 q 124 992 64 992 l 1264 992 q 1352 955 1315 992 q 1389 868 1389 919 "},"":{"x_min":94.5625,"x_max":1289.78125,"ha":1290,"o":"m 1254 1081 q 1279 1091 1269 1096 q 1289 1066 1289 1086 l 1289 -74 q 1279 -99 1289 -94 q 1254 -89 1269 -103 l 704 461 q 694 475 698 468 l 694 -74 q 684 -99 694 -94 q 659 -89 674 -103 l 109 461 q 94 496 94 475 q 109 530 94 516 l 659 1081 q 684 1091 674 1096 q 694 1066 694 1086 l 694 516 q 704 530 698 524 l 1254 1081 "}," ":{"x_min":0,"x_max":0,"ha":298},"":{"x_min":0,"x_max":1190.578125,"ha":1191,"o":"m 887 324 q 843 297 874 297 l 347 297 q 303 324 316 297 q 306 375 289 351 l 554 723 q 595 744 569 744 q 635 723 620 744 l 883 375 q 887 324 901 351 m 992 124 l 992 868 q 984 885 992 878 q 967 892 977 892 l 223 892 q 205 885 213 892 q 198 868 198 878 l 198 124 q 205 106 198 113 q 223 99 213 99 l 967 99 q 984 106 977 99 q 992 124 992 113 m 1190 868 l 1190 124 q 1125 -33 1190 31 q 967 -99 1059 -99 l 223 -99 q 65 -33 131 -99 q 0 124 0 31 l 0 868 q 65 1025 0 960 q 223 1091 131 1091 l 967 1091 q 1125 1025 1059 1091 q 1190 868 1190 960 "},"":{"x_min":0,"x_max":1389,"ha":1389,"o":"m 430 155 l 490 265 q 385 388 423 313 q 347 545 347 462 q 394 720 347 639 q 99 446 217 629 q 430 155 228 246 m 720 717 q 731 744 731 728 q 720 770 731 759 q 694 781 710 781 q 528 711 597 781 q 458 545 458 642 q 469 519 458 530 q 496 508 480 508 q 522 519 511 508 q 533 545 533 530 q 580 659 533 612 q 694 706 627 706 q 720 717 710 706 m 1013 892 q 1012 885 1013 886 q 768 446 930 739 q 523 6 605 153 l 485 -62 q 463 -74 477 -74 q 359 -20 454 -74 q 347 1 347 -12 q 381 68 347 10 q 177 203 270 119 q 15 392 83 286 q 0 446 0 417 q 15 499 0 475 q 310 787 134 682 q 694 892 486 892 q 834 879 763 892 l 875 954 q 897 967 883 967 q 911 962 901 967 q 935 950 921 958 q 961 936 949 943 q 985 921 972 929 q 1000 913 998 914 q 1013 892 1013 905 m 1041 545 q 980 349 1041 437 q 818 221 919 260 l 1035 610 q 1041 545 1041 575 m 1373 499 q 1389 446 1389 473 q 1373 392 1389 419 q 1289 280 1343 343 q 1019 73 1172 147 q 694 0 866 0 l 751 102 q 1056 208 916 116 q 1289 446 1196 300 q 1071 674 1200 585 l 1120 761 q 1261 642 1193 711 q 1373 499 1329 573 "},"":{"x_min":0,"x_max":1190.578125,"ha":1191,"o":"m 719 139 l 719 182 l 719 545 l 719 694 l 471 694 l 471 545 l 471 182 l 471 139 q 485 109 471 120 q 520 99 499 99 l 669 99 q 705 109 691 99 q 719 139 719 120 m 365 793 l 517 793 l 419 918 q 365 942 399 942 q 313 920 334 942 q 291 868 291 899 q 313 815 291 837 q 365 793 334 793 m 877 815 q 899 868 899 837 q 877 920 899 899 q 824 942 855 942 q 771 918 791 942 l 674 793 l 824 793 q 877 815 855 793 m 1190 669 l 1190 421 q 1183 403 1190 410 q 1165 396 1176 396 l 1091 396 l 1091 74 q 1069 21 1091 43 q 1016 0 1047 0 l 173 0 q 120 21 142 0 q 99 74 99 43 l 99 396 l 24 396 q 6 403 13 396 q 0 421 0 410 l 0 669 q 6 687 0 680 q 24 694 13 694 l 365 694 q 243 745 293 694 q 192 868 192 796 q 243 990 192 940 q 365 1041 293 1041 q 496 982 448 1041 l 595 854 l 694 982 q 824 1041 741 1041 q 947 990 896 1041 q 998 868 998 940 q 947 745 998 796 q 824 694 896 694 l 1165 694 q 1183 687 1176 694 q 1190 669 1190 680 "},"":{"x_min":0,"x_max":1091.359375,"ha":1091,"o":"m 496 1140 l 496 644 q 468 558 496 597 q 396 504 441 520 l 396 -99 q 367 -168 396 -139 q 297 -198 337 -198 l 198 -198 q 128 -168 158 -198 q 99 -99 99 -139 l 99 504 q 27 558 55 520 q 0 644 0 597 l 0 1140 q 14 1175 0 1161 q 49 1190 29 1190 q 84 1175 69 1190 q 99 1140 99 1161 l 99 818 q 113 783 99 798 q 148 768 128 768 q 183 783 168 768 q 198 818 198 798 l 198 1140 q 213 1175 198 1161 q 248 1190 227 1190 q 282 1175 268 1190 q 297 1140 297 1161 l 297 818 q 312 783 297 798 q 347 768 327 768 q 382 783 367 768 q 396 818 396 798 l 396 1140 q 411 1175 396 1161 q 446 1190 426 1190 q 481 1175 466 1190 q 496 1140 496 1161 m 1091 1140 l 1091 -99 q 1061 -168 1091 -139 q 992 -198 1032 -198 l 892 -198 q 823 -168 852 -198 q 793 -99 793 -139 l 793 297 l 620 297 q 602 305 610 297 q 595 322 595 312 l 595 942 q 668 1117 595 1044 q 843 1190 741 1190 l 1041 1190 q 1076 1175 1061 1190 q 1091 1140 1091 1161 "},"":{"x_min":0,"x_max":1091.75,"ha":1091,"o":"m 462 673 q 263 320 454 659 q 213 284 242 284 l 27 284 q 3 297 11 284 q 3 325 -3 310 l 199 672 q 199 673 200 672 l 75 889 q 74 918 65 906 q 99 930 81 930 l 284 930 q 335 895 315 930 l 462 673 m 1087 1171 q 1087 1142 1096 1158 l 678 418 l 678 417 l 938 -58 q 939 -87 947 -74 q 914 -99 931 -99 l 729 -99 q 678 -64 696 -99 l 415 417 q 827 1147 429 442 q 876 1182 846 1182 l 1063 1182 q 1087 1171 1080 1182 "},"":{"x_min":0,"x_max":793.71875,"ha":794,"o":"m 537 554 q 595 694 595 612 q 537 834 595 776 q 396 892 479 892 q 256 834 314 892 q 198 694 198 776 q 256 554 198 612 q 396 496 314 496 q 537 554 479 496 m 793 694 q 768 555 793 610 l 486 -44 q 449 -84 473 -69 q 396 -99 424 -99 q 344 -84 368 -99 q 308 -44 320 -69 l 25 555 q 0 694 0 610 q 116 975 0 858 q 396 1091 232 1091 q 677 975 561 1091 q 793 694 793 858 "},"":{"x_min":-0.03125,"x_max":595.3125,"ha":595,"o":"m 592 808 q 570 793 585 793 l 396 793 l 396 -173 q 389 -191 396 -184 q 372 -198 382 -198 l 223 -198 q 205 -191 212 -198 q 198 -173 198 -184 l 198 793 l 24 793 q 2 808 8 793 q 6 835 -3 823 l 277 1133 q 295 1140 285 1140 q 313 1133 306 1140 l 589 835 q 592 808 599 823 "},"":{"x_min":0,"x_max":1190.578125,"ha":1191,"o":"m 595 708 l 751 471 l 439 471 l 595 708 m 878 297 l 951 297 l 595 833 l 239 297 l 312 297 l 392 421 l 797 421 l 878 297 m 1110 794 q 1190 496 1190 658 q 1110 197 1190 334 q 894 -19 1030 60 q 595 -99 757 -99 q 296 -19 433 -99 q 79 197 159 60 q 0 496 0 334 q 79 794 0 658 q 296 1011 159 931 q 595 1091 433 1091 q 894 1011 757 1091 q 1110 794 1030 931 "},"":{"x_min":0,"x_max":1488.21875,"ha":1488,"o":"m 595 297 l 892 297 l 892 372 l 793 372 l 793 719 l 705 719 l 590 613 l 650 551 q 692 595 682 579 l 694 595 l 694 372 l 595 372 l 595 297 m 975 606 q 992 496 992 550 q 975 386 992 441 q 929 282 959 330 q 851 203 899 234 q 744 173 802 173 q 637 203 685 173 q 558 282 588 234 q 512 386 528 330 q 496 496 496 441 q 512 606 496 550 q 558 710 528 661 q 637 788 588 758 q 744 818 685 818 q 851 788 802 818 q 929 710 899 758 q 975 606 959 661 m 1389 297 l 1389 694 q 1248 752 1306 694 q 1190 892 1190 810 l 297 892 q 239 752 297 810 q 99 694 181 694 l 99 297 q 239 239 181 297 q 297 99 297 181 l 1190 99 q 1248 239 1190 181 q 1389 297 1306 297 m 1488 942 l 1488 49 q 1473 14 1488 29 q 1438 0 1458 0 l 49 0 q 14 14 29 0 q 0 49 0 29 l 0 942 q 14 977 0 962 q 49 992 29 992 l 1438 992 q 1473 977 1458 992 q 1488 942 1488 962 "},"":{"x_min":0,"x_max":1190.578125,"ha":1191,"o":"m 866 511 q 843 496 860 496 l 694 496 l 694 223 q 687 205 694 212 q 669 198 680 198 l 520 198 q 503 205 510 198 q 496 223 496 212 l 496 496 l 347 496 q 329 503 336 496 q 322 520 322 510 q 330 539 322 530 l 577 786 q 595 793 585 793 q 613 786 604 793 l 861 538 q 866 511 872 526 m 806 861 q 595 917 710 917 q 383 861 480 917 q 230 707 286 804 q 173 496 173 610 q 230 284 173 381 q 383 130 286 187 q 595 74 480 74 q 806 130 710 74 q 960 284 903 187 q 1016 496 1016 381 q 960 707 1016 610 q 806 861 903 804 m 1110 794 q 1190 496 1190 658 q 1110 197 1190 334 q 894 -19 1030 60 q 595 -99 757 -99 q 296 -19 433 -99 q 79 197 159 60 q 0 496 0 334 q 79 794 0 658 q 296 1011 159 931 q 595 1091 433 1091 q 894 1011 757 1091 q 1110 794 1030 931 "},"":{"x_min":0,"x_max":1091.359375,"ha":1091,"o":"m 892 570 l 892 520 q 885 503 892 510 q 868 496 878 496 l 595 496 l 595 223 q 588 205 595 212 q 570 198 581 198 l 520 198 q 503 205 510 198 q 496 223 496 212 l 496 496 l 223 496 q 205 503 212 496 q 198 520 198 510 l 198 570 q 205 588 198 581 q 223 595 212 595 l 496 595 l 496 868 q 503 885 496 878 q 520 892 510 892 l 570 892 q 588 885 581 892 q 595 868 595 878 l 595 595 l 868 595 q 885 588 878 595 q 892 570 892 581 m 992 223 l 992 868 q 955 955 992 919 q 868 992 919 992 l 223 992 q 135 955 172 992 q 99 868 99 919 l 99 223 q 135 135 99 172 q 223 99 172 99 l 868 99 q 955 135 919 99 q 992 223 992 172 m 1091 868 l 1091 223 q 1025 65 1091 131 q 868 0 960 0 l 223 0 q 65 65 131 0 q 0 223 0 131 l 0 868 q 65 1025 0 960 q 223 1091 131 1091 l 868 1091 q 1025 1025 960 1091 q 1091 868 1091 960 "},"":{"x_min":0,"x_max":1488.21875,"ha":1488,"o":"m 1364 1091 q 1451 1054 1415 1091 q 1488 967 1488 1018 l 1488 24 q 1451 -62 1488 -26 q 1364 -99 1415 -99 l 124 -99 q 36 -62 72 -99 q 0 24 0 -26 l 0 967 q 36 1054 0 1018 q 124 1091 72 1091 l 1364 1091 m 124 992 q 106 984 113 992 q 99 967 99 977 l 99 793 l 1389 793 l 1389 967 q 1381 984 1389 977 q 1364 992 1374 992 l 124 992 m 1364 0 q 1381 7 1374 0 q 1389 24 1389 14 l 1389 496 l 99 496 l 99 24 q 106 7 99 14 q 124 0 113 0 l 1364 0 m 198 99 l 198 198 l 396 198 l 396 99 l 198 99 m 496 99 l 496 198 l 793 198 l 793 99 l 496 99 "},"":{"x_min":79.328125,"x_max":1210.453125,"ha":1290,"o":"m 1183 68 q 1200 -50 1227 0 q 1091 -99 1173 -99 l 198 -99 q 89 -50 116 -99 q 106 68 62 0 l 496 682 l 496 992 l 446 992 q 411 1006 426 992 q 396 1041 396 1021 q 411 1076 396 1061 q 446 1091 426 1091 l 843 1091 q 878 1076 863 1091 q 892 1041 892 1061 q 878 1006 892 1021 q 843 992 863 992 l 793 992 l 793 682 l 1183 68 m 579 630 l 368 297 l 920 297 l 710 630 l 694 654 l 694 682 l 694 992 l 595 992 l 595 682 l 595 654 l 579 630 "},"":{"x_min":0,"x_max":0,"ha":1389},"":{"x_min":0,"x_max":0,"ha":1389},"":{"x_min":74.328125,"x_max":790.609375,"ha":794,"o":"m 545 217 l 545 31 q 536 9 545 18 q 514 0 527 0 l 328 0 q 306 9 316 0 q 297 31 297 18 l 297 217 q 306 238 297 229 q 328 248 316 248 l 514 248 q 536 238 527 248 q 545 217 545 229 m 790 682 q 778 603 790 640 q 751 544 766 567 q 708 498 736 521 q 664 464 681 475 q 616 437 647 454 q 563 386 585 419 q 542 334 542 354 q 533 309 542 321 q 511 297 523 297 l 325 297 q 305 311 313 297 q 297 341 297 326 l 297 375 q 348 497 297 440 q 458 581 398 554 q 523 624 504 602 q 543 683 543 647 q 507 741 543 716 q 423 765 471 765 q 340 743 373 765 q 257 654 313 723 q 233 641 247 641 q 213 648 224 641 l 86 744 q 74 764 76 752 q 79 785 72 775 q 438 992 203 992 q 563 968 500 992 q 676 903 626 944 q 758 804 727 863 q 790 682 790 746 "},"":{"x_min":0,"x_max":1488.21875,"ha":1488,"o":"m 992 520 q 985 538 992 531 l 712 811 q 694 818 705 818 q 676 811 683 818 l 404 539 q 396 520 396 530 q 403 503 396 510 q 421 496 410 496 l 595 496 l 595 223 q 602 205 595 213 q 620 198 610 198 l 768 198 q 786 205 778 198 q 793 223 793 213 l 793 496 l 967 496 q 984 503 977 496 q 992 520 992 510 m 1488 297 q 1401 87 1488 174 q 1190 0 1313 0 l 347 0 q 101 101 203 0 q 0 347 0 203 q 54 533 0 448 q 199 661 108 618 q 198 694 198 684 q 314 975 198 858 q 595 1091 430 1091 q 816 1023 716 1091 q 962 844 916 956 q 1091 892 1017 892 q 1231 834 1173 892 q 1289 694 1289 776 q 1258 587 1289 635 q 1423 482 1358 563 q 1488 297 1488 401 "},"":{"x_min":0,"x_max":1289.78125,"ha":1290,"o":"m 99 -99 l 322 -99 l 322 124 l 99 124 l 99 -99 m 372 -99 l 620 -99 l 620 124 l 372 124 l 372 -99 m 99 173 l 322 173 l 322 421 l 99 421 l 99 173 m 372 173 l 620 173 l 620 421 l 372 421 l 372 173 m 99 471 l 322 471 l 322 694 l 99 694 l 99 471 m 669 -99 l 917 -99 l 917 124 l 669 124 l 669 -99 m 372 471 l 620 471 l 620 694 l 372 694 l 372 471 m 967 -99 l 1190 -99 l 1190 124 l 967 124 l 967 -99 m 669 173 l 917 173 l 917 421 l 669 421 l 669 173 m 396 843 l 396 1066 q 389 1083 396 1076 q 372 1091 382 1091 l 322 1091 q 305 1083 312 1091 q 297 1066 297 1076 l 297 843 q 305 825 297 833 q 322 818 312 818 l 372 818 q 389 825 382 818 q 396 843 396 833 m 967 173 l 1190 173 l 1190 421 l 967 421 l 967 173 m 669 471 l 917 471 l 917 694 l 669 694 l 669 471 m 967 471 l 1190 471 l 1190 694 l 967 694 l 967 471 m 992 843 l 992 1066 q 984 1083 992 1076 q 967 1091 977 1091 l 917 1091 q 900 1083 907 1091 q 892 1066 892 1076 l 892 843 q 900 825 892 833 q 917 818 907 818 l 967 818 q 984 825 977 818 q 992 843 992 833 m 1289 892 l 1289 -99 q 1260 -168 1289 -139 q 1190 -198 1230 -198 l 99 -198 q 29 -168 58 -198 q 0 -99 0 -139 l 0 892 q 29 962 0 933 q 99 992 58 992 l 198 992 l 198 1066 q 234 1154 198 1117 q 322 1190 271 1190 l 372 1190 q 459 1154 423 1190 q 496 1066 496 1117 l 496 992 l 793 992 l 793 1066 q 830 1154 793 1117 q 917 1190 866 1190 l 967 1190 q 1054 1154 1018 1190 q 1091 1066 1091 1117 l 1091 992 l 1190 992 q 1260 962 1230 992 q 1289 892 1289 933 "},"":{"x_min":0,"x_max":1488.21875,"ha":1488,"o":"m 452 849 q 496 744 496 806 q 452 638 496 682 q 347 595 409 595 q 241 638 285 595 q 198 744 198 682 q 241 849 198 806 q 347 892 285 892 q 452 849 409 892 m 1289 446 l 1289 99 l 198 99 l 198 248 l 446 496 l 570 372 l 967 768 l 1289 446 m 1364 992 l 124 992 q 106 984 113 992 q 99 967 99 977 l 99 24 q 106 7 99 14 q 124 0 113 0 l 1364 0 q 1381 7 1374 0 q 1389 24 1389 14 l 1389 967 q 1381 984 1389 977 q 1364 992 1374 992 m 1488 967 l 1488 24 q 1451 -62 1488 -26 q 1364 -99 1415 -99 l 124 -99 q 36 -62 72 -99 q 0 24 0 -26 l 0 967 q 36 1054 0 1018 q 124 1091 72 1091 l 1364 1091 q 1451 1054 1415 1091 q 1488 967 1488 1018 "},"":{"x_min":0,"x_max":1389,"ha":1389,"o":"m 398 264 l 461 496 l 337 496 l 396 263 q 396 261 396 262 q 397 258 396 259 q 398 261 397 259 q 398 264 398 263 m 488 595 l 515 694 l 289 694 l 313 595 l 488 595 m 637 595 l 744 595 l 717 694 l 663 694 l 637 595 m 985 263 l 1045 496 l 920 496 l 982 264 q 983 261 982 263 q 984 258 983 259 q 984 261 984 259 q 985 263 985 262 m 1071 595 l 1096 694 l 866 694 l 892 595 l 1071 595 m 1389 570 l 1389 520 q 1382 503 1389 510 q 1364 496 1375 496 l 1199 496 l 1071 18 q 1047 0 1066 0 l 924 0 q 900 18 906 0 l 772 496 l 610 496 l 480 18 q 456 0 475 0 l 333 0 q 318 5 324 0 q 310 18 311 10 l 186 496 l 24 496 q 6 503 13 496 q 0 520 0 510 l 0 570 q 6 588 0 581 q 24 595 13 595 l 160 595 l 134 694 l 24 694 q 6 701 13 694 q 0 719 0 708 l 0 768 q 6 786 0 779 q 24 793 13 793 l 109 793 l 40 1060 q 44 1082 36 1071 q 64 1091 51 1091 l 170 1091 q 194 1072 190 1091 l 264 793 l 542 793 l 617 1072 q 641 1091 623 1091 l 739 1091 q 763 1072 758 1091 l 839 793 l 1122 793 l 1194 1072 q 1218 1091 1198 1091 l 1324 1091 q 1344 1082 1337 1091 q 1348 1060 1352 1071 l 1278 793 l 1364 793 q 1382 786 1375 793 q 1389 768 1389 779 l 1389 719 q 1382 701 1389 708 q 1364 694 1375 694 l 1251 694 l 1225 595 l 1364 595 q 1382 588 1375 595 q 1389 570 1389 581 "},"":{"x_min":0,"x_max":1190.578125,"ha":1191,"o":"m 1190 992 l 1190 644 q 1175 610 1190 624 q 1140 595 1161 595 l 793 595 q 747 626 761 595 q 758 679 734 656 l 865 786 q 595 892 751 892 q 441 861 514 892 q 314 776 368 830 q 229 649 261 723 q 198 496 198 576 q 229 342 198 415 q 314 215 261 268 q 441 130 368 162 q 595 99 514 99 q 769 139 687 99 q 908 253 851 179 q 926 262 913 261 q 945 255 937 262 l 1051 148 q 1059 132 1058 142 q 1053 115 1059 123 q 848 -43 968 13 q 595 -99 728 -99 q 364 -51 474 -99 q 174 75 254 -4 q 47 265 94 155 q 0 496 0 375 q 47 727 0 616 q 174 916 94 837 q 364 1044 254 996 q 595 1091 474 1091 q 815 1048 709 1091 q 1005 927 922 1005 l 1106 1027 q 1160 1037 1128 1051 q 1190 992 1190 1024 "},"":{"x_min":0,"x_max":1289.78125,"ha":1290,"o":"m 793 570 l 793 520 q 786 503 793 510 q 768 496 778 496 l 322 496 q 305 503 312 496 q 297 520 297 510 l 297 570 q 305 587 297 580 q 322 595 312 595 l 768 595 q 786 587 778 595 q 793 570 793 580 m 791 300 q 892 545 892 402 q 791 791 892 689 q 545 892 689 892 q 300 791 402 892 q 198 545 198 689 q 300 300 198 402 q 545 198 402 198 q 791 300 689 198 m 1261 -29 q 1289 -99 1289 -58 q 1260 -169 1289 -140 q 1190 -198 1231 -198 q 1120 -168 1148 -198 l 854 96 q 545 0 716 0 q 333 43 434 0 q 159 159 232 86 q 43 333 86 232 q 0 545 0 434 q 43 757 0 656 q 159 932 86 858 q 333 1048 232 1005 q 545 1091 434 1091 q 757 1048 656 1091 q 932 932 858 1005 q 1048 757 1005 858 q 1091 545 1091 656 q 995 236 1091 375 l 1261 -29 "},"∞":{"x_min":0,"x_max":0,"ha":1389},"":{"x_min":0,"x_max":1190.578125,"ha":1191,"o":"m 1190 868 l 1190 124 q 1125 -33 1190 31 q 967 -99 1059 -99 l 223 -99 q 65 -33 131 -99 q 0 124 0 31 l 0 868 q 65 1025 0 960 q 223 1091 131 1091 l 967 1091 q 1125 1025 1059 1091 q 1190 868 1190 960 "},"":{"x_min":41.078125,"x_max":1248.703125,"ha":1290,"o":"m 1248 644 q 1220 575 1248 603 l 715 70 q 644 41 685 41 q 575 70 603 41 l 70 575 q 41 644 41 603 q 70 715 41 685 l 127 773 q 198 802 158 802 q 268 773 239 802 l 644 396 l 1021 773 q 1091 802 1050 802 q 1161 773 1131 802 l 1220 715 q 1248 644 1248 685 "}," ":{"x_min":0,"x_max":0,"ha":298},"":{"x_min":0,"x_max":1190.578125,"ha":1191,"o":"m 878 -26 q 592 -99 745 -99 q 308 -26 441 -99 q 491 137 415 41 q 592 344 566 233 q 695 137 620 233 q 878 -26 771 41 m 494 1080 l 494 704 q 396 348 494 509 q 140 110 298 187 q 0 494 0 277 q 64 765 0 639 q 242 974 129 891 q 494 1080 355 1057 m 1190 494 q 1050 110 1190 277 q 794 348 892 187 q 696 704 696 509 l 696 1080 q 947 974 834 1057 q 1125 765 1061 891 q 1190 494 1190 639 "},"":{"x_min":49.609375,"x_max":1190.578125,"ha":1191,"o":"m 1190 496 l 1190 396 q 1165 326 1190 355 q 1099 297 1140 297 l 554 297 l 781 69 q 810 0 810 41 q 781 -69 810 -41 l 723 -128 q 653 -157 694 -157 q 582 -128 613 -157 l 78 376 q 49 446 49 405 q 78 517 49 486 l 582 1020 q 653 1050 612 1050 q 723 1020 693 1050 l 781 963 q 810 892 810 934 q 781 822 810 851 l 554 595 l 1099 595 q 1165 566 1140 595 q 1190 496 1190 537 "},"":{"x_min":0,"x_max":1190.578125,"ha":1191,"o":"m 878 357 q 772 206 850 263 q 595 148 693 148 q 418 206 496 148 q 311 357 340 263 q 314 394 305 376 q 344 419 324 413 q 381 416 363 425 q 406 386 399 406 q 477 286 425 324 q 595 248 530 248 q 712 286 660 248 q 784 386 765 324 q 809 416 790 406 q 847 419 827 425 q 875 394 866 413 q 878 357 885 376 m 467 764 q 496 694 496 735 q 467 624 496 653 q 396 595 437 595 q 326 624 355 595 q 297 694 297 653 q 326 764 297 735 q 396 793 355 793 q 467 764 437 793 m 863 764 q 892 694 892 735 q 863 624 892 653 q 793 595 834 595 q 723 624 752 595 q 694 694 694 653 q 723 764 694 735 q 793 793 752 793 q 863 764 834 793 m 1051 303 q 1091 496 1091 395 q 1051 688 1091 596 q 946 846 1012 780 q 787 952 879 913 q 595 992 696 992 q 402 952 494 992 q 244 846 310 913 q 138 688 178 780 q 99 496 99 596 q 138 303 99 395 q 244 145 178 211 q 402 39 310 79 q 595 0 494 0 q 787 39 696 0 q 946 145 879 79 q 1051 303 1012 211 m 1110 794 q 1190 496 1190 658 q 1110 197 1190 334 q 894 -19 1030 60 q 595 -99 757 -99 q 296 -19 433 -99 q 79 197 159 60 q 0 496 0 334 q 79 794 0 658 q 296 1011 159 931 q 595 1091 433 1091 q 894 1011 757 1091 q 1110 794 1030 931 "},"":{"x_min":0,"x_max":1190.578125,"ha":1191,"o":"m 995 621 q 981 657 995 643 l 910 727 q 875 741 896 741 q 841 727 855 741 l 524 411 l 349 586 q 314 601 334 601 q 279 586 294 601 l 209 517 q 195 481 195 503 q 209 446 195 460 l 489 165 q 524 151 504 151 q 560 165 545 151 l 981 586 q 995 621 995 600 m 1110 794 q 1190 496 1190 658 q 1110 197 1190 334 q 894 -19 1030 60 q 595 -99 757 -99 q 296 -19 433 -99 q 79 197 159 60 q 0 496 0 334 q 79 794 0 658 q 296 1011 159 931 q 595 1091 433 1091 q 894 1011 757 1091 q 1110 794 1030 931 "},"":{"x_min":0,"x_max":1190.578125,"ha":1191,"o":"m 525 -44 q 517 -99 525 -73 l 223 -99 q 90 -55 149 -99 q 10 58 31 -11 q 63 118 28 93 q 141 157 98 144 q 224 175 183 170 q 306 181 264 181 q 344 179 331 181 q 368 163 349 176 q 394 145 387 150 q 418 127 400 141 q 442 108 435 114 q 464 88 450 101 q 484 65 478 75 q 501 41 491 55 q 514 15 510 27 q 522 -12 518 2 q 525 -44 525 -27 m 298 227 q 0 162 117 222 l 0 497 q 211 406 79 406 q 265 410 236 406 q 249 343 249 362 q 298 227 249 291 m 432 623 q 398 499 432 546 q 289 452 365 452 q 214 472 250 452 q 154 525 179 492 q 110 597 129 557 q 83 678 92 637 q 74 754 74 718 q 114 882 74 829 q 226 936 154 936 q 318 904 277 936 q 383 823 359 872 q 420 723 407 775 q 432 623 432 671 m 1190 694 l 1190 124 q 1125 -33 1190 31 q 967 -99 1059 -99 l 604 -99 q 634 22 634 -42 q 617 117 634 73 q 574 189 600 161 q 518 244 548 217 q 463 290 489 271 q 420 332 437 310 q 403 379 403 355 q 420 431 403 406 q 464 479 438 456 q 515 529 489 502 q 558 601 540 556 q 575 703 575 646 q 555 815 575 759 q 496 907 534 872 q 486 916 492 912 q 476 922 479 920 q 468 929 472 923 q 460 942 464 934 l 565 942 l 669 992 l 330 992 q 141 962 224 992 q 0 858 58 932 q 62 1023 0 956 q 223 1091 125 1091 l 967 1091 q 1125 1025 1059 1091 q 1190 868 1190 960 l 1190 793 l 992 793 l 992 992 l 892 992 l 892 793 l 694 793 l 694 694 l 892 694 l 892 496 l 992 496 l 992 694 l 1190 694 "},"":{"x_min":0,"x_max":1089.8125,"ha":1091,"o":"m 719 104 l 719 -12 l 171 -13 l 171 103 l 719 104 m 906 372 l 906 -170 l 905 -197 l 905 -198 l 27 -198 l 0 -197 l 0 -197 l 0 372 l 93 372 l 93 -106 l 813 -106 l 813 372 l 906 372 m 186 304 l 732 254 l 722 137 l 175 188 l 186 304 m 239 549 l 768 407 l 738 294 l 209 436 l 239 549 m 365 820 l 837 541 l 778 440 l 306 719 l 365 820 m 644 1076 l 953 623 l 857 557 l 548 1009 l 644 1076 m 996 1190 l 1089 650 l 974 630 l 880 1170 l 996 1190 "},"":{"x_min":0,"x_max":1190.578125,"ha":1191,"o":"m 992 148 l 992 843 q 977 878 992 863 q 942 892 962 892 l 843 892 q 808 878 823 892 q 793 843 793 863 l 793 595 l 396 595 l 396 843 q 382 878 396 863 q 347 892 367 892 l 248 892 q 213 878 227 892 q 198 843 198 863 l 198 148 q 213 113 198 128 q 248 99 227 99 l 347 99 q 382 113 367 99 q 396 148 396 128 l 396 396 l 793 396 l 793 148 q 808 113 793 128 q 843 99 823 99 l 942 99 q 977 113 962 99 q 992 148 992 128 m 1190 868 l 1190 124 q 1125 -33 1190 31 q 967 -99 1059 -99 l 223 -99 q 65 -33 131 -99 q 0 124 0 31 l 0 868 q 65 1025 0 960 q 223 1091 131 1091 l 967 1091 q 1125 1025 1059 1091 q 1190 868 1190 960 "},"":{"x_min":0,"x_max":1190.578125,"ha":1191,"o":"m 577 389 q 585 372 585 382 q 577 354 585 361 l 320 96 l 431 -14 q 446 -49 446 -29 q 431 -84 446 -69 q 396 -99 417 -99 l 49 -99 q 14 -84 29 -99 q 0 -49 0 -69 l 0 297 q 14 332 0 317 q 49 347 29 347 q 84 332 69 347 l 196 220 l 453 478 q 471 486 461 486 q 489 478 481 486 l 577 389 m 1190 1041 l 1190 694 q 1175 659 1190 674 q 1140 644 1161 644 q 1106 659 1120 644 l 994 771 l 737 513 q 719 506 729 506 q 701 513 709 506 l 613 602 q 605 620 605 610 q 613 637 605 630 l 870 895 l 758 1006 q 744 1041 744 1021 q 758 1076 744 1061 q 793 1091 773 1091 l 1140 1091 q 1175 1076 1161 1091 q 1190 1041 1190 1061 "},"":{"x_min":0,"x_max":1091.359375,"ha":1091,"o":"m 297 620 l 297 471 q 275 418 297 440 q 223 396 254 396 l 74 396 q 21 418 43 396 q 0 471 0 440 l 0 620 q 21 672 0 651 q 74 694 43 694 l 223 694 q 275 672 254 694 q 297 620 297 651 m 694 620 l 694 471 q 672 418 694 440 q 620 396 651 396 l 471 396 q 418 418 440 396 q 396 471 396 440 l 396 620 q 418 672 396 651 q 471 694 440 694 l 620 694 q 672 672 651 694 q 694 620 694 651 m 1091 620 l 1091 471 q 1069 418 1091 440 q 1016 396 1047 396 l 868 396 q 815 418 837 396 q 793 471 793 440 l 793 620 q 815 672 793 651 q 868 694 837 694 l 1016 694 q 1069 672 1047 694 q 1091 620 1091 651 "},"":{"x_min":0,"x_max":1190.578125,"ha":1191,"o":"m 296 1011 q 595 1091 433 1091 q 894 1011 757 1091 q 1110 794 1030 931 q 1190 496 1190 658 q 1110 197 1190 334 q 894 -19 1030 60 q 595 -99 757 -99 q 296 -19 433 -99 q 79 197 159 60 q 0 496 0 334 q 79 794 0 658 q 296 1011 159 931 m 892 453 q 917 496 917 467 q 892 538 917 524 l 471 786 q 421 787 447 801 q 396 744 396 772 l 396 248 q 421 204 396 219 q 446 198 434 198 q 471 205 459 198 l 892 453 "},"":{"x_min":0,"x_max":1190.578125,"ha":1191,"o":"m 778 337 l 1051 610 q 1066 644 1066 624 q 1051 679 1066 665 l 778 952 q 725 963 755 976 q 694 917 694 950 l 694 793 q 527 778 602 793 q 401 739 451 763 q 312 677 350 714 q 253 603 275 641 q 218 519 231 566 q 202 432 206 472 q 198 347 198 393 q 327 34 198 206 q 347 24 335 24 q 357 27 352 24 q 372 52 374 34 q 420 419 337 327 q 520 477 455 459 q 694 496 585 496 l 694 372 q 725 326 694 339 q 744 322 734 322 q 778 337 764 322 m 1190 868 l 1190 124 q 1125 -33 1190 31 q 967 -99 1059 -99 l 223 -99 q 65 -33 131 -99 q 0 124 0 31 l 0 868 q 65 1025 0 960 q 223 1091 131 1091 l 967 1091 q 1125 1025 1059 1091 q 1190 868 1190 960 "},"":{"x_min":0,"x_max":793.71875,"ha":794,"o":"m 778 382 q 793 347 793 367 q 778 312 793 327 l 431 -34 q 396 -49 417 -49 q 361 -34 376 -49 l 14 312 q 0 347 0 327 q 14 382 0 367 q 49 396 29 396 l 744 396 q 778 382 764 396 m 778 679 q 793 644 793 665 q 778 610 793 624 q 744 595 764 595 l 49 595 q 14 610 29 595 q 0 644 0 624 q 14 679 0 665 l 361 1027 q 396 1041 376 1041 q 431 1027 417 1041 l 778 679 "},"":{"x_min":41.078125,"x_max":802.234375,"ha":893,"o":"m 575 -28 l 69 475 q 41 546 41 504 q 69 616 41 587 l 575 1120 q 645 1149 603 1149 q 715 1120 686 1149 l 773 1062 q 802 992 802 1034 q 773 922 802 951 l 396 545 l 773 169 q 802 99 802 140 q 773 29 802 58 l 715 -28 q 645 -57 686 -57 q 575 -28 603 -57 "},"":{"x_min":0,"x_max":1190.578125,"ha":1191,"o":"m 735 636 q 793 496 793 578 q 735 355 793 413 q 595 297 677 297 q 454 355 513 297 q 396 496 396 413 q 454 636 396 578 q 595 694 513 694 q 735 636 677 694 m 806 861 q 595 917 710 917 q 383 861 480 917 q 230 707 286 804 q 173 496 173 610 q 230 284 173 381 q 383 130 286 187 q 595 74 480 74 q 806 130 710 74 q 960 284 903 187 q 1016 496 1016 381 q 960 707 1016 610 q 806 861 903 804 m 1110 794 q 1190 496 1190 658 q 1110 197 1190 334 q 894 -19 1030 60 q 595 -99 757 -99 q 296 -19 433 -99 q 79 197 159 60 q 0 496 0 334 q 79 794 0 658 q 296 1011 159 931 q 595 1091 433 1091 q 894 1011 757 1091 q 1110 794 1030 931 "},"":{"x_min":0,"x_max":1174.296875,"ha":1191,"o":"m 281 0 l 351 70 l 169 252 l 99 182 l 99 99 l 198 99 l 198 0 l 281 0 m 686 719 q 669 736 686 736 q 656 730 661 736 l 236 310 q 230 297 230 305 q 248 280 230 280 q 261 286 255 280 l 681 706 q 686 719 686 711 m 644 868 l 967 545 l 322 -99 l 0 -99 l 0 223 l 644 868 m 1174 793 q 1145 723 1174 752 l 1016 595 l 694 917 l 823 1045 q 892 1075 851 1075 q 963 1045 934 1075 l 1145 864 q 1174 793 1174 834 "},"":{"x_min":49.609375,"x_max":1389,"ha":1389,"o":"m 248 992 q 198 906 248 936 l 198 -74 q 191 -91 198 -84 q 173 -99 183 -99 l 124 -99 q 106 -91 113 -99 q 99 -74 99 -84 l 99 906 q 49 992 49 936 q 78 1062 49 1033 q 148 1091 107 1091 q 218 1062 189 1091 q 248 992 248 1033 m 1389 942 l 1389 351 q 1379 321 1389 331 q 1348 299 1369 310 q 1062 210 1182 210 q 966 227 1015 210 q 882 264 918 244 q 793 301 847 284 q 682 318 739 318 q 323 205 534 318 q 297 198 310 198 q 262 213 277 198 q 248 248 248 227 l 248 823 q 272 865 248 847 q 333 899 288 876 q 659 992 516 992 q 814 969 742 992 q 984 901 886 947 q 1052 886 1013 886 q 1143 903 1094 886 q 1228 939 1192 919 q 1297 975 1264 959 q 1339 992 1329 992 q 1374 977 1359 992 q 1389 942 1389 962 "},"":{"x_min":0,"x_max":1289.78125,"ha":1290,"o":"m 467 70 q 496 0 496 41 q 467 -70 496 -41 q 396 -99 437 -99 q 326 -70 355 -99 q 297 0 297 -41 q 326 70 297 41 q 396 99 355 99 q 467 70 437 99 m 1161 70 q 1190 0 1190 41 q 1161 -70 1190 -41 q 1091 -99 1132 -99 q 1021 -70 1050 -99 q 992 0 992 -41 q 1021 70 992 41 q 1091 99 1050 99 q 1161 70 1132 99 m 1289 843 l 1289 446 q 1277 413 1289 427 q 1245 396 1264 399 l 436 302 q 439 285 437 296 q 444 265 442 274 q 446 248 446 255 q 427 198 446 235 l 1140 198 q 1175 183 1161 198 q 1190 148 1190 168 q 1175 113 1190 128 q 1140 99 1161 99 l 347 99 q 312 113 327 99 q 297 148 297 128 q 306 179 297 159 q 329 225 314 199 q 344 255 343 251 l 207 892 l 49 892 q 14 907 29 892 q 0 942 0 922 q 14 977 0 962 q 49 992 29 992 l 248 992 q 270 987 260 992 q 285 975 279 982 q 295 956 291 968 q 301 935 299 944 q 305 912 303 927 q 309 892 308 898 l 1240 892 q 1275 878 1260 892 q 1289 843 1289 863 "},"":{"x_min":59.6875,"x_max":833.25,"ha":893,"o":"m 825 538 q 833 520 833 530 q 825 503 833 510 l 464 141 q 446 134 456 134 q 428 141 436 134 l 67 503 q 59 520 59 510 q 67 538 59 530 l 106 577 q 124 585 113 585 q 141 577 134 585 l 446 272 l 751 577 q 768 585 758 585 q 786 577 778 585 l 825 538 m 825 836 q 833 818 833 828 q 825 800 833 808 l 464 439 q 446 431 456 431 q 428 439 436 431 l 67 800 q 59 818 59 808 q 67 836 59 828 l 106 875 q 124 882 113 882 q 141 875 134 882 l 446 570 l 751 875 q 768 882 758 882 q 786 875 778 882 l 825 836 "},"":{"x_min":-0.015625,"x_max":1091.359375,"ha":1091,"o":"m 382 1006 q 396 1041 396 1021 q 382 1076 396 1061 q 347 1091 367 1091 q 312 1076 327 1091 q 297 1041 297 1061 q 312 1006 297 1021 q 347 992 327 992 q 382 1006 367 992 m 1091 1066 l 1091 818 q 1082 799 1091 806 q 1066 793 1075 793 q 1061 794 1063 793 l 713 868 q 699 877 705 870 q 694 892 694 884 l 496 892 l 496 813 q 638 727 582 796 q 694 570 694 659 l 694 -49 q 679 -84 694 -69 q 644 -99 665 -99 l 248 -99 q 213 -84 227 -99 q 198 -49 198 -69 l 198 570 q 246 718 198 652 q 372 806 295 783 l 372 892 l 347 892 q 258 874 301 892 q 187 833 214 856 q 136 782 159 810 q 104 740 112 753 q 93 721 96 727 q 49 694 80 694 q 27 699 37 694 q 2 728 9 709 q 5 766 -3 747 q 16 786 9 774 q 45 828 24 799 q 92 882 67 857 q 158 934 117 907 q 242 975 199 961 q 223 1041 223 1007 q 259 1129 223 1092 q 347 1165 296 1165 q 434 1129 398 1165 q 471 1041 471 1092 q 460 992 471 1016 l 694 992 q 699 1007 694 1000 q 713 1016 705 1014 l 1061 1090 q 1066 1091 1063 1091 q 1082 1085 1075 1091 q 1091 1066 1091 1078 "},"":{"x_min":0,"x_max":0,"ha":1389},"":{"x_min":0,"x_max":1488.21875,"ha":1488,"o":"m 322 198 q 234 234 271 198 q 198 322 198 271 l 198 868 q 234 955 198 919 q 322 992 271 992 l 1165 992 q 1253 955 1216 992 q 1289 868 1289 919 l 1289 322 q 1253 234 1289 271 q 1165 198 1216 198 l 322 198 m 297 868 l 297 322 q 305 305 297 312 q 322 297 312 297 l 1165 297 q 1183 305 1175 297 q 1190 322 1190 312 l 1190 868 q 1183 885 1190 878 q 1165 892 1175 892 l 322 892 q 305 885 312 892 q 297 868 297 878 m 1364 148 l 1488 148 l 1488 74 q 1451 21 1488 43 q 1364 0 1415 0 l 124 0 q 36 21 72 0 q 0 74 0 43 l 0 148 l 124 148 l 1364 148 m 806 74 q 818 86 818 74 q 806 99 818 99 l 682 99 q 669 86 669 99 q 682 74 669 74 l 806 74 "},"":{"x_min":0,"x_max":1488.21875,"ha":1488,"o":"m 1488 297 q 1401 87 1488 174 q 1190 0 1313 0 l 347 0 q 101 101 203 0 q 0 347 0 203 q 55 534 0 449 q 199 661 110 619 q 198 694 198 682 q 314 975 198 858 q 595 1091 430 1091 q 817 1023 717 1091 q 962 844 916 954 q 1091 892 1016 892 q 1231 834 1173 892 q 1289 694 1289 776 q 1258 587 1289 636 q 1423 483 1358 564 q 1488 297 1488 402 "},"":{"x_min":0,"x_max":1488.21875,"ha":1488,"o":"m 992 24 q 984 7 992 14 q 967 0 977 0 l 223 0 q 212 1 217 0 q 205 6 208 3 q 201 13 203 10 q 199 22 199 15 q 198 31 198 28 q 198 41 198 33 q 198 49 198 48 l 198 173 l 198 496 l 49 496 q 14 510 29 496 q 0 545 0 525 q 11 577 0 564 l 259 875 q 297 892 274 892 q 335 875 320 892 l 583 577 q 595 545 595 564 q 580 510 595 525 q 545 496 565 496 l 396 496 l 396 198 l 843 198 q 862 189 855 198 l 986 41 q 992 24 992 32 m 1488 347 q 1476 315 1488 328 l 1228 17 q 1190 0 1213 0 q 1152 17 1168 0 l 904 315 q 892 347 892 328 q 907 382 892 367 q 942 396 922 396 l 1091 396 l 1091 694 l 644 694 q 625 703 632 694 l 501 852 q 496 868 496 859 q 503 885 496 878 q 520 892 510 892 l 1264 892 q 1275 891 1271 892 q 1282 885 1279 889 q 1286 879 1285 882 q 1289 870 1288 877 q 1289 861 1289 864 q 1289 851 1289 859 q 1289 843 1289 844 l 1289 719 l 1289 396 l 1438 396 q 1473 382 1458 396 q 1488 347 1488 367 "},"":{"x_min":0,"x_max":1289.78125,"ha":1290,"o":"m 297 0 l 992 0 l 992 198 l 297 198 l 297 0 m 297 496 l 992 496 l 992 793 l 868 793 q 815 815 837 793 q 793 868 793 837 l 793 992 l 297 992 l 297 496 m 1175 411 q 1190 446 1190 426 q 1175 481 1190 466 q 1140 496 1161 496 q 1106 481 1120 496 q 1091 446 1091 466 q 1106 411 1091 426 q 1140 396 1120 396 q 1175 411 1161 396 m 1289 446 l 1289 124 q 1282 106 1289 113 q 1264 99 1275 99 l 1091 99 l 1091 -24 q 1069 -77 1091 -55 q 1016 -99 1047 -99 l 272 -99 q 220 -77 241 -99 q 198 -24 198 -55 l 198 99 l 24 99 q 7 106 14 99 q 0 124 0 113 l 0 446 q 43 551 0 507 q 148 595 87 595 l 198 595 l 198 1016 q 220 1069 198 1047 q 272 1091 241 1091 l 793 1091 q 861 1075 824 1091 q 920 1038 899 1060 l 1038 920 q 1075 861 1060 899 q 1091 793 1091 824 l 1091 595 l 1140 595 q 1245 551 1202 595 q 1289 446 1289 507 "},"":{"x_min":0,"x_max":1240.171875,"ha":1290,"o":"m 198 744 q 183 709 198 723 q 148 694 168 694 q 113 709 127 694 q 99 744 99 723 q 113 779 99 765 q 148 793 127 793 q 183 779 168 793 q 198 744 198 765 m 322 347 l 322 843 q 307 878 322 863 q 272 892 293 892 l 49 892 q 14 878 29 892 q 0 843 0 863 l 0 347 q 14 312 0 327 q 49 297 29 297 l 272 297 q 307 312 293 297 q 322 347 322 327 m 1197 462 q 1240 347 1240 415 q 1195 242 1239 286 q 1091 198 1151 198 l 876 198 q 882 179 879 187 q 891 162 885 172 q 899 148 896 153 q 920 104 913 120 q 934 59 927 89 q 942 0 942 29 q 942 -30 942 -18 q 938 -65 941 -41 q 928 -103 934 -88 q 910 -138 923 -119 q 879 -170 897 -158 q 832 -190 861 -182 q 768 -198 804 -198 q 734 -183 748 -198 q 707 -144 718 -168 q 692 -104 696 -121 q 682 -57 688 -87 q 672 -10 675 -24 q 658 27 668 3 q 634 64 648 50 q 556 157 609 89 q 478 251 518 206 q 419 296 437 295 q 386 312 399 298 q 372 346 372 327 l 372 843 q 386 877 372 863 q 421 892 401 892 q 544 927 448 893 q 637 957 603 947 q 731 980 671 968 q 843 992 792 992 l 856 992 l 915 992 l 943 992 q 1096 931 1046 990 q 1133 791 1140 878 q 1175 718 1164 762 q 1175 627 1189 671 q 1209 521 1211 580 q 1197 462 1209 496 "},"":{"x_min":0,"x_max":1190.578125,"ha":1191,"o":"m 1091 446 q 1066 588 1091 511 q 1016 738 1041 665 q 992 868 992 812 l 992 892 l 496 892 l 496 868 q 486 815 496 841 q 458 767 477 790 q 422 728 438 744 q 380 690 406 713 q 369 681 373 684 q 257 594 306 625 q 204 565 240 583 q 187 556 202 564 q 159 542 172 549 q 131 527 146 535 q 108 510 117 518 q 99 496 99 502 q 122 406 99 441 q 198 372 146 372 q 263 383 231 372 q 316 409 296 395 q 359 434 337 423 q 396 446 381 446 l 396 0 q 426 -68 396 -38 q 496 -99 456 -99 q 565 -69 536 -99 q 595 0 595 -40 l 595 256 q 675 229 630 229 q 767 270 728 229 q 820 256 792 256 q 877 270 849 256 q 918 306 906 283 q 961 303 937 303 q 1059 341 1027 303 q 1091 446 1091 379 m 977 1006 q 992 1041 992 1021 q 977 1076 992 1061 q 942 1091 962 1091 q 907 1076 922 1091 q 892 1041 892 1061 q 907 1006 892 1021 q 942 992 922 992 q 977 1006 962 992 m 1190 449 q 1130 271 1190 339 q 961 203 1070 203 l 958 204 q 820 157 899 157 q 786 159 803 157 q 694 131 744 136 l 694 0 q 635 -139 694 -81 q 495 -198 576 -198 q 356 -139 415 -198 q 297 0 297 -80 l 297 289 q 198 272 255 272 q 52 336 104 272 q 0 496 0 399 q 13 549 0 525 q 51 592 27 574 q 100 623 76 610 q 156 652 124 637 q 204 678 188 668 q 304 755 247 705 q 317 766 306 757 q 334 781 328 775 q 351 797 340 786 q 368 815 361 807 q 382 833 375 823 q 393 851 389 842 q 396 868 396 860 l 396 1091 q 425 1161 396 1132 q 496 1190 454 1190 l 992 1190 q 1062 1161 1033 1190 q 1091 1091 1091 1132 l 1091 868 q 1137 695 1091 822 q 1190 449 1190 548 "},"":{"x_min":0,"x_max":1488.21875,"ha":1488,"o":"m 636 355 q 694 496 694 413 q 636 636 694 578 q 496 694 578 694 q 355 636 413 694 q 297 496 297 578 q 355 355 297 413 q 496 297 413 297 q 636 355 578 297 m 1289 99 q 1260 168 1289 139 q 1190 198 1230 198 q 1120 168 1150 198 q 1091 99 1091 139 q 1120 29 1091 58 q 1190 0 1149 0 q 1260 29 1231 0 q 1289 99 1289 58 m 1289 892 q 1260 962 1289 933 q 1190 992 1230 992 q 1120 962 1150 992 q 1091 892 1091 933 q 1120 822 1091 851 q 1190 793 1149 793 q 1260 822 1231 793 q 1289 892 1289 851 m 992 566 l 992 423 q 986 408 992 415 q 974 399 981 400 l 854 381 q 829 322 845 354 q 899 233 855 285 q 904 217 904 225 q 899 203 904 208 q 835 133 881 179 q 774 87 789 87 q 758 93 765 87 l 668 162 q 609 138 640 148 q 591 18 600 55 q 568 0 585 0 l 423 0 q 408 5 415 0 q 400 19 401 11 l 382 137 q 324 162 356 145 l 233 93 q 217 87 227 87 q 201 93 209 87 q 89 217 89 196 q 95 232 89 224 q 127 273 103 243 q 163 320 151 303 q 136 384 145 355 l 18 403 q 5 410 10 403 q 0 425 0 417 l 0 568 q 5 584 0 576 q 17 592 10 591 l 137 610 q 162 669 146 637 q 93 758 136 706 q 87 774 87 767 q 93 789 87 783 q 156 858 110 813 q 217 904 203 904 q 234 899 226 904 l 323 829 q 382 854 349 843 q 400 973 391 937 q 423 992 406 992 l 568 992 q 583 986 576 992 q 591 972 590 980 l 609 854 q 667 830 635 846 l 758 899 q 774 904 765 904 q 790 898 782 904 q 902 774 902 795 q 896 759 902 767 q 864 717 887 747 q 829 671 841 688 q 855 607 847 634 l 973 589 q 986 581 981 588 q 992 566 992 575 m 1488 153 l 1488 44 q 1372 20 1488 32 q 1349 -19 1363 0 q 1389 -126 1389 -106 q 1385 -131 1389 -129 q 1289 -186 1291 -186 q 1254 -150 1283 -186 q 1213 -97 1224 -113 q 1190 -99 1198 -99 q 1167 -97 1182 -99 q 1127 -150 1156 -113 q 1091 -186 1097 -186 q 995 -131 1089 -186 q 992 -126 992 -129 q 1031 -19 992 -106 q 1008 20 1017 0 q 892 44 892 32 l 892 153 q 1008 177 892 165 q 1031 217 1018 199 q 992 324 992 305 q 995 330 992 327 q 1022 345 998 331 q 1068 372 1046 359 q 1091 384 1089 384 q 1127 348 1097 384 q 1167 296 1156 312 q 1190 297 1182 297 q 1213 296 1198 297 q 1285 382 1253 351 l 1289 384 q 1385 330 1292 384 q 1389 324 1389 327 q 1349 217 1389 305 q 1372 177 1362 199 q 1488 153 1488 165 m 1488 947 l 1488 838 q 1372 814 1488 826 q 1349 774 1363 793 q 1389 667 1389 686 q 1385 661 1389 664 q 1289 606 1291 606 q 1254 643 1283 606 q 1213 696 1224 679 q 1190 694 1198 694 q 1167 696 1182 694 q 1127 643 1156 679 q 1091 606 1097 606 q 995 661 1089 606 q 992 667 992 664 q 1031 774 992 686 q 1008 814 1017 793 q 892 838 892 826 l 892 947 q 1008 971 892 959 q 1031 1011 1018 993 q 992 1118 992 1099 q 995 1123 992 1121 q 1022 1139 998 1125 q 1068 1165 1046 1153 q 1091 1178 1089 1178 q 1127 1142 1097 1178 q 1167 1089 1156 1106 q 1190 1091 1182 1091 q 1213 1089 1198 1091 q 1285 1176 1253 1144 l 1289 1178 q 1385 1123 1292 1178 q 1389 1118 1389 1121 q 1349 1011 1389 1099 q 1372 971 1362 993 q 1488 947 1488 959 "},"":{"x_min":0,"x_max":1389,"ha":1389,"o":"m 595 -99 l 1289 -99 l 1289 396 l 967 396 q 914 418 936 396 q 892 471 892 440 l 892 793 l 595 793 l 595 -99 m 793 1016 l 793 1066 q 786 1083 793 1076 q 768 1091 778 1091 l 223 1091 q 205 1083 213 1091 q 198 1066 198 1076 l 198 1016 q 205 999 198 1006 q 223 992 213 992 l 768 992 q 786 999 778 992 q 793 1016 793 1006 m 992 496 l 1223 496 l 992 727 l 992 496 m 1389 396 l 1389 -124 q 1367 -176 1389 -155 q 1314 -198 1345 -198 l 570 -198 q 517 -176 539 -198 q 496 -124 496 -155 l 496 0 l 74 0 q 21 21 43 0 q 0 74 0 43 l 0 1116 q 21 1168 0 1147 q 74 1190 43 1190 l 917 1190 q 970 1168 948 1190 q 992 1116 992 1147 l 992 861 q 1020 840 1008 851 l 1336 523 q 1373 465 1358 502 q 1389 396 1389 427 "},"":{"x_min":0,"x_max":1190.578125,"ha":1191,"o":"m 878 237 q 875 200 885 218 q 847 175 866 182 q 809 179 827 169 q 784 208 790 188 q 712 308 765 270 q 595 347 660 347 q 477 308 530 347 q 406 208 425 270 q 381 179 399 188 q 344 175 363 169 q 314 200 324 182 q 311 237 305 218 q 418 389 340 331 q 595 446 496 446 q 772 389 693 446 q 878 237 850 331 m 467 764 q 496 694 496 735 q 467 624 496 653 q 396 595 437 595 q 326 624 355 595 q 297 694 297 653 q 326 764 297 735 q 396 793 355 793 q 467 764 437 793 m 863 764 q 892 694 892 735 q 863 624 892 653 q 793 595 834 595 q 723 624 752 595 q 694 694 694 653 q 723 764 694 735 q 793 793 752 793 q 863 764 834 793 m 1051 303 q 1091 496 1091 395 q 1051 688 1091 596 q 946 846 1012 780 q 787 952 879 913 q 595 992 696 992 q 402 952 494 992 q 244 846 310 913 q 138 688 178 780 q 99 496 99 596 q 138 303 99 395 q 244 145 178 211 q 402 39 310 79 q 595 0 494 0 q 787 39 696 0 q 946 145 879 79 q 1051 303 1012 211 m 1110 794 q 1190 496 1190 658 q 1110 197 1190 334 q 894 -19 1030 60 q 595 -99 757 -99 q 296 -19 433 -99 q 79 197 159 60 q 0 496 0 334 q 79 794 0 658 q 296 1011 159 931 q 595 1091 433 1091 q 894 1011 757 1091 q 1110 794 1030 931 "},"":{"x_min":0,"x_max":1190.578125,"ha":1191,"o":"m 992 265 q 990 278 992 274 q 960 301 988 284 q 892 339 933 317 l 851 361 q 836 372 847 364 q 816 383 825 379 q 800 387 808 387 q 764 362 786 387 q 720 311 741 337 q 685 286 698 286 q 673 288 680 286 q 661 293 665 291 q 647 301 656 296 q 637 307 639 306 q 504 405 560 350 q 406 537 449 461 q 400 548 405 540 q 392 561 395 557 q 387 573 390 566 q 385 586 385 581 q 401 612 385 596 q 436 642 417 628 q 470 673 454 656 q 486 701 486 689 q 482 717 486 709 q 471 737 479 726 q 461 751 463 747 q 449 773 458 756 q 430 809 440 791 q 409 846 420 827 q 390 877 399 865 q 377 891 381 889 q 365 892 373 892 q 286 875 327 892 q 224 802 251 859 q 198 701 198 745 q 200 675 198 689 q 204 651 202 661 q 211 625 206 641 q 218 603 216 610 q 228 577 221 596 q 237 554 235 558 q 404 305 283 427 q 653 137 526 184 q 676 129 658 136 q 702 119 695 122 q 725 112 709 117 q 750 105 741 106 q 774 101 760 103 q 800 99 788 99 q 901 125 844 99 q 975 187 958 151 q 992 265 992 228 m 1190 868 l 1190 124 q 1125 -33 1190 31 q 967 -99 1059 -99 l 223 -99 q 65 -33 131 -99 q 0 124 0 31 l 0 868 q 65 1025 0 960 q 223 1091 131 1091 l 967 1091 q 1125 1025 1059 1091 q 1190 868 1190 960 "},"©":{"x_min":0,"x_max":0,"ha":1389},"":{"x_min":0,"x_max":1190.578125,"ha":1191,"o":"m 305 142 q 289 144 299 135 q 286 159 279 153 q 302 157 293 166 q 305 142 311 148 m 272 189 q 272 175 279 180 q 259 180 266 170 q 259 194 252 190 q 272 189 266 199 m 225 236 q 215 234 221 230 q 210 244 207 238 q 220 245 212 248 q 225 236 227 241 m 249 210 q 237 212 244 204 q 235 224 230 220 q 248 222 240 229 q 249 210 255 213 m 349 123 q 334 118 346 113 q 324 130 321 121 q 339 135 327 138 q 349 123 351 131 m 398 119 q 386 110 398 110 q 372 119 372 109 q 385 127 372 127 q 398 119 398 129 m 443 127 q 432 116 444 119 q 418 122 420 113 q 429 134 417 131 q 443 127 441 135 m 1190 868 l 1190 124 q 1125 -33 1190 31 q 967 -99 1059 -99 l 793 -99 q 774 -98 781 -99 q 759 -94 768 -97 q 747 -83 751 -91 q 743 -62 743 -75 l 743 123 q 703 233 743 198 q 782 247 747 237 q 855 277 817 256 q 918 329 892 298 q 959 410 943 359 q 975 527 975 461 q 913 686 975 620 q 907 844 942 757 q 844 836 885 851 q 773 802 803 820 l 744 783 q 595 803 672 803 q 446 783 518 803 q 413 804 434 792 q 348 834 392 816 q 282 844 304 851 q 276 686 248 757 q 215 527 215 620 q 231 410 215 461 q 272 329 247 360 q 334 277 296 298 q 407 247 372 256 q 486 233 442 237 q 448 153 455 205 q 413 141 432 145 q 369 137 395 137 q 318 154 344 137 q 275 203 293 171 q 238 243 261 227 q 199 261 215 258 l 184 264 q 162 260 168 264 q 158 251 155 257 q 165 241 160 246 q 175 231 169 235 l 180 227 q 214 198 197 220 q 238 158 230 176 l 246 141 q 280 93 256 111 q 332 70 304 75 q 386 64 360 65 q 429 67 412 64 l 447 70 q 447 -9 447 41 q 448 -62 448 -59 q 439 -87 448 -79 q 422 -98 430 -96 q 396 -99 413 -99 l 223 -99 q 65 -33 131 -99 q 0 124 0 31 l 0 868 q 65 1025 0 960 q 223 1091 131 1091 l 967 1091 q 1125 1025 1059 1091 q 1190 868 1190 960 "},"":{"x_min":0,"x_max":1190.578125,"ha":1191,"o":"m 530 597 q 433 769 530 598 q 392 796 417 796 l 250 796 q 230 787 236 796 q 230 765 224 778 l 327 597 l 327 596 l 175 328 q 175 306 168 317 q 194 296 182 296 l 337 296 q 376 324 361 296 l 530 597 m 1014 982 q 996 992 1009 992 l 851 992 q 813 965 827 992 l 494 399 q 697 27 495 398 q 737 0 713 0 l 880 0 q 899 9 894 0 q 899 31 906 19 l 697 399 l 697 400 l 1014 961 q 1014 982 1020 973 m 1190 868 l 1190 124 q 1125 -33 1190 31 q 967 -99 1059 -99 l 223 -99 q 65 -33 131 -99 q 0 124 0 31 l 0 868 q 65 1025 0 960 q 223 1091 131 1091 l 967 1091 q 1125 1025 1059 1091 q 1190 868 1190 960 "},"":{"x_min":0,"x_max":1488.21875,"ha":1488,"o":"m 1488 446 q 1264 372 1487 421 l 992 347 l 818 297 l 768 297 l 541 24 l 595 24 q 630 21 615 24 q 644 12 644 17 q 630 3 644 6 q 595 0 615 0 l 520 0 l 396 0 l 347 0 l 347 24 l 396 24 l 396 347 l 272 347 l 124 173 l 49 173 l 24 198 l 24 347 l 49 347 l 49 372 l 148 372 l 148 378 l 0 396 l 0 496 l 148 514 l 148 520 l 49 520 l 49 545 l 24 545 l 24 694 l 49 719 l 124 719 l 272 545 l 396 545 l 396 868 l 347 868 l 347 892 l 396 892 l 520 892 l 595 892 q 630 889 615 892 q 644 880 644 885 q 630 871 644 875 q 595 868 615 868 l 541 868 l 768 595 l 818 595 l 992 545 l 1264 520 q 1487 448 1467 475 q 1488 446 1488 446 "},"":{"x_min":0,"x_max":1488.21875,"ha":1488,"o":"m 586 604 q 744 669 651 669 q 901 604 836 669 q 967 446 967 538 q 901 288 967 354 q 744 223 836 223 q 586 288 651 223 q 520 446 520 354 q 586 604 520 538 m 1289 992 q 1430 934 1371 992 q 1488 793 1488 875 l 1488 99 q 1430 -41 1488 17 q 1289 -99 1371 -99 l 198 -99 q 58 -41 116 -99 q 0 99 0 17 l 0 793 q 58 934 0 875 q 198 992 116 992 l 372 992 l 411 1097 q 465 1163 426 1135 q 545 1190 504 1190 l 942 1190 q 1022 1163 983 1190 q 1076 1097 1061 1135 l 1116 992 l 1289 992 m 498 201 q 744 99 600 99 q 989 201 887 99 q 1091 446 1091 303 q 989 691 1091 589 q 744 793 887 793 q 498 691 600 793 q 396 446 396 589 q 498 201 396 303 "}," ":{"x_min":0,"x_max":0,"ha":149},"":{"x_min":0,"x_max":1190.578125,"ha":1191,"o":"m 1055 85 l 1055 587 l 951 587 q 966 486 966 538 q 916 305 966 388 q 782 175 867 223 q 596 127 696 127 q 334 232 443 127 q 226 486 226 337 q 241 587 226 538 l 132 587 l 132 85 q 146 51 132 65 q 179 37 159 37 l 1008 37 q 1041 51 1027 37 q 1055 85 1055 65 m 765 334 q 835 498 835 402 q 765 662 835 594 q 596 730 695 730 q 427 662 497 730 q 357 498 357 594 q 427 334 357 402 q 596 266 497 266 q 765 334 695 266 m 1055 777 l 1055 905 q 1040 942 1055 927 q 1002 958 1024 958 l 867 958 q 829 942 844 958 q 813 905 813 927 l 813 777 q 829 739 813 754 q 867 723 844 723 l 1002 723 q 1040 739 1024 723 q 1055 777 1055 754 m 1190 938 l 1190 53 q 1145 -54 1190 -9 q 1037 -99 1100 -99 l 152 -99 q 44 -54 89 -99 q 0 53 0 -9 l 0 938 q 44 1046 0 1001 q 152 1091 89 1091 l 1037 1091 q 1145 1046 1100 1091 q 1190 938 1190 1001 "},"":{"x_min":0,"x_max":1190.578125,"ha":1191,"o":"m 1190 545 l 1190 446 q 1114 165 1190 290 q 901 -29 1037 41 q 595 -99 765 -99 q 288 -29 424 -99 q 76 165 152 41 q 0 446 0 290 l 0 545 q 14 580 0 565 q 49 595 29 595 l 347 595 q 382 580 367 595 q 396 545 396 565 l 396 446 q 415 376 396 406 q 456 332 433 347 q 511 309 479 317 q 561 299 543 300 q 595 297 579 297 q 629 299 611 297 q 679 309 647 300 q 734 332 710 317 q 775 376 757 347 q 793 446 793 406 l 793 545 q 808 580 793 565 q 843 595 823 595 l 1140 595 q 1175 580 1161 595 q 1190 545 1190 565 m 396 1041 l 396 744 q 382 709 396 723 q 347 694 367 694 l 49 694 q 14 709 29 694 q 0 744 0 723 l 0 1041 q 14 1076 0 1061 q 49 1091 29 1091 l 347 1091 q 382 1076 367 1091 q 396 1041 396 1061 m 1190 1041 l 1190 744 q 1175 709 1190 723 q 1140 694 1161 694 l 843 694 q 808 709 823 694 q 793 744 793 723 l 793 1041 q 808 1076 793 1061 q 843 1091 823 1091 l 1140 1091 q 1175 1076 1161 1091 q 1190 1041 1190 1061 "},"":{"x_min":0,"x_max":1091.359375,"ha":1091,"o":"m 1091 620 l 1091 471 q 1069 418 1091 440 q 1016 396 1047 396 l 694 396 l 694 74 q 672 21 694 43 q 620 0 651 0 l 471 0 q 418 21 440 0 q 396 74 396 43 l 396 396 l 74 396 q 21 418 43 396 q 0 471 0 440 l 0 620 q 21 672 0 651 q 74 694 43 694 l 396 694 l 396 1016 q 418 1069 396 1047 q 471 1091 440 1091 l 620 1091 q 672 1069 651 1091 q 694 1016 694 1047 l 694 694 l 1016 694 q 1069 672 1047 694 q 1091 620 1091 651 "},"":{"x_min":0,"x_max":1091.359375,"ha":1091,"o":"m 297 173 l 297 124 q 290 106 297 113 q 272 99 282 99 l 223 99 q 205 106 213 99 q 198 124 198 113 l 198 173 q 205 191 198 183 q 223 198 213 198 l 272 198 q 290 191 282 198 q 297 173 297 183 m 297 372 l 297 322 q 290 305 297 312 q 272 297 282 297 l 223 297 q 205 305 213 297 q 198 322 198 312 l 198 372 q 205 389 198 382 q 223 396 213 396 l 272 396 q 290 389 282 396 q 297 372 297 382 m 496 372 l 496 322 q 488 305 496 312 q 471 297 481 297 l 421 297 q 404 305 411 297 q 396 322 396 312 l 396 372 q 404 389 396 382 q 421 396 411 396 l 471 396 q 488 389 481 396 q 496 372 496 382 m 297 570 l 297 520 q 290 503 297 510 q 272 496 282 496 l 223 496 q 205 503 213 496 q 198 520 198 510 l 198 570 q 205 587 198 580 q 223 595 213 595 l 272 595 q 290 587 282 595 q 297 570 297 580 m 892 173 l 892 124 q 885 106 892 113 q 868 99 878 99 l 818 99 q 801 106 808 99 q 793 124 793 113 l 793 173 q 801 191 793 183 q 818 198 808 198 l 868 198 q 885 191 878 198 q 892 173 892 183 m 694 372 l 694 322 q 687 305 694 312 q 669 297 679 297 l 620 297 q 602 305 610 297 q 595 322 595 312 l 595 372 q 602 389 595 382 q 620 396 610 396 l 669 396 q 687 389 679 396 q 694 372 694 382 m 496 570 l 496 520 q 488 503 496 510 q 471 496 481 496 l 421 496 q 404 503 411 496 q 396 520 396 510 l 396 570 q 404 587 396 580 q 421 595 411 595 l 471 595 q 488 587 481 595 q 496 570 496 580 m 892 372 l 892 322 q 885 305 892 312 q 868 297 878 297 l 818 297 q 801 305 808 297 q 793 322 793 312 l 793 372 q 801 389 793 382 q 818 396 808 396 l 868 396 q 885 389 878 396 q 892 372 892 382 m 694 570 l 694 520 q 687 503 694 510 q 669 496 679 496 l 620 496 q 602 503 610 496 q 595 520 595 510 l 595 570 q 602 587 595 580 q 620 595 610 595 l 669 595 q 687 587 679 595 q 694 570 694 580 m 892 570 l 892 520 q 885 503 892 510 q 868 496 878 496 l 818 496 q 801 503 808 496 q 793 520 793 510 l 793 570 q 801 587 793 580 q 818 595 808 595 l 868 595 q 885 587 878 595 q 892 570 892 580 m 694 -99 l 992 -99 l 992 793 l 793 793 l 793 768 q 772 716 793 737 q 719 694 750 694 l 372 694 q 319 716 341 694 q 297 768 297 737 l 297 793 l 99 793 l 99 -99 l 396 -99 l 396 74 q 404 91 396 84 q 421 99 411 99 l 669 99 q 687 91 679 99 q 694 74 694 84 l 694 -99 m 694 818 l 694 1066 q 687 1083 694 1076 q 669 1091 679 1091 l 620 1091 q 602 1083 610 1091 q 595 1066 595 1076 l 595 992 l 496 992 l 496 1066 q 488 1083 496 1076 q 471 1091 481 1091 l 421 1091 q 404 1083 411 1091 q 396 1066 396 1076 l 396 818 q 404 801 396 808 q 421 793 411 793 l 471 793 q 488 801 481 793 q 496 818 496 808 l 496 892 l 595 892 l 595 818 q 602 801 595 808 q 620 793 610 793 l 669 793 q 687 801 679 793 q 694 818 694 808 m 1091 843 l 1091 -148 q 1076 -183 1091 -168 q 1041 -198 1061 -198 l 49 -198 q 14 -183 29 -198 q 0 -148 0 -168 l 0 843 q 14 878 0 863 q 49 892 29 892 l 297 892 l 297 1116 q 319 1168 297 1147 q 372 1190 341 1190 l 719 1190 q 772 1168 750 1190 q 793 1116 793 1147 l 793 892 l 1041 892 q 1076 878 1061 892 q 1091 843 1091 863 "},"":{"x_min":0,"x_max":992.140625,"ha":992,"o":"m 758 627 q 808 752 808 675 q 758 878 808 830 q 625 926 707 926 l 377 926 l 377 579 l 625 579 q 758 627 707 579 m 894 996 q 992 752 992 902 q 894 508 992 603 q 641 413 796 413 l 377 413 l 377 322 l 768 322 q 786 315 779 322 q 793 297 793 308 l 793 198 q 786 180 793 187 q 768 173 779 173 l 377 173 l 377 24 q 370 6 377 13 q 352 0 362 0 l 223 0 q 205 6 212 0 q 198 24 198 13 l 198 173 l 24 173 q 6 180 13 173 q 0 198 0 187 l 0 297 q 6 315 0 308 q 24 322 13 322 l 198 322 l 198 413 l 24 413 q 6 420 13 413 q 0 438 0 427 l 0 554 q 6 571 0 564 q 24 579 13 579 l 198 579 l 198 1066 q 205 1084 198 1077 q 223 1091 212 1091 l 641 1091 q 894 996 796 1091 "},"":{"x_min":0,"x_max":1389,"ha":1389,"o":"m 496 892 l 892 892 l 892 992 l 496 992 l 496 892 m 223 892 l 223 -99 l 173 -99 q 51 -48 102 -99 q 0 74 0 3 l 0 719 q 51 841 0 790 q 173 892 102 892 l 223 892 m 1091 892 l 1091 -99 l 297 -99 l 297 892 l 396 892 l 396 1016 q 418 1069 396 1047 q 471 1091 440 1091 l 917 1091 q 970 1069 948 1091 q 992 1016 992 1047 l 992 892 l 1091 892 m 1389 719 l 1389 74 q 1337 -48 1389 3 q 1215 -99 1286 -99 l 1165 -99 l 1165 892 l 1215 892 q 1337 841 1286 892 q 1389 719 1389 790 "},"":{"x_min":49.609375,"x_max":1389,"ha":1389,"o":"m 1289 380 l 1289 858 q 1052 787 1158 787 q 940 812 989 787 q 797 871 862 850 q 659 892 732 892 q 347 794 525 892 l 347 330 q 682 417 537 417 q 763 411 725 417 q 839 391 800 406 q 898 367 877 377 q 962 337 920 358 l 984 326 q 1062 309 1018 309 q 1289 380 1155 309 m 248 992 q 234 942 248 965 q 198 906 220 920 l 198 -74 q 191 -92 198 -85 q 173 -99 184 -99 l 124 -99 q 106 -92 113 -99 q 99 -74 99 -85 l 99 906 q 63 942 76 920 q 49 992 49 965 q 78 1062 49 1033 q 148 1091 107 1091 q 218 1062 189 1091 q 248 992 248 1033 m 1389 942 l 1389 351 q 1361 306 1389 320 q 1348 299 1354 303 q 1062 210 1179 210 q 940 237 994 210 l 918 248 q 841 285 868 273 q 771 307 814 296 q 682 318 727 318 q 500 284 603 318 q 323 205 396 250 q 297 198 311 198 q 272 204 285 198 q 248 248 248 219 l 248 823 q 272 865 248 850 q 332 898 299 882 q 421 939 366 915 q 539 977 475 962 q 659 992 603 992 q 821 968 746 992 q 983 901 896 944 q 1052 886 1013 886 q 1292 973 1147 886 q 1316 986 1309 982 q 1364 985 1340 999 q 1389 942 1389 969 "},"":{"x_min":0,"x_max":1289.78125,"ha":1290,"o":"m 694 548 l 694 99 q 635 -40 694 18 q 496 -99 576 -99 q 356 -40 415 -99 q 297 99 297 18 q 312 134 297 119 q 347 148 327 148 q 382 134 367 148 q 396 99 396 119 q 427 30 396 60 q 496 0 457 0 q 565 30 534 0 q 595 99 595 60 l 595 548 q 644 557 620 557 q 694 548 668 557 m 1289 527 q 1282 510 1289 517 q 1264 503 1275 503 q 1247 510 1256 503 q 1175 564 1209 546 q 1096 582 1140 582 q 996 553 1043 582 q 916 478 950 524 q 903 456 911 470 q 892 437 895 442 q 870 424 883 424 q 847 437 856 424 q 836 456 844 442 q 823 478 828 470 q 743 553 789 524 q 644 582 697 582 q 546 553 592 582 q 466 478 499 524 q 453 456 461 470 q 441 437 444 442 q 419 424 433 424 q 397 437 406 424 q 386 456 394 442 q 372 478 378 470 q 292 553 339 524 q 193 582 246 582 q 114 564 148 582 q 42 510 80 546 q 24 503 33 503 q 7 510 14 503 q 0 527 0 517 q 0 533 0 531 q 134 780 35 675 q 365 939 233 886 q 644 992 497 992 q 857 961 753 992 q 1048 873 961 930 q 1199 728 1135 816 q 1289 533 1263 640 q 1289 527 1289 531 m 694 1091 l 694 1015 q 644 1016 661 1016 q 595 1015 627 1016 l 595 1091 q 610 1126 595 1111 q 644 1140 624 1140 q 679 1126 665 1140 q 694 1091 694 1111 "},"":{"x_min":-0.078125,"x_max":1086.296875,"ha":1091,"o":"m 1066 1066 q 1075 951 1100 1026 q 992 818 1051 877 l 867 693 l 991 154 q 982 128 995 139 l 882 54 q 868 49 877 49 q 862 50 865 49 q 846 62 851 52 l 630 456 l 429 255 l 470 105 q 464 81 474 92 l 389 6 q 372 0 382 0 l 370 0 q 351 10 358 1 l 205 205 l 10 351 q 0 369 1 357 q 6 389 0 379 l 81 464 q 99 471 88 471 q 105 470 103 471 l 255 429 l 456 630 l 62 846 q 49 865 51 852 q 56 885 48 877 l 155 985 q 179 991 166 995 l 694 868 l 818 992 q 951 1075 877 1051 q 1066 1066 1026 1100 "},"":{"x_min":85.265625,"x_max":1006.09375,"ha":1091,"o":"m 984 218 q 1006 165 1006 196 q 984 113 1006 134 l 878 7 q 826 -13 857 -13 q 773 7 795 -13 l 545 235 l 317 7 q 265 -13 296 -13 q 212 7 234 -13 l 106 113 q 85 165 85 134 q 106 218 85 196 l 334 446 l 106 674 q 85 727 85 696 q 106 779 85 758 l 212 885 q 265 906 234 906 q 317 885 296 906 l 545 657 l 773 885 q 826 906 795 906 q 878 885 857 906 l 984 779 q 1006 727 1006 758 q 984 674 1006 696 l 756 446 l 984 218 "},"":{"x_min":0,"x_max":892.921875,"ha":893,"o":"m 892 545 q 819 272 892 397 q 620 73 746 146 q 347 0 495 0 l 223 0 q 205 6 212 0 q 198 24 198 13 l 198 498 l 31 447 q 24 446 29 446 q 10 451 17 446 q 0 471 0 458 l 0 570 q 17 594 0 588 l 198 649 l 198 721 l 31 670 q 24 669 29 669 q 10 674 17 669 q 0 694 0 682 l 0 793 q 17 817 0 811 l 198 872 l 198 1066 q 205 1084 198 1077 q 223 1091 212 1091 l 347 1091 q 365 1084 358 1091 q 372 1066 372 1077 l 372 926 l 662 1016 q 684 1012 674 1020 q 694 992 694 1004 l 694 892 q 676 868 694 875 l 372 775 l 372 703 l 662 792 q 684 789 674 796 q 694 768 694 781 l 694 669 q 676 645 694 651 l 372 551 l 372 174 q 618 291 517 184 q 719 545 719 398 q 726 563 719 556 q 744 570 733 570 l 868 570 q 885 563 878 570 q 892 545 892 556 "},"":{"x_min":0,"x_max":1289.78125,"ha":1290,"o":"m 881 412 l 1118 642 l 791 690 l 644 986 l 498 690 l 171 642 l 408 412 l 351 86 l 644 240 l 937 86 l 881 412 m 1289 689 q 1269 651 1289 672 l 988 377 l 1054 -10 q 1055 -25 1055 -15 q 1023 -64 1055 -64 q 992 -55 1009 -64 l 644 127 l 296 -55 q 265 -64 279 -64 q 241 -53 249 -64 q 233 -25 233 -41 q 234 -10 233 -20 l 301 377 l 19 651 q 0 689 0 672 q 43 724 0 717 l 432 781 l 606 1133 q 644 1165 621 1165 q 682 1133 668 1165 l 857 781 l 1246 724 q 1289 689 1289 717 "},"":{"x_min":0,"x_max":1389,"ha":1389,"o":"m 1389 272 l 1389 124 q 1381 106 1389 113 q 1364 99 1374 99 l 297 99 l 297 -49 q 290 -67 297 -59 q 272 -74 282 -74 q 254 -66 263 -74 l 6 181 q 0 198 0 188 q 6 216 0 209 l 255 464 q 272 471 261 471 q 290 463 282 471 q 297 446 297 456 l 297 297 l 1364 297 q 1381 290 1374 297 q 1389 272 1389 282 m 1382 712 q 1389 694 1389 705 q 1382 676 1389 683 l 1133 428 q 1116 421 1127 421 q 1098 429 1106 421 q 1091 446 1091 436 l 1091 595 l 24 595 q 7 602 14 595 q 0 620 0 610 l 0 768 q 7 786 0 778 q 24 793 14 793 l 1091 793 l 1091 942 q 1098 960 1091 953 q 1116 967 1105 967 q 1134 959 1125 967 l 1382 712 "},"":{"x_min":0,"x_max":1190.578125,"ha":1191,"o":"m 37 1017 q 2 1020 8 1019 l 0 1089 q 31 1089 10 1089 q 117 1086 77 1089 q 246 1081 220 1081 q 376 1083 313 1081 q 489 1087 466 1086 q 556 1089 533 1087 l 555 1078 l 557 1028 l 557 1021 q 461 1014 510 1014 q 399 995 414 1014 q 389 892 389 984 q 390 867 389 882 q 390 847 390 852 l 391 670 l 402 453 q 441 296 406 357 q 516 225 468 251 q 653 189 584 189 q 801 210 734 189 q 878 250 844 224 q 928 299 915 278 q 969 388 956 343 q 985 565 985 444 q 983 665 985 627 q 974 760 980 703 q 964 883 968 816 l 961 929 q 942 997 957 981 q 882 1023 916 1024 l 805 1022 l 794 1024 l 796 1091 l 861 1091 l 1020 1083 q 1171 1091 1078 1081 l 1185 1089 q 1190 1050 1190 1060 q 1187 1026 1190 1044 q 1122 1016 1152 1016 q 1061 1003 1065 1007 q 1049 971 1049 991 q 1050 950 1049 965 q 1051 926 1051 934 q 1068 619 1058 911 q 1057 383 1073 468 q 1025 289 1045 324 q 938 193 996 238 q 797 124 880 149 q 599 99 713 99 q 379 134 470 99 q 241 229 287 171 q 176 380 193 288 q 164 564 164 442 l 164 822 q 151 987 164 968 q 37 1017 131 1015 m 1190 -74 l 1190 -24 q 1183 -6 1190 -13 q 1165 0 1176 0 l 24 0 q 6 -6 13 0 q 0 -24 0 -13 l 0 -74 q 6 -92 0 -85 q 24 -99 13 -99 l 1165 -99 q 1183 -92 1176 -99 q 1190 -74 1190 -85 "},"":{"x_min":0,"x_max":1479.6875,"ha":1488,"o":"m 1380 468 q 1339 496 1380 496 l 496 496 q 429 479 465 496 q 374 438 394 462 l 146 157 q 132 126 132 138 q 173 99 132 99 l 1016 99 q 1083 116 1047 99 q 1138 157 1119 133 l 1366 438 q 1380 468 1380 455 m 496 595 l 1091 595 l 1091 719 q 1069 772 1091 750 q 1016 793 1047 793 l 570 793 q 517 815 539 793 q 496 868 496 837 l 496 917 q 474 970 496 948 q 421 992 452 992 l 173 992 q 120 970 142 992 q 99 917 99 948 l 99 256 l 297 500 q 387 568 331 541 q 496 595 443 595 m 1479 468 q 1444 375 1479 420 l 1215 94 q 1125 26 1182 53 q 1016 0 1068 0 l 173 0 q 51 51 102 0 q 0 173 0 102 l 0 917 q 51 1040 0 989 q 173 1091 102 1091 l 421 1091 q 544 1040 492 1091 q 595 917 595 989 l 595 892 l 1016 892 q 1139 841 1088 892 q 1190 719 1190 790 l 1190 595 l 1339 595 q 1416 576 1381 595 q 1468 521 1451 557 q 1479 468 1479 496 "},"":{"x_min":0,"x_max":1389,"ha":1389,"o":"m 297 272 l 297 223 q 290 205 297 213 q 272 198 282 198 l 223 198 q 205 205 213 198 q 198 223 198 213 l 198 272 q 205 290 198 282 q 223 297 213 297 l 272 297 q 290 290 282 297 q 297 272 297 282 m 297 471 l 297 421 q 290 404 297 411 q 272 396 282 396 l 223 396 q 205 404 213 396 q 198 421 198 411 l 198 471 q 205 488 198 481 q 223 496 213 496 l 272 496 q 290 488 282 496 q 297 471 297 481 m 297 669 l 297 620 q 290 602 297 610 q 272 595 282 595 l 223 595 q 205 602 213 595 q 198 620 198 610 l 198 669 q 205 687 198 679 q 223 694 213 694 l 272 694 q 290 687 282 694 q 297 669 297 679 m 1190 272 l 1190 223 q 1183 205 1190 213 q 1165 198 1175 198 l 421 198 q 404 205 411 198 q 396 223 396 213 l 396 272 q 404 290 396 282 q 421 297 411 297 l 1165 297 q 1183 290 1175 297 q 1190 272 1190 282 m 1190 471 l 1190 421 q 1183 404 1190 411 q 1165 396 1175 396 l 421 396 q 404 404 411 396 q 396 421 396 411 l 396 471 q 404 488 396 481 q 421 496 411 496 l 1165 496 q 1183 488 1175 496 q 1190 471 1190 481 m 1190 669 l 1190 620 q 1183 602 1190 610 q 1165 595 1175 595 l 421 595 q 404 602 411 595 q 396 620 396 610 l 396 669 q 404 687 396 679 q 421 694 411 694 l 1165 694 q 1183 687 1175 694 q 1190 669 1190 679 m 1289 124 l 1289 768 q 1282 786 1289 778 q 1264 793 1275 793 l 124 793 q 106 786 113 793 q 99 768 99 778 l 99 124 q 106 106 99 113 q 124 99 113 99 l 1264 99 q 1282 106 1275 99 q 1289 124 1289 113 m 1389 967 l 1389 124 q 1352 36 1389 72 q 1264 0 1316 0 l 124 0 q 36 36 72 0 q 0 124 0 72 l 0 967 q 36 1054 0 1018 q 124 1091 72 1091 l 1264 1091 q 1352 1054 1316 1091 q 1389 967 1389 1018 "},"":{"x_min":0,"x_max":1389,"ha":1389,"o":"m 496 992 l 892 992 l 892 1091 l 496 1091 l 496 992 m 1389 496 l 1389 124 q 1352 36 1389 72 q 1264 0 1316 0 l 124 0 q 36 36 72 0 q 0 124 0 72 l 0 496 l 520 496 l 520 372 q 535 337 520 351 q 570 322 550 322 l 818 322 q 853 337 838 322 q 868 372 868 351 l 868 496 l 1389 496 m 793 496 l 793 396 l 595 396 l 595 496 l 793 496 m 1389 868 l 1389 570 l 0 570 l 0 868 q 36 955 0 919 q 124 992 72 992 l 396 992 l 396 1116 q 418 1168 396 1147 q 471 1190 440 1190 l 917 1190 q 970 1168 948 1190 q 992 1116 992 1147 l 992 992 l 1264 992 q 1352 955 1316 992 q 1389 868 1389 919 "},"":{"x_min":20.921875,"x_max":1289.78125,"ha":1290,"o":"m 922 740 l 1149 967 l 1066 1050 l 839 823 l 922 740 m 1254 1002 q 1268 967 1268 988 q 1254 932 1268 946 l 258 -64 q 223 -78 244 -78 q 188 -64 202 -78 l 34 89 q 20 124 20 103 q 34 158 20 144 l 1031 1155 q 1066 1169 1045 1169 q 1101 1155 1087 1169 l 1254 1002 m 221 1114 l 297 1091 l 221 1068 l 198 992 l 175 1068 l 99 1091 l 175 1114 l 198 1190 l 221 1114 m 492 989 l 644 942 l 492 896 l 446 744 l 399 896 l 248 942 l 399 989 l 446 1140 l 492 989 m 1213 618 l 1289 595 l 1213 572 l 1190 496 l 1167 572 l 1091 595 l 1167 618 l 1190 694 l 1213 618 m 717 1114 l 793 1091 l 717 1068 l 694 992 l 671 1068 l 595 1091 l 671 1114 l 694 1190 l 717 1114 "},"":{"x_min":0,"x_max":793.71875,"ha":794,"o":"m 778 679 q 793 644 793 665 q 778 610 793 624 l 431 262 q 396 248 417 248 q 361 262 376 248 l 14 610 q 0 644 0 624 q 14 679 0 665 q 49 694 29 694 l 744 694 q 778 679 764 694 "},"":{"x_min":0,"x_max":1289.78125,"ha":1290,"o":"m 486 311 q 496 248 496 279 q 486 184 496 217 q 453 125 476 151 q 396 99 429 99 q 340 125 364 99 q 307 184 317 151 q 297 248 297 217 q 307 311 297 279 q 340 370 317 344 q 396 396 364 396 q 453 370 429 396 q 486 311 476 344 m 982 311 q 992 248 992 279 q 982 184 992 217 q 949 125 972 151 q 892 99 925 99 q 836 125 860 99 q 803 184 813 151 q 793 248 793 217 q 803 311 793 279 q 836 370 813 344 q 892 396 860 396 q 949 370 925 396 q 982 311 972 344 m 1116 248 q 1062 406 1116 341 q 917 471 1009 471 q 766 454 885 471 q 644 446 711 446 q 523 454 578 446 q 372 471 405 471 q 227 406 280 471 q 173 248 173 341 q 198 129 173 179 q 261 49 223 78 q 355 2 299 20 q 464 -20 412 -14 q 579 -25 516 -25 l 710 -25 q 825 -20 773 -25 q 934 2 877 -14 q 1028 49 990 20 q 1091 129 1066 78 q 1116 248 1116 179 m 1289 384 q 1242 127 1289 224 q 1160 24 1213 68 q 1051 -41 1108 -18 q 919 -78 994 -65 q 786 -95 844 -92 q 657 -99 728 -99 q 547 -96 596 -99 q 432 -87 497 -94 q 314 -63 368 -79 q 208 -24 261 -48 q 114 38 155 0 q 48 127 73 77 q 0 384 0 223 q 105 691 0 568 q 84 823 84 754 q 124 992 84 913 q 271 961 207 992 q 417 865 334 930 q 657 892 531 892 q 874 868 772 892 q 1019 961 955 931 q 1165 992 1082 992 q 1205 823 1205 913 q 1184 692 1205 755 q 1289 384 1289 568 "},"":{"x_min":0,"x_max":1190.578125,"ha":1191,"o":"m 981 460 q 995 495 995 474 q 981 530 995 516 l 910 600 q 875 614 896 614 q 841 600 854 614 l 694 454 l 694 843 q 679 878 694 863 q 644 892 665 892 l 545 892 q 510 878 525 892 q 496 843 496 863 l 496 454 l 349 600 q 314 615 334 615 q 279 600 294 615 l 209 530 q 195 495 195 516 q 209 460 195 474 l 489 179 l 560 109 q 595 95 574 95 q 630 109 616 95 l 700 179 l 981 460 m 1110 794 q 1190 496 1190 658 q 1110 197 1190 334 q 894 -19 1030 60 q 595 -99 757 -99 q 296 -19 433 -99 q 79 197 159 60 q 0 496 0 334 q 79 794 0 658 q 296 1011 159 931 q 595 1091 433 1091 q 894 1011 757 1091 q 1110 794 1030 931 "},"":{"x_min":0,"x_max":1389,"ha":1389,"o":"m 1374 530 q 1389 496 1389 516 q 1374 461 1389 475 l 1175 262 q 1140 248 1161 248 q 1106 262 1120 248 q 1091 297 1091 277 l 1091 396 l 793 396 l 793 99 l 892 99 q 927 84 913 99 q 942 49 942 69 q 927 14 942 29 l 729 -183 q 694 -198 714 -198 q 659 -183 674 -198 l 461 14 q 446 49 446 29 q 461 84 446 69 q 496 99 475 99 l 595 99 l 595 396 l 297 396 l 297 297 q 282 262 297 277 q 248 248 268 248 q 213 262 227 248 l 14 461 q 0 496 0 475 q 14 530 0 516 l 213 729 q 248 744 227 744 q 282 729 268 744 q 297 694 297 714 l 297 595 l 595 595 l 595 892 l 496 892 q 461 907 475 892 q 446 942 446 922 q 461 977 446 962 l 659 1175 q 694 1190 674 1190 q 729 1175 714 1190 l 927 977 q 942 942 942 962 q 927 907 942 922 q 892 892 913 892 l 793 892 l 793 595 l 1091 595 l 1091 694 q 1106 729 1091 714 q 1140 744 1120 744 q 1175 729 1161 744 l 1374 530 "},"":{"x_min":0,"x_max":1091.359375,"ha":1091,"o":"m 361 825 q 382 816 369 816 q 403 825 394 816 q 412 846 412 834 q 403 867 412 858 q 382 876 394 876 q 361 867 369 876 q 352 846 352 858 q 361 825 352 834 m 687 825 q 709 816 696 816 q 730 825 721 816 q 738 846 738 834 q 730 867 738 858 q 709 876 721 876 q 687 867 696 876 q 679 846 679 858 q 687 825 679 834 m 79 673 q 135 650 112 673 q 158 594 158 627 l 158 261 q 136 204 158 227 q 79 181 113 181 q 23 204 46 181 q 0 261 0 227 l 0 594 q 23 650 0 627 q 79 673 46 673 m 901 658 l 901 142 q 876 82 901 106 q 816 57 851 57 l 758 57 l 758 -118 q 735 -175 758 -151 q 679 -198 712 -198 q 622 -175 645 -198 q 599 -118 599 -151 l 599 57 l 492 57 l 492 -118 q 468 -175 492 -151 q 412 -198 445 -198 q 356 -175 379 -198 q 333 -118 333 -151 l 332 57 l 275 57 q 214 82 239 57 q 189 142 189 106 l 189 658 l 901 658 m 721 972 q 854 853 804 930 q 903 686 903 777 l 186 686 q 236 853 186 777 q 369 972 286 930 l 314 1074 q 318 1089 309 1084 q 334 1085 328 1094 l 389 982 q 545 1015 463 1015 q 701 982 627 1015 l 757 1085 q 772 1089 762 1094 q 776 1074 782 1084 l 721 972 m 1091 594 l 1091 261 q 1068 204 1091 227 q 1011 181 1044 181 q 955 204 978 181 q 932 261 932 227 l 932 594 q 955 650 932 627 q 1011 673 978 673 q 1068 650 1044 673 q 1091 594 1091 627 "},"":{"x_min":0,"x_max":1289.78125,"ha":1290,"o":"m 595 446 l 595 148 q 551 43 595 86 q 446 0 508 0 l 148 0 q 43 43 86 0 q 0 148 0 86 l 0 694 q 31 848 0 775 q 116 975 62 921 q 243 1059 169 1028 q 396 1091 316 1091 l 446 1091 q 481 1076 466 1091 q 496 1041 496 1061 l 496 942 q 481 907 496 922 q 446 892 466 892 l 396 892 q 256 834 314 892 q 198 694 198 776 l 198 669 q 220 616 198 638 q 272 595 241 595 l 446 595 q 551 551 508 595 q 595 446 595 508 m 1289 446 l 1289 148 q 1246 43 1289 86 q 1140 0 1202 0 l 843 0 q 737 43 781 0 q 694 148 694 86 l 694 694 q 725 848 694 775 q 810 975 757 921 q 937 1059 864 1028 q 1091 1091 1010 1091 l 1140 1091 q 1175 1076 1161 1091 q 1190 1041 1190 1061 l 1190 942 q 1175 907 1190 922 q 1140 892 1161 892 l 1091 892 q 951 834 1009 892 q 892 694 892 776 l 892 669 q 914 616 892 638 q 967 595 936 595 l 1140 595 q 1246 551 1202 595 q 1289 446 1289 508 "},"":{"x_min":0,"x_max":1389,"ha":1389,"o":"m 1295 745 q 1389 496 1389 630 q 1295 246 1389 361 q 1043 66 1202 132 q 694 0 883 0 q 582 6 640 0 q 225 -181 428 -129 q 137 -198 187 -192 q 113 -191 124 -199 q 99 -168 103 -182 l 99 -168 q 99 -158 97 -165 q 101 -151 101 -152 q 104 -143 100 -149 q 109 -136 108 -137 q 114 -130 110 -135 q 120 -123 119 -124 q 144 -96 126 -117 q 171 -67 163 -75 q 195 -36 179 -58 q 220 3 211 -14 q 241 48 230 20 q 261 107 253 76 q 70 278 140 176 q 0 496 0 379 q 55 688 0 596 q 203 847 110 780 q 424 953 296 913 q 694 992 553 992 q 1043 925 883 992 q 1295 745 1202 859 "},"":{"x_min":0,"x_max":1190.578125,"ha":1191,"o":"m 822 536 q 843 496 843 521 q 822 455 843 470 l 475 207 q 423 203 451 189 q 396 248 396 217 l 396 744 q 423 788 396 775 q 475 784 451 802 l 822 536 m 992 124 l 992 868 q 985 885 992 878 q 967 892 978 892 l 223 892 q 205 885 212 892 q 198 868 198 878 l 198 124 q 205 106 198 113 q 223 99 212 99 l 967 99 q 985 106 978 99 q 992 124 992 113 m 1190 868 l 1190 124 q 1125 -33 1190 31 q 967 -99 1059 -99 l 223 -99 q 65 -33 131 -99 q 0 124 0 31 l 0 868 q 65 1025 0 960 q 223 1091 131 1091 l 967 1091 q 1125 1025 1059 1091 q 1190 868 1190 960 "},"":{"x_min":0,"x_max":1190.578125,"ha":1191,"o":"m 296 1011 q 595 1091 433 1091 q 894 1011 757 1091 q 1110 794 1030 931 q 1190 496 1190 658 q 1110 197 1190 334 q 894 -19 1030 60 q 595 -99 757 -99 q 296 -19 433 -99 q 79 197 159 60 q 0 496 0 334 q 79 794 0 658 q 296 1011 159 931 m 807 687 q 800 680 806 686 q 789 672 794 673 q 793 676 791 672 q 797 685 795 680 q 799 690 799 689 q 816 702 804 696 q 857 711 827 706 q 896 703 883 717 q 904 713 895 704 q 915 722 913 721 q 927 725 917 723 q 938 731 936 727 l 940 748 q 926 754 930 747 q 921 770 922 760 q 916 764 921 768 q 913 770 916 769 q 904 769 909 771 q 897 768 899 768 q 885 774 889 771 q 879 787 882 778 q 876 799 877 796 q 869 807 875 803 q 861 815 863 811 q 859 819 861 816 q 857 824 858 822 q 854 828 856 827 q 850 830 852 830 q 844 827 847 830 q 839 819 841 823 q 835 815 836 815 q 830 816 833 816 q 827 815 828 816 q 823 813 826 815 q 820 810 821 811 q 813 808 817 809 q 806 806 809 807 q 806 815 818 810 q 793 817 798 818 q 799 827 800 820 q 792 837 798 833 l 796 837 q 790 844 796 841 q 776 851 784 847 q 766 855 768 854 q 740 863 760 859 q 714 863 720 866 q 711 855 710 858 q 714 844 711 851 q 716 834 716 837 q 712 824 717 830 q 707 815 707 819 q 718 803 707 809 q 726 786 729 796 q 713 774 723 780 q 701 765 703 768 q 700 750 697 758 q 708 737 703 742 q 709 734 710 736 q 706 731 709 733 q 702 728 704 729 q 697 725 700 727 l 695 723 q 679 728 686 720 q 668 748 672 737 q 656 772 663 768 q 634 771 638 778 q 602 791 630 781 q 557 794 582 798 q 557 806 561 795 q 542 815 551 817 q 545 828 544 820 q 546 839 546 837 q 555 857 548 849 q 561 863 556 858 q 568 874 565 869 q 568 878 571 878 q 607 887 596 875 q 616 900 611 891 q 624 913 621 909 q 635 918 631 918 q 646 913 639 917 q 658 909 654 909 q 670 918 668 909 q 664 934 671 927 q 666 947 673 933 q 660 954 662 952 q 639 950 651 957 q 641 944 633 947 q 633 935 640 944 q 620 922 627 927 q 608 926 614 917 q 604 936 607 927 q 596 947 600 946 q 584 935 590 947 q 575 947 586 941 q 557 953 565 952 q 551 974 572 962 q 535 978 545 977 q 520 975 524 978 q 515 966 516 969 q 519 959 515 962 q 527 955 523 957 q 536 952 531 954 q 543 950 541 951 q 549 939 554 942 q 542 936 548 938 q 534 933 537 934 q 529 930 530 931 q 529 919 527 927 q 527 908 531 911 q 520 922 523 912 q 515 934 517 931 q 496 930 520 927 l 488 930 q 475 929 485 930 q 460 928 466 927 q 449 934 453 929 q 449 950 446 940 q 452 951 450 953 q 444 959 449 954 q 436 965 438 964 q 363 934 400 954 q 372 934 368 933 q 382 939 376 936 q 390 944 389 943 q 423 949 417 954 l 427 953 q 442 934 437 940 q 419 934 437 937 q 402 925 403 930 q 406 911 407 916 q 397 919 403 913 q 386 927 391 924 q 374 931 380 930 q 357 930 361 931 q 175 758 244 868 q 184 752 180 753 q 188 745 187 751 q 190 737 189 739 q 199 739 191 734 q 201 724 206 733 q 235 703 202 725 q 251 687 250 690 q 244 673 254 679 q 237 680 243 675 q 230 683 230 685 q 230 669 227 679 q 238 659 233 658 q 231 647 233 659 q 229 619 229 634 q 228 601 229 604 l 230 600 q 234 573 227 591 q 251 558 241 556 q 266 525 241 556 q 272 518 271 519 q 282 512 275 517 q 293 504 289 508 q 301 496 298 501 q 309 479 304 492 q 320 461 313 465 q 327 445 318 456 q 335 427 336 434 q 333 427 334 427 q 331 426 332 426 q 343 415 334 420 q 355 405 353 410 q 357 397 356 403 q 359 389 358 392 q 365 387 361 386 q 347 435 367 403 q 334 458 335 454 q 329 470 331 461 q 326 481 327 478 q 330 480 327 481 q 337 477 334 479 q 343 474 341 475 q 344 472 345 472 q 346 458 342 466 q 355 444 350 450 q 368 429 361 437 q 378 419 376 420 q 389 404 382 414 q 389 393 395 393 q 404 386 396 393 q 417 370 413 378 q 423 350 421 364 q 427 331 426 336 q 434 321 429 326 q 444 313 439 316 q 456 307 448 311 q 466 302 464 303 q 480 294 470 300 q 497 285 491 287 q 510 282 505 282 q 521 284 514 282 q 531 286 527 286 q 554 275 543 288 q 570 258 565 261 q 613 250 598 244 q 613 244 611 249 q 619 232 615 239 q 626 221 623 225 q 630 214 629 217 q 644 203 634 210 q 658 191 654 196 q 664 198 663 194 q 669 182 661 192 q 683 175 677 173 q 694 199 694 177 q 656 213 670 188 q 654 218 656 214 q 651 224 652 221 q 649 231 650 227 q 649 237 648 234 q 653 239 650 239 q 661 242 660 239 q 659 251 661 244 q 656 261 657 258 q 648 277 655 268 q 638 289 640 286 q 626 282 634 282 q 613 289 617 283 q 612 285 613 289 q 611 280 611 282 q 599 281 601 280 q 601 294 600 283 q 604 312 603 306 q 608 321 605 315 q 614 332 612 327 q 617 342 616 337 q 614 349 618 347 q 600 351 610 352 q 580 336 585 351 q 578 328 579 334 q 574 319 576 322 q 567 313 572 316 q 548 312 561 311 q 530 316 535 313 q 512 338 520 322 q 505 367 505 355 q 507 387 505 375 q 509 407 509 400 q 505 426 510 413 q 512 433 507 427 q 520 441 517 439 q 523 442 521 442 q 527 442 525 443 q 530 444 528 442 q 532 448 531 445 q 529 451 531 449 q 526 453 527 453 q 548 454 531 451 q 569 453 565 458 q 586 454 581 444 q 584 462 586 455 q 584 472 582 468 q 606 465 588 451 q 618 461 609 463 q 632 458 628 460 q 637 453 634 456 q 642 450 641 451 q 646 450 643 449 q 652 455 648 451 q 661 437 660 444 q 676 403 670 406 q 685 401 682 400 q 688 408 688 402 q 688 419 689 415 q 687 429 688 423 l 686 435 q 686 449 686 442 l 685 455 q 671 465 674 458 q 672 479 668 472 q 684 493 676 486 q 690 496 685 494 q 702 501 696 498 q 712 507 709 504 q 723 534 728 522 q 732 541 729 534 q 728 544 731 541 q 722 548 725 546 q 719 549 720 549 q 720 561 726 553 q 726 570 724 564 q 732 578 728 576 q 748 576 739 568 q 749 589 754 582 q 765 597 753 594 q 779 604 777 599 q 785 606 785 603 q 786 615 786 609 q 789 624 786 621 q 800 631 792 628 q 810 635 809 634 l 823 644 q 823 647 826 647 q 847 655 837 645 q 843 671 855 664 q 840 678 845 675 q 829 682 836 681 q 838 683 831 683 q 846 684 844 682 q 841 696 858 692 q 807 687 827 700 m 681 7 q 953 154 841 35 q 943 157 951 156 q 934 160 936 158 q 915 166 920 165 q 913 176 916 172 q 907 183 910 181 q 897 189 903 186 q 889 195 891 193 q 883 199 887 196 q 878 204 879 203 q 872 207 876 205 q 865 209 868 210 q 858 208 863 208 l 855 207 q 851 205 853 206 q 847 203 849 204 q 844 201 844 202 q 844 199 843 199 q 816 216 827 212 q 807 220 812 217 q 799 225 803 224 q 791 227 796 227 q 782 221 787 226 q 778 210 778 217 q 776 199 777 202 q 776 213 771 203 q 778 227 782 223 q 770 231 775 232 q 760 227 764 230 q 751 221 757 225 q 744 216 746 217 q 738 211 743 215 q 731 206 733 208 q 727 196 729 203 q 723 188 724 190 q 714 193 721 191 q 706 197 706 195 q 710 170 708 189 q 713 141 711 151 q 704 103 719 117 q 682 72 683 84 q 691 52 679 55 q 685 36 691 47 q 679 20 679 26 q 681 7 679 15 "},"":{"x_min":0,"x_max":1091.359375,"ha":1091,"o":"m 297 297 l 297 198 l 198 198 l 198 297 l 297 297 m 297 892 l 297 793 l 198 793 l 198 892 l 297 892 m 892 892 l 892 793 l 793 793 l 793 892 l 892 892 m 99 99 l 396 99 l 396 396 l 99 396 l 99 99 m 99 694 l 396 694 l 396 992 l 99 992 l 99 694 m 694 694 l 992 694 l 992 992 l 694 992 l 694 694 m 496 496 l 496 0 l 0 0 l 0 496 l 496 496 m 892 99 l 892 0 l 793 0 l 793 99 l 892 99 m 1091 99 l 1091 0 l 992 0 l 992 99 l 1091 99 m 1091 496 l 1091 198 l 793 198 l 793 297 l 694 297 l 694 0 l 595 0 l 595 496 l 892 496 l 892 396 l 992 396 l 992 496 l 1091 496 m 496 1091 l 496 595 l 0 595 l 0 1091 l 496 1091 m 1091 1091 l 1091 595 l 595 595 l 595 1091 l 1091 1091 "},"":{"x_min":0,"x_max":1190.578125,"ha":1191,"o":"m 1190 496 q 1143 265 1190 375 q 1016 75 1096 155 q 826 -51 936 -4 q 595 -99 716 -99 q 364 -51 474 -99 q 174 75 254 -4 q 47 265 94 155 q 0 496 0 375 q 62 761 0 637 q 237 971 124 886 q 311 990 271 996 q 376 951 352 985 q 395 878 401 919 q 357 813 389 837 q 239 672 281 755 q 198 496 198 589 q 229 342 198 415 q 314 215 261 268 q 441 130 368 162 q 595 99 514 99 q 749 130 675 99 q 875 215 822 162 q 960 342 929 268 q 992 496 992 415 q 950 672 992 589 q 833 813 909 755 q 794 878 800 837 q 813 951 789 919 q 878 990 837 985 q 952 971 920 996 q 1128 761 1065 886 q 1190 496 1190 637 m 694 1091 l 694 595 q 665 525 694 554 q 595 496 635 496 q 525 525 554 496 q 496 595 496 554 l 496 1091 q 525 1161 496 1131 q 595 1190 554 1190 q 665 1161 635 1190 q 694 1091 694 1131 "},"":{"x_min":0,"x_max":1190.578125,"ha":1215,"o":"m 351 227 q 384 148 384 195 q 351 69 384 102 q 272 37 318 37 q 193 69 226 37 q 161 148 161 102 q 193 227 161 195 q 272 260 226 260 q 351 227 318 260 m 690 70 q 719 0 719 41 q 690 -70 719 -41 q 620 -99 661 -99 q 549 -70 579 -99 q 520 0 520 -41 q 549 70 520 41 q 620 99 579 99 q 690 70 661 99 m 211 583 q 248 496 248 547 q 211 408 248 444 q 124 372 175 372 q 36 408 72 372 q 0 496 0 444 q 36 583 0 547 q 124 620 72 620 q 211 583 175 620 m 1028 210 q 1054 148 1054 184 q 1028 87 1054 113 q 967 62 1003 62 q 906 87 931 62 q 880 148 880 113 q 906 210 880 184 q 967 235 931 235 q 1028 210 1003 235 m 369 939 q 409 843 409 899 q 369 746 409 786 q 272 706 329 706 q 176 746 216 706 q 136 843 136 786 q 176 939 136 899 q 272 979 216 979 q 369 939 329 979 m 725 1097 q 768 992 768 1054 q 725 886 768 930 q 620 843 682 843 q 514 886 558 843 q 471 992 471 930 q 514 1097 471 1054 q 620 1140 558 1140 q 725 1097 682 1140 m 1168 548 q 1190 496 1190 527 q 1168 443 1190 465 q 1116 421 1147 421 q 1063 443 1085 421 q 1041 496 1041 465 q 1063 548 1041 527 q 1116 570 1085 570 q 1168 548 1147 570 m 1011 887 q 1029 843 1029 868 q 1011 799 1029 817 q 967 781 992 781 q 923 799 941 781 q 905 843 905 817 q 923 887 905 868 q 967 905 941 905 q 1011 887 992 905 "},"":{"x_min":0,"x_max":1190.578125,"ha":1191,"o":"m 630 183 l 982 535 q 996 570 996 550 q 982 605 996 590 l 903 684 q 868 699 888 699 q 833 684 847 699 l 595 446 l 357 684 q 322 699 342 699 q 287 684 302 699 l 208 605 q 193 570 193 590 q 208 535 193 550 l 560 183 q 595 168 575 168 q 630 183 615 168 m 1110 794 q 1190 496 1190 658 q 1110 197 1190 334 q 894 -19 1030 60 q 595 -99 757 -99 q 296 -19 433 -99 q 79 197 159 60 q 0 496 0 334 q 79 794 0 658 q 296 1011 159 931 q 595 1091 433 1091 q 894 1011 757 1091 q 1110 794 1030 931 "},"":{"x_min":0,"x_max":1190.578125,"ha":1191,"o":"m 694 768 l 694 421 q 687 403 694 410 q 669 396 680 396 l 421 396 q 403 403 410 396 q 396 421 396 410 l 396 471 q 403 489 396 482 q 421 496 410 496 l 595 496 l 595 768 q 602 786 595 779 q 620 793 609 793 l 669 793 q 687 786 680 793 q 694 768 694 779 m 960 284 q 1016 496 1016 381 q 960 707 1016 610 q 806 861 903 804 q 595 917 710 917 q 383 861 480 917 q 230 707 286 804 q 173 496 173 610 q 230 284 173 381 q 383 130 286 187 q 595 74 480 74 q 806 130 710 74 q 960 284 903 187 m 1110 794 q 1190 496 1190 658 q 1110 197 1190 334 q 894 -19 1030 60 q 595 -99 757 -99 q 296 -19 433 -99 q 79 197 159 60 q 0 496 0 334 q 79 794 0 658 q 296 1011 159 931 q 595 1091 433 1091 q 894 1011 757 1091 q 1110 794 1030 931 "},"":{"x_min":0,"x_max":1086.703125,"ha":1091,"o":"m 1086 335 q 1027 228 1061 273 q 957 160 993 183 q 880 124 920 136 q 801 112 840 111 q 727 119 763 113 q 660 136 690 124 q 606 157 629 148 q 570 175 582 167 l 557 182 q 332 -95 469 6 q 34 -198 196 -197 q 10 -188 20 -198 q 0 -163 0 -178 q 10 -139 0 -148 q 34 -129 20 -129 q 284 -46 168 -128 q 479 182 400 36 q 423 164 451 171 q 359 154 396 157 q 289 156 323 151 q 217 178 255 161 q 145 224 179 195 q 80 301 112 252 q 22 414 48 350 q 188 458 110 451 q 318 453 265 466 q 414 409 370 439 q 483 349 458 379 q 527 286 507 320 q 588 511 568 387 q 574 509 582 510 q 538 507 565 508 q 484 508 510 506 q 421 515 458 509 q 352 533 384 522 q 287 566 320 544 q 229 616 254 588 q 187 690 204 645 q 165 789 169 734 q 268 817 219 810 q 355 816 317 823 q 427 793 393 809 q 484 754 460 777 q 527 707 507 731 q 560 658 547 682 q 581 615 572 634 q 593 584 589 596 l 596 572 q 606 723 606 666 q 589 735 599 727 q 551 770 579 743 q 502 825 523 796 q 460 897 480 854 q 434 984 440 940 q 444 1083 429 1028 q 498 1190 458 1137 q 597 1142 554 1171 q 662 1083 639 1114 q 699 1017 685 1052 q 715 948 713 982 q 715 882 717 914 q 705 823 713 850 q 690 775 697 796 q 677 742 683 754 l 672 730 q 672 691 672 727 q 672 636 672 656 q 679 650 674 641 q 703 684 685 659 q 742 728 721 708 q 797 772 763 749 q 868 806 831 794 q 955 817 905 818 q 1058 799 1005 816 q 1041 689 1056 738 q 1002 608 1026 640 q 948 553 978 576 q 885 517 918 529 q 820 499 852 506 q 758 491 787 492 q 705 492 728 491 q 669 496 682 493 l 656 498 q 599 279 638 384 q 613 293 604 284 q 652 325 623 302 q 712 365 681 348 q 789 398 743 383 q 880 413 835 413 q 980 395 925 414 q 1086 335 1035 376 "},"":{"x_min":0,"x_max":1190.578125,"ha":1191,"o":"m 545 148 l 545 942 q 538 960 545 953 q 520 967 531 967 l 148 967 q 130 960 137 967 q 124 942 124 953 l 124 148 q 130 130 124 137 q 148 124 137 124 l 520 124 q 538 130 531 124 q 545 148 545 137 m 1066 446 l 1066 942 q 1059 960 1066 953 q 1041 967 1052 967 l 669 967 q 651 960 658 967 q 644 942 644 953 l 644 446 q 651 428 644 435 q 669 421 658 421 l 1041 421 q 1059 428 1052 421 q 1066 446 1066 435 m 1190 1041 l 1190 -49 q 1175 -84 1190 -69 q 1140 -99 1161 -99 l 49 -99 q 14 -84 29 -99 q 0 -49 0 -69 l 0 1041 q 14 1076 0 1061 q 49 1091 29 1091 l 1140 1091 q 1175 1076 1161 1091 q 1190 1041 1190 1061 "},"":{"x_min":49.609375,"x_max":1289.78125,"ha":1290,"o":"m 496 496 l 496 793 l 297 793 l 297 595 q 326 525 297 554 q 396 496 355 496 l 496 496 m 1289 148 l 1289 0 l 396 0 l 396 148 l 496 297 l 396 297 q 186 384 273 297 q 99 595 99 472 l 99 843 l 49 892 l 74 992 l 446 992 l 471 1091 l 1215 1091 l 1240 942 l 1190 917 l 1190 297 l 1289 148 "}}}
